<?xml version="1.0" encoding="UTF-8" standalone="no"?>
<!-- Created with Inkscape (http://www.inkscape.org/) -->

<svg
   xmlns:dc="http://purl.org/dc/elements/1.1/"
   xmlns:cc="http://creativecommons.org/ns#"
   xmlns:rdf="http://www.w3.org/1999/02/22-rdf-syntax-ns#"
   xmlns:svg="http://www.w3.org/2000/svg"
   xmlns="http://www.w3.org/2000/svg"
   xmlns:sodipodi="http://sodipodi.sourceforge.net/DTD/sodipodi-0.dtd"
   xmlns:inkscape="http://www.inkscape.org/namespaces/inkscape"
   version="1.1"
   id="svg195"
   width="500"
   height="500"
   viewBox="0 0 500 500"
   sodipodi:docname="icon.svg"
   inkscape:version="0.92.5 (2060ec1f9f, 2020-04-08)">
  <metadata
     id="metadata201">
    <rdf:RDF>
      <cc:Work
         rdf:about="">
        <dc:format>image/svg+xml</dc:format>
        <dc:type
           rdf:resource="http://purl.org/dc/dcmitype/StillImage" />
        <dc:title></dc:title>
      </cc:Work>
    </rdf:RDF>
  </metadata>
  <defs
     id="defs199" />
  <sodipodi:namedview
     pagecolor="#ffffff"
     bordercolor="#666666"
     borderopacity="1"
     objecttolerance="10"
     gridtolerance="10"
     guidetolerance="10"
     inkscape:pageopacity="0"
     inkscape:pageshadow="2"
     inkscape:window-width="1920"
     inkscape:window-height="1016"
     id="namedview197"
     showgrid="false"
     inkscape:zoom="0.838"
     inkscape:cx="-52.233037"
     inkscape:cy="302.02395"
     inkscape:window-x="0"
     inkscape:window-y="27"
     inkscape:window-maximized="1"
     inkscape:current-layer="svg195" />
  <g
     id="g205"
     transform="translate(3.5799568,4.7732695)">
    <path
       style="fill:#eed3f6"
       d="m 84.274172,407.54743 c -5.929795,-2.76077 -6.375921,-3.37581 -21.181782,-29.2017 l -9.261168,-16.15426 -6.665611,-3.26284 C 34.211504,352.58757 22.298006,337.7598 18.584193,323.35566 16.301782,314.50325 16.222046,223.40697 18.48909,214.70319 23.121382,196.91862 37.393462,181.6641 54.92787,175.75608 61.328331,173.59952 63.001946,173.52807 119,173.02084 l 57.5,-0.52084 0.57889,-20 c 0.422,-14.57973 1.00266,-21.10336 2.14257,-24.07125 6.78142,-17.65624 19.00105,-29.885811 35.5881,-35.617039 L 221.5,90.5 h 109 109 l 6.69044,2.311711 c 17.83484,6.162373 32.10646,21.619009 36.26978,39.281359 2.24256,9.5138 2.25204,99.75216 0.0114,108.35463 -3.87694,14.88457 -14.06821,27.85424 -28.04069,35.68529 l -7.8175,4.38142 -10.62853,18.4928 c -12.31275,21.4232 -16.34148,26.15916 -23.76834,27.94084 -6.65278,1.59598 -14.39894,-0.45166 -18.74433,-4.95491 -1.63472,-1.69411 -7.71436,-11.27311 -13.51032,-21.28667 L 369.4238,282.5 H 346.4619 323.5 l -0.55688,19.5 c -0.45542,15.94681 -0.92063,20.52524 -2.55312,25.12654 -4.73401,13.34319 -15.65541,25.9319 -27.57583,31.78565 -12.17288,5.97773 -13.2772,6.05136 -91.04998,6.07045 L 131.02838,365 l -2.39551,3.75 c -1.31753,2.0625 -6.38641,10.67174 -11.26419,19.13165 -8.98083,15.57616 -11.80099,18.81504 -18.267903,20.98025 -5.133173,1.71865 -9.059529,1.37055 -14.826605,-1.31447 z m 21.725238,-37.82706 c 6.32468,-11.1212 12.49173,-21.23287 13.70455,-22.47037 l 2.20513,-2.25 77.79546,-7.9e-4 77.79545,-7.9e-4 6,-2.88282 c 7.48145,-3.59462 13.56091,-9.82125 17.19925,-17.6156 l 2.80075,-6 v -50 -50 l -2.79431,-5.69015 c -3.60813,-7.34738 -11.92136,-14.99855 -19.29319,-17.75671 -5.54934,-2.07627 -6.1882,-2.08654 -113.24666,-1.82059 L 60.5,193.5 55.159416,196.45823 C 47.971881,200.43952 42.230523,206.35123 39.094327,213 L 36.5,218.5 V 269 c 0,49.75792 0.03199,50.56924 2.176852,55.21176 4.342953,9.40023 11.348859,15.8843 20.823148,19.2721 2.75,0.98335 5.9,2.76515 7,3.95956 1.1,1.19442 7.175,11.24565 13.5,22.33608 6.932567,12.15575 12.095752,20.16378 13,20.16282 0.904029,-9.5e-4 6.068877,-8.03542 12.99941,-20.22195 z m 316.13383,-86.90101 11.9399,-20.68064 6.47699,-2.1554 c 8.25071,-2.74566 16.2216,-9.7823 20.15556,-17.79317 L 463.5,236.5 v -50 -50 l -2.63517,-5.62001 c -3.70676,-7.9054 -8.99532,-13.32661 -16.70142,-17.12031 L 437.54205,110.5 H 330.5 223.45795 l -6.62136,3.25968 c -7.7061,3.7937 -12.99466,9.21491 -16.70142,17.12031 -2.49405,5.31905 -2.65281,6.59733 -2.96459,23.87001 l -0.32942,18.25 37.82942,0.0174 c 41.86853,0.0192 46.88826,0.5433 58.14359,6.07045 11.91169,5.84947 22.81266,18.40891 27.58836,31.78565 1.70324,4.77078 2.09155,9.04864 2.55312,28.12654 l 0.54435,22.5 28.10889,0.26533 c 25.20708,0.23795 28.26908,0.44441 29.66066,2 0.85347,0.95407 6.35145,10.05967 12.21773,20.23467 14.70215,25.50072 13.50846,23.82322 15.26362,21.4502 0.79334,-1.07261 6.81539,-11.25649 13.38234,-22.63084 z"
       id="path219"
       inkscape:connector-curvature="0" />
    <path
       style="fill:#e3b3f0"
       d="M 86.577906,407.51478 C 80.656189,405.40489 78.084088,402.14046 66.474384,382 60.609137,371.825 55.318748,362.9024 54.717964,362.17199 c -0.600785,-0.7304 -3.370602,-2.4675 -6.15515,-3.86022 -12.645687,-6.32485 -22.331926,-16.95976 -27.47455,-30.16541 L 18.5,321.5 l -0.312702,-49 c -0.34514,-54.08307 -0.134002,-56.73125 5.429746,-68.10204 6.377608,-13.0341 15.903585,-21.37144 31.141405,-27.25562 L 61.5,174.53905 l 58,-0.51952 58,-0.51953 0.55365,-20.5 c 0.47689,-17.65819 0.84452,-21.22707 2.65198,-25.7449 6.6765,-16.68821 18.13652,-27.926259 34.10393,-33.443389 L 221.5,91.5 h 109 109 l 6.76623,2.33693 c 8.47206,2.926095 17.27938,8.75158 23.21908,15.35796 5.24666,5.83555 10.81731,16.87318 12.41772,24.60433 0.70661,3.41348 1.09697,22.28136 1.09697,53.02164 0,43.0619 -0.17757,48.36281 -1.8183,54.27977 -4.05365,14.61873 -15.28255,28.37761 -28.44982,34.85983 l -6.39647,3.14897 -9.3362,16.19529 c -5.13492,8.9074 -10.81745,18.46484 -12.62785,21.23874 -7.40797,11.35049 -21.4979,13.43342 -30.28003,4.47632 -1.97523,-2.01459 -7.95343,-11.28069 -13.28489,-20.59133 -5.33146,-9.31065 -10.25896,-17.49095 -10.95,-18.17845 -0.92997,-0.9252 -6.98591,-1.24602 -23.30644,-1.23469 -12.1275,0.008 -22.56875,0.34592 -23.20278,0.75 -0.78081,0.49763 -1.2773,6.86541 -1.53871,19.73469 -0.35335,17.39614 -0.60534,19.60913 -2.98519,26.21602 -5.81357,16.13949 -16.90037,26.86932 -34.73615,33.61773 -5.45545,2.06414 -7.34102,2.12638 -79.98011,2.64011 l -74.39294,0.52614 -10.37457,18 c -11.00514,19.09405 -14.81304,23.70474 -20.995125,25.42135 -4.946302,1.37346 -6.966534,1.30365 -11.766519,-0.40657 z M 95.758683,389.25 c 1.042179,-1.5125 6.984067,-11.6375 13.204187,-22.5 L 120.27219,347 H 195.926 c 65.10278,0 76.48365,-0.21615 81.60401,-1.54983 10.96209,-2.85526 19.78243,-10.36473 24.70087,-21.02983 2.2641,-4.90947 2.26912,-5.03218 2.26912,-55.52097 v -50.60064 l -3.5,-6.86055 c -2.62744,-5.15019 -4.99364,-8.06263 -9.49123,-11.68226 -10.83329,-8.71858 -2.83028,-8.1386 -117.00877,-8.4797 -58.90922,-0.17599 -103.821749,0.0874 -107.771,0.63198 -12.363886,1.70498 -21.838634,8.2724 -27.80187,19.27087 L 35.5,217.5 35.213817,266.93087 c -0.320403,55.34154 -0.306919,55.47295 6.626731,64.58211 5.084758,6.68015 9.879792,10.27545 17.276213,12.95363 l 6.335791,2.29413 11.523724,19.92838 c 16.565323,28.647 15.483873,27.348 18.782407,22.56088 z m 324.208437,-101 c 12.78785,-22.23962 15.4837,-26.25 17.6457,-26.25 3.20382,0 12.5631,-5.33381 16.80823,-9.57895 2.44479,-2.44478 5.71269,-7.02716 7.26201,-10.18306 L 464.5,236.5 v -50 -50 l -2.82391,-6.11039 c -4.78497,-10.35373 -14.39486,-18.15143 -25.11168,-20.37624 -3.44875,-0.71596 -38.76136,-0.97041 -109.08202,-0.78602 -117.70319,0.30863 -108.69022,-0.34144 -118.58286,8.55289 -10.95147,9.84631 -13.06008,16.38647 -12.67505,39.31346 L 196.5,173.5 l 41,0.54449 c 40.84947,0.5425 41.0243,0.5538 47.61957,3.07855 13.07977,5.00708 21.38936,11.32 27.84161,21.15169 7.23986,11.03183 8.31859,16.0503 8.96892,41.72527 l 0.5699,22.5 29,0.5 29,0.5 12.85928,22.25 c 7.0726,12.2375 13.39753,22.25 14.0554,22.25 0.65787,0 6.30647,-8.8875 12.55244,-19.75 z"
       id="path217"
       inkscape:connector-curvature="0" />
    <path
       style="fill:#dea5ee"
       d="M 86.577906,407.51478 C 80.656189,405.40489 78.084088,402.14046 66.474384,382 60.609137,371.825 55.318748,362.9024 54.717964,362.17199 c -0.600785,-0.7304 -3.370602,-2.4675 -6.15515,-3.86022 -12.645687,-6.32485 -22.331926,-16.95976 -27.47455,-30.16541 L 18.5,321.5 l -0.312702,-49 c -0.34514,-54.08307 -0.134002,-56.73125 5.429746,-68.10204 6.376374,-13.03158 15.893248,-21.36221 31.141405,-27.25976 L 61.5,174.53076 l 58.25,-0.32395 58.25,-0.32396 0.0174,-16.19142 c 0.0199,-18.53889 1.42889,-27.05354 6.02603,-36.41537 6.03001,-12.27978 18.86229,-23.313356 31.73982,-27.290818 C 222.02727,92.056646 225.30443,92 330.63688,92 c 107.07146,0 108.50391,0.02593 114.64467,2.075196 16.80228,5.607185 29.75377,18.699384 35.00299,35.383274 2.16261,6.87354 2.21546,8.22242 2.21546,56.54153 0,45.21048 -0.15934,50.01994 -1.83871,55.5 -4.61074,15.04562 -14.70829,27.38192 -27.49391,33.58964 l -7.0241,3.41036 -11.12719,19.18577 c -6.11996,10.55217 -12.07933,20.3962 -13.24305,21.87563 -4.6883,5.96021 -15.51639,8.14139 -22.56288,4.54501 -5.34224,-2.72657 -6.48078,-4.25593 -18.17137,-24.40889 L 370.48253,281.5 H 346.49126 322.5 l -0.54476,19.5 c -0.49386,17.67821 -0.78702,20.17416 -3.13797,26.71602 -5.79616,16.12867 -16.89084,26.86801 -34.7301,33.61773 -5.45545,2.06414 -7.34102,2.12638 -79.98011,2.64011 l -74.39294,0.52614 -10.37457,18 c -11.00514,19.09405 -14.81304,23.70474 -20.995125,25.42135 -4.946302,1.37346 -6.966534,1.30365 -11.766519,-0.40657 z M 95.758683,389.25 c 1.042179,-1.5125 6.984067,-11.6375 13.204187,-22.5 L 120.27219,347 H 195.926 c 65.10278,0 76.48365,-0.21615 81.60401,-1.54983 10.96209,-2.85526 19.78243,-10.36473 24.70087,-21.02983 2.26411,-4.90947 2.26912,-5.03217 2.26912,-55.52116 v -50.60083 l -3.5,-6.86036 c -2.62736,-5.1499 -4.99377,-8.06254 -9.49123,-11.68207 -10.83329,-8.71858 -2.83028,-8.1386 -117.00877,-8.4797 -58.90922,-0.17599 -103.821749,0.0874 -107.771,0.63198 -12.363886,1.70498 -21.838634,8.2724 -27.80187,19.27087 L 35.5,217.5 35.213817,266.93087 c -0.320403,55.34154 -0.306919,55.47295 6.626731,64.58211 5.084758,6.68015 9.879792,10.27545 17.276213,12.95363 l 6.335791,2.29413 11.523724,19.92838 c 16.565323,28.647 15.483873,27.348 18.782407,22.56088 z M 422.21486,285.41872 434.5,264.02401 l 7,-2.68566 c 9.22792,-3.54042 18.06051,-12.06649 21.58751,-20.83835 l 2.41249,-6 V 187 c 0,-43.14646 -0.1659,-48.00409 -1.81009,-53 -3.54925,-10.78449 -13.02433,-20.41253 -23.12141,-23.49466 -7.46122,-2.27754 -212.64913,-2.2645 -220.32167,0.014 -9.31768,2.76705 -19.12476,12.49601 -22.90211,22.71968 -1.67444,4.532 -3.16777,33.34557 -1.97459,38.09958 l 0.62903,2.50622 41.25042,0.3664 41.25042,0.36641 6.61957,2.53973 c 18.93621,7.26524 30.29452,19.4519 34.89509,37.43995 1.65087,6.45484 1.98534,11.08444 1.98534,27.48021 0,15.20927 0.30479,19.97055 1.33305,20.82392 0.88602,0.73534 10.69435,1.19557 29.24895,1.37245 l 27.91591,0.26611 12.00104,20.64827 c 13.74101,23.64193 14.22465,24.32601 16.09859,22.77078 0.7327,-0.60809 6.8605,-10.73324 13.61732,-22.50033 z"
       id="path215"
       inkscape:connector-curvature="0" />
    <path
       style="fill:#c7c7c7"
       d="M 86.577906,407.51478 C 80.656189,405.40489 78.084088,402.14046 66.474384,382 60.609137,371.825 55.318748,362.9024 54.717964,362.17199 c -0.600785,-0.7304 -3.370602,-2.4675 -6.15515,-3.86022 -12.645687,-6.32485 -22.331926,-16.95976 -27.47455,-30.16541 L 18.5,321.5 l -0.312702,-49 c -0.34514,-54.08307 -0.134002,-56.73125 5.429746,-68.10204 6.377449,-13.03377 15.902248,-21.37024 31.141405,-27.25615 L 61.5,174.53798 120,174.01899 178.5,173.5 179.05917,153 c 0.49409,-18.11409 0.82188,-21.16753 2.81644,-26.23554 6.13956,-15.60015 17.51973,-26.62327 33.01583,-31.979997 L 221.5,92.5 h 109 109 l 6.67258,2.305767 c 8.34321,2.883067 19.58834,10.691443 24.31833,16.886123 4.61414,6.04295 8.99541,15.35265 10.40401,22.10733 0.71734,3.4399 1.10508,22.04984 1.10508,53.0399 0,52.60086 -0.12387,53.89964 -6.25449,65.57943 -4.34922,8.28594 -14.51993,18.20559 -23.24551,22.67172 l -7,3.5829 -11.22672,19.41342 c -6.1747,10.67737 -12.77604,20.84883 -14.66965,22.60323 -8.63654,8.00163 -21.47187,5.94858 -28.27778,-4.5231 -1.66819,-2.5667 -6.74765,-11.19172 -11.2877,-19.16672 -4.54005,-7.975 -8.96694,-15.0625 -9.83752,-15.75 -1.15852,-0.91488 -7.53105,-1.25 -23.76931,-1.25 -16.53344,0 -22.44873,0.31849 -23.21588,1.25 -0.59357,0.72072 -1.19108,9.295 -1.41116,20.25 -0.34961,17.40249 -0.60025,19.60672 -2.98096,26.21602 -5.81357,16.13949 -16.90037,26.86932 -34.73615,33.61773 -5.45545,2.06414 -7.34102,2.12638 -79.98011,2.64011 l -74.39294,0.52614 -10.37457,18 c -11.00514,19.09405 -14.81304,23.70474 -20.995125,25.42135 -4.946302,1.37346 -6.966534,1.30365 -11.766519,-0.40657 z M 95.758683,389.25 c 1.042179,-1.5125 6.984067,-11.6375 13.204187,-22.5 L 120.27219,347 H 195.926 c 65.10278,0 76.48365,-0.21615 81.60401,-1.54983 10.96209,-2.85526 19.78243,-10.36473 24.70087,-21.02983 2.26411,-4.90947 2.26912,-5.03217 2.26912,-55.52116 v -50.60083 l -3.5,-6.86036 c -2.62736,-5.1499 -4.99377,-8.06254 -9.49123,-11.68207 -10.83329,-8.71858 -2.83028,-8.1386 -117.00877,-8.4797 -58.90922,-0.17599 -103.821749,0.0874 -107.771,0.63198 -12.363886,1.70498 -21.838634,8.2724 -27.80187,19.27087 L 35.5,217.5 35.213817,266.93087 c -0.320403,55.34154 -0.306919,55.47295 6.626731,64.58211 5.084758,6.68015 9.879792,10.27545 17.276213,12.95363 l 6.335791,2.29413 11.523724,19.92838 c 16.565323,28.647 15.483873,27.348 18.782407,22.56088 z M 422.15365,286.49545 434.90231,264.5 l 7.17626,-2.91805 c 8.94,-3.63524 16.80581,-10.95891 20.70086,-19.27406 L 465.5,236.5 v -50 -50 l -2.68802,-5.73546 c -3.69667,-7.88764 -7.02232,-11.98178 -13.11634,-16.1473 C 439.67561,107.76812 443.85236,108 330.5,108 c -113.4321,0 -109.16677,-0.23822 -119.25854,6.66056 -6.65516,4.5495 -11.95045,11.73058 -14.36082,19.47511 C 195.35356,139.0422 195,143.34299 195,157.01223 v 16.83405 l 41.75,0.36475 41.75,0.36475 6.61957,2.54065 c 18.9387,7.26885 30.29463,19.45325 34.89509,37.44088 1.64301,6.42411 1.98534,11.08331 1.98534,27.02087 0,10.59203 0.27314,19.97005 0.60699,20.84003 0.53304,1.38908 3.97481,1.58366 28.25,1.5971 15.20365,0.008 28.1332,0.34592 28.73232,0.75 0.59912,0.40408 6.39376,9.95969 12.87696,21.23469 13.43007,23.35635 13.31665,23.18845 15.39426,22.78834 0.84945,-0.16359 7.28135,-10.19539 14.29312,-22.29289 z"
       id="path213"
       inkscape:connector-curvature="0" />
    <path
       style="fill:#d58cea"
       d="m 402.84264,325.06906 c -7.84628,-2.49955 -9.14819,-4.11115 -23.28236,-28.82057 -6.93718,-12.12762 -9.25253,-15.38413 -11.30404,-15.89903 -1.41897,-0.35613 -15.00558,-0.39975 -30.19247,-0.0969 -29.04478,0.57915 -29.52691,0.51965 -31.90043,-3.9368 -1.81852,-3.41441 -1.37862,-6.95393 1.24305,-10.00181 l 2.4064,-2.7976 33.8436,0.2965 c 18.61399,0.16307 34.51861,0.50386 35.34361,0.75731 0.825,0.25345 7.125,10.24136 14,22.19534 9.55146,16.60772 12.95994,21.73452 14.44986,21.73452 1.48765,0 4.97249,-5.215 14.70115,-22 l 12.7513,-22 7.17626,-2.91805 c 8.94,-3.63524 16.80581,-10.95891 20.70086,-19.27406 L 465.5,236.5 v -50 -50 l -2.68802,-5.73546 c -3.69667,-7.88764 -7.02232,-11.98178 -13.11634,-16.1473 C 439.67561,107.76812 443.85236,108 330.5,108 c -113.50092,0 -109.15904,-0.24376 -119.31347,6.69839 -6.93326,4.73997 -12.50941,12.62061 -14.72711,20.81346 -1.51192,5.58548 -1.68002,9.43995 -1.20952,27.73418 0.61429,23.88529 0.23209,25.77973 -5.58847,27.70069 -4.09332,1.35092 -7.89024,0.15989 -10.06336,-3.1567 -1.29955,-1.98337 -1.39565,-5.93938 -0.6995,-28.79464 0.72496,-23.80106 1.03213,-27.07863 3.02067,-32.23092 5.97582,-15.48334 17.45321,-26.61536 32.9722,-31.979997 L 221.5,92.5 h 109 109 l 6.67258,2.305767 c 8.34321,2.883067 19.58834,10.691443 24.31833,16.886123 4.61414,6.04295 8.99541,15.35265 10.40401,22.10733 0.71734,3.4399 1.10508,22.04984 1.10508,53.0399 0,52.60086 -0.12387,53.89964 -6.25449,65.57943 -4.34922,8.28594 -14.51993,18.20559 -23.24551,22.67172 l -7,3.5829 -11.15196,19.24461 c -11.51846,19.87706 -13.99054,23.30567 -18.49307,25.64863 -3.52175,1.8326 -9.72716,2.54919 -13.01233,1.50265 z"
       id="path211"
       inkscape:connector-curvature="0" />
    <path
       style="fill:#ca6ce5"
       d="m 401.31687,323.77243 c -5.00786,-1.61005 -8.0808,-5.5885 -19.36086,-25.06596 l -10.544,-18.20647 -30.456,-0.0601 c -16.75081,-0.0331 -31.21207,-0.40666 -32.13613,-0.83017 -2.24255,-1.02781 -3.88856,-6.01627 -3.17025,-9.60783 0.95656,-4.78281 3.62709,-6.40847 10.13769,-6.1712 3.14197,0.11451 18.62909,0.43787 34.41582,0.71859 l 28.70315,0.5104 1.87426,2.72017 c 1.03084,1.4961 6.69972,11.1215 12.59751,21.38978 5.89779,10.26828 11.41318,19.24218 12.25642,19.94201 1.10373,0.91601 1.99776,0.97936 3.19184,0.22615 0.91227,-0.57545 7.34412,-10.85748 14.293,-22.84897 l 12.63433,-21.80271 5.95803,-2.15735 c 3.27691,-1.18655 7.35214,-3.15005 9.05606,-4.36335 5.23229,-3.72572 11.05172,-11.08964 13.44891,-17.01829 2.2711,-5.6168 2.28335,-5.91284 2.28335,-55.19942 v -49.55234 l -3.77234,-7.63234 C 456.7723,116.71393 447.65256,109.89929 434.8199,107.90922 430.90262,107.30173 389.53285,107.041 326,107.22338 c -95.34961,0.27372 -102.81392,0.41791 -107,2.067 -10.13915,3.99428 -18.79195,12.83415 -22.59815,23.08672 -1.62754,4.38406 -1.88635,7.71909 -1.79438,23.12294 0.0591,9.9 0.44429,19.91688 0.85597,22.25974 1.46084,8.3138 -1.70516,13.24026 -8.50889,13.24026 -2.99805,0 -4.70262,-0.65716 -6.58364,-2.53818 -2.36817,-2.36817 -2.49682,-2.98775 -1.92068,-9.25 0.33963,-3.6915 0.95935,-15.71182 1.37716,-26.71182 0.64002,-16.85023 1.09172,-20.82601 2.86812,-25.2449 6.8246,-16.9765 19.42167,-28.409571 36.01642,-32.688421 5.5424,-1.429071 17.82961,-1.572874 114,-1.334193 L 440.5,93.5 l 5.96087,2.248427 c 11.9825,4.519783 22.06405,13.060323 28.03713,23.751573 6.35087,11.36745 6.502,12.93148 6.502,67.28901 0,45.87394 -0.12529,49.40581 -1.96368,55.35565 -4.26483,13.80287 -13.98854,25.48642 -26.49388,31.8338 -3.55848,1.80619 -7.08638,4.01244 -7.83977,4.90276 -0.75338,0.89033 -6.00336,9.71878 -11.66662,19.61878 -11.58308,20.24852 -12.9136,22.01503 -18.53605,24.60996 -4.3965,2.02911 -8.31925,2.22624 -13.18313,0.66247 z"
       id="path209"
       inkscape:connector-curvature="0" />
    <path
       style="fill:#9751aa"
       d="M 308.6928,278.97299 C 306.49349,277.24302 306,276.04346 306,272.42742 c 0,-3.05175 0.6041,-5.03152 1.94422,-6.37164 2.26336,-2.26336 7.93528,-3.55382 11.58918,-2.63675 2.50181,0.62791 2.54145,0.78355 2.25657,8.86005 L 321.5,280.5 l -5.0572,0.29557 c -3.93845,0.23019 -5.65291,-0.173 -7.75,-1.82258 z M 180.40477,188.49568 c -2.18621,-2.18621 -2.46624,-3.23416 -2.20454,-8.25 L 178.5,174.5 l 7.3425,-0.29568 c 4.55244,-0.18332 7.87733,0.1482 8.75,0.87245 1.69326,1.40528 1.82512,6.42681 0.28478,10.84541 -1.91791,5.50173 -10.09095,6.95505 -14.47251,2.5735 z"
       id="path207"
       inkscape:connector-curvature="0" />
  </g>
</svg>
