<?xml version="1.0" encoding="UTF-8" standalone="no"?>
<!-- Created with Inkscape (http://www.inkscape.org/) -->

<svg
   xmlns:dc="http://purl.org/dc/elements/1.1/"
   xmlns:cc="http://creativecommons.org/ns#"
   xmlns:rdf="http://www.w3.org/1999/02/22-rdf-syntax-ns#"
   xmlns:svg="http://www.w3.org/2000/svg"
   xmlns="http://www.w3.org/2000/svg"
   xmlns:sodipodi="http://sodipodi.sourceforge.net/DTD/sodipodi-0.dtd"
   xmlns:inkscape="http://www.inkscape.org/namespaces/inkscape"
   version="1.1"
   id="svg469"
   width="133.12"
   height="133.12"
   viewBox="0 0 133.12 133.12"
   sodipodi:docname="philipins-vector.svg"
   inkscape:version="0.92.5 (2060ec1f9f, 2020-04-08)">
  <metadata
     id="metadata475">
    <rdf:RDF>
      <cc:Work
         rdf:about="">
        <dc:format>image/svg+xml</dc:format>
        <dc:type
           rdf:resource="http://purl.org/dc/dcmitype/StillImage" />
        <dc:title></dc:title>
      </cc:Work>
    </rdf:RDF>
  </metadata>
  <defs
     id="defs473" />
  <sodipodi:namedview
     pagecolor="#ffffff"
     bordercolor="#666666"
     borderopacity="1"
     objecttolerance="10"
     gridtolerance="10"
     guidetolerance="10"
     inkscape:pageopacity="0"
     inkscape:pageshadow="2"
     inkscape:window-width="1920"
     inkscape:window-height="1016"
     id="namedview471"
     showgrid="false"
     inkscape:zoom="1.7728366"
     inkscape:cx="66.559998"
     inkscape:cy="66.559998"
     inkscape:window-x="0"
     inkscape:window-y="27"
     inkscape:window-maximized="1"
     inkscape:current-layer="svg469" />
  <g
     id="g479"
     transform="matrix(1.071026,0,0,1.043758,-3.8799821,-4.0500306)">
    <path
       style="fill:#f3e3a1;stroke-width:0.31999999"
       d="M 61.891024,118.05212 C 53.051651,117.26248 43.987898,113.916 36.578438,108.70631 33.631942,106.6346 26.412953,99.678829 25.620872,98.148288 c -0.398836,-0.770675 -0.398836,-0.945018 0,-1.327658 C 25.873393,96.578365 37.672,89.7288 51.84,81.59937 66.008,73.469942 77.703955,66.721254 77.831008,66.602288 77.958064,66.483322 66.726064,59.873011 52.871008,51.91271 22.744377,34.603715 25.6,36.322595 25.6,35.497546 c 0,-1.099879 8.249203,-9.102484 11.826496,-11.472958 5.850285,-3.876661 12.346176,-6.64264 19.006221,-8.092934 2.758598,-0.600714 4.258579,-0.708975 9.967283,-0.719392 5.855747,-0.01069 7.167686,0.08356 10.200995,0.732788 10.458227,2.23841 18.784928,6.757198 26.300845,14.273113 6.17408,6.174077 10.03073,12.38913 12.61986,20.337082 5.17961,15.900009 2.66904,32.58455 -6.93904,46.115117 -1.17544,1.655302 -3.73197,4.593638 -5.68119,6.529638 -8.846382,8.78639 -19.60874,13.75603 -32.204638,14.87087 -4.04305,0.35784 -4.603587,0.35665 -8.805808,-0.0187 z M 18.242758,84.967133 c -0.719884,-1.862055 -0.998567,-3.041267 -0.888601,-3.76 C 17.545735,79.954992 17.372748,79.36 16.817124,79.36 16.274387,79.36 15.411882,74.965936 15.026488,70.23753 14.55798,64.489408 15.70567,53.975654 16.849563,53.536701 17.113125,53.435562 17.28,52.863789 17.28,52.061872 17.28,50.3124 19.120876,45.44 19.781856,45.44 c 0.273292,0 0.825777,0.30897 1.227743,0.686595 0.645048,0.605991 0.713864,0.915923 0.586182,2.64 -0.112728,1.522144 -0.08283,1.717255 0.135424,0.883757 0.412192,-1.574138 0.807175,-1.831971 1.596795,-1.042352 0.839995,0.839994 0.832453,1.175034 -0.100009,4.442662 l -0.756402,2.65066 1.123285,0.46934 c 0.617807,0.258135 1.171348,0.469338 1.23009,0.469338 0.05874,0 0.689986,-0.998544 1.402762,-2.218986 C 27.810106,51.711606 28.300137,51.2 29.3129,51.2 c 0.943857,0 1.31531,0.755443 0.749393,1.524074 -0.22512,0.30576 0.06065,0.08088 0.635048,-0.499728 0.95029,-0.96057 1.192897,-1.047037 2.693507,-0.96 L 35.04,51.36 l 0.09497,1.629533 0.09497,1.629533 -1.774973,1.369382 c -2.08433,1.608048 -2.292079,1.946016 -0.501331,0.815565 1.477804,-0.932896 1.789616,-0.98192 2.043145,-0.321235 0.414669,1.080614 -0.40815,2.018153 -2.987849,3.404425 -2.372838,1.275111 -2.575441,1.460394 -2.397746,2.192797 0.106753,0.44 0.298172,0.907066 0.425376,1.037923 0.127204,0.130858 1.267191,-0.04914 2.533304,-0.4 2.777824,-0.769773 4.012758,-0.805414 4.571693,-0.131939 0.33063,0.398384 0.338387,0.636557 0.03647,1.12 C 36.8312,64.261357 36.888563,64.32 37.77864,64.32 c 1.124992,0 3.18136,1.410883 3.18136,2.182746 0,0.278732 -0.445802,0.966736 -0.990666,1.528896 -0.93807,0.96784 -1.095225,1.015721 -2.96,0.901852 -1.439219,-0.08788 -1.703398,-0.04964 -0.981401,0.142061 1.533597,0.4072 1.779725,0.637469 1.413273,1.322192 -0.516752,0.965562 -1.441865,1.044787 -4.001136,0.342663 -3.184853,-0.873754 -3.619656,-0.852538 -3.88116,0.189379 -0.245546,0.978329 -0.0014,1.211987 2.876981,2.753197 1.915751,1.025785 2.689411,2.016201 2.322288,2.972912 -0.138134,0.359974 -0.42912,0.478355 -0.883654,0.359491 -0.639223,-0.167162 -0.632211,-0.128349 0.123539,0.683696 0.87201,0.936963 1.323821,3.122675 0.828464,4.007827 -0.207245,0.37033 -0.724326,0.533088 -1.693619,0.533088 -1.28056,0 -1.517871,-0.138138 -2.886113,-1.68 -0.819954,-0.924 -1.336144,-1.364019 -1.14709,-0.977821 0.189055,0.386199 0.486961,0.790695 0.662015,0.898883 0.37306,0.230567 0.427452,1.333693 0.07646,1.550621 -0.133003,0.0822 -0.632674,0.07474 -1.11038,-0.01658 -0.678494,-0.129702 -1.192407,-0.718435 -2.348507,-2.690429 -0.813973,-1.388416 -1.575728,-2.583587 -1.69279,-2.655936 -0.117062,-0.07235 -0.672115,0.06157 -1.233451,0.297591 l -1.020611,0.429136 0.63616,2.182269 c 1.040413,3.569004 1.072049,3.896457 0.443543,4.59095 -0.651394,0.719782 -1.303587,0.817731 -1.540211,0.231315 -0.08877,-0.22 -0.172772,0.04858 -0.186667,0.596845 -0.02978,1.174944 -1.110535,2.683155 -1.922703,2.683155 -0.420608,0 -0.847214,-0.714486 -1.619802,-2.712867 z M 61.794362,70.88 c -0.568772,-0.792 -1.120525,-1.44 -1.226119,-1.44 -0.105597,0 -0.96255,0.242896 -1.904345,0.539773 -2.364912,0.745472 -2.641021,0.334093 -1.178237,-1.755479 L 58.650733,66.56 57.485661,64.895706 c -1.462784,-2.089572 -1.186675,-2.500951 1.178237,-1.755479 0.941795,0.296877 1.798748,0.539773 1.904345,0.539773 0.105594,0 0.657347,-0.648 1.226119,-1.44 0.578524,-0.805581 1.292195,-1.44 1.619884,-1.44 C 63.920733,60.8 64,61.076378 64,62.842298 v 2.042297 l 1.84,0.597703 c 1.156576,0.375699 1.84,0.775987 1.84,1.077702 0,0.303488 -0.67663,0.694176 -1.84,1.062422 L 64,68.204842 v 2.05758 C 64,72.043149 63.921187,72.32 63.414246,72.32 c -0.327689,0 -1.04136,-0.634419 -1.619884,-1.44 z"
       id="path493"
       inkscape:connector-curvature="0" />
    <path
       style="fill:#f7d95e;stroke-width:0.31999999"
       d="M 60,117.53968 C 47.963565,115.97958 36.13697,109.70387 28.15251,100.64 25.361786,97.472 25.35425,97.449114 26.79348,96.512733 27.457066,96.080995 34.12,92.215696 41.6,87.923181 82.184611,64.633056 78.565798,66.80241 77.747472,66.254029 77.342,65.982314 65.478947,59.134307 51.385126,51.03624 30.498502,39.035142 25.740989,36.179254 25.65719,35.592016 25.499996,34.490438 33.503741,26.62398 37.426496,24.024588 43.276781,20.147927 49.772672,17.381948 56.432717,15.931654 59.191315,15.33094 60.691296,15.222679 66.4,15.212262 c 5.855747,-0.01069 7.167686,0.08356 10.200995,0.732788 10.458227,2.23841 18.784928,6.757198 26.300845,14.273113 7.56783,7.567834 12.09646,15.967946 14.30392,26.532189 0.91431,4.375616 0.88635,12.987827 -0.06,18.485046 -3.68383,21.398525 -20.52007,38.249052 -41.86214,41.897662 -2.759398,0.47174 -4.986173,0.61507 -8.995398,0.57899 C 63.35769,117.68568 60.528,117.60812 60,117.53968 Z M 18.62516,84.896758 C 17.777973,82.680211 17.687284,82.112691 17.817094,79.84 l 0.146221,-2.56 -0.618471,0.766979 -0.61847,0.766979 -0.359366,-1.566979 C 14.973664,71.171456 14.968805,61.976186 16.355738,55.92 16.679772,54.505072 17.28,53.817418 17.28,54.861114 c 0,0.253612 0.166478,0.564003 0.369951,0.689756 0.273811,0.169226 0.320582,-0.424131 0.179978,-2.283241 -0.172545,-2.281443 -0.100976,-2.742663 0.780123,-5.027427 0.694348,-1.800506 1.110978,-2.487783 1.465724,-2.417872 1.065726,0.210019 1.188644,1.042396 0.772875,5.233782 -0.374405,3.774394 -0.342136,4.704038 0.146328,4.215578 0.107238,-0.107239 0.398082,-1.319239 0.646321,-2.693335 C 22.297717,48.944838 22.380812,48.64 22.714838,48.64 c 0.166454,0 0.447073,0.269869 0.623598,0.599706 0.234591,0.438339 0.109533,1.363971 -0.464766,3.44 -0.432146,1.562163 -0.787508,2.946361 -0.789695,3.076 -0.0046,0.270323 2.108531,1.204294 2.724692,1.204294 0.22578,0 1.085879,-1.152 1.911333,-2.56 1.21609,-2.07432 1.64683,-2.56 2.270412,-2.56 0.423273,0 0.769588,0.08607 0.769588,0.191277 0,0.1052 -0.768596,1.2932 -1.70799,2.64 C 25.908582,57.744282 25.809061,57.92 26.212052,57.92 c 0.181403,0 1.429954,-1.332 2.774558,-2.96 1.344604,-1.628 2.647165,-3.076544 2.894579,-3.218989 0.247413,-0.142441 0.987361,-0.214441 1.644328,-0.16 1.153686,0.09561 1.197795,0.144423 1.29143,1.429303 l 0.09695,1.330313 -3.376949,2.636131 C 29.679627,58.42663 28.16,59.751398 28.16,59.920682 c 0,0.461548 0.713095,0.10543 3.344547,-1.670253 2.655744,-1.79208 3.147242,-1.939443 2.997709,-0.898794 -0.07208,0.5016 -0.772608,1.091882 -2.373555,2 -3.249145,1.843037 -3.366601,1.963005 -2.929991,2.992666 0.609887,1.438294 0.727606,1.460317 3.704039,0.69296 C 35.774566,62.296874 36.8,62.324189 36.8,63.141072 c 0,0.30799 -0.96593,0.610826 -3.2,1.003251 -1.76,0.309155 -3.2,0.711831 -3.2,0.894839 0,0.322233 0.991357,0.278915 6.249971,-0.273098 1.780192,-0.186874 2.009907,-0.135334 2.96,0.664115 1.231648,1.036365 1.246605,1.162349 0.272429,2.294896 l -0.757603,0.880762 -4.241402,-0.397248 c -2.332771,-0.218487 -4.319851,-0.3188 -4.415732,-0.222919 -0.345901,0.345901 0.258247,0.571988 2.713982,1.015629 3.633517,0.656419 3.938355,0.739514 3.938355,1.073539 0,0.166455 -0.269869,0.447072 -0.599706,0.623597 -0.438339,0.234592 -1.363971,0.109533 -3.44,-0.464765 -1.562162,-0.432147 -2.946362,-0.787507 -3.076,-0.789696 -0.129638,-0.0022 -0.456942,0.52552 -0.727344,1.172682 -0.59032,1.412835 -0.581612,1.423837 2.495279,3.15193 1.628869,0.914832 2.337854,1.504304 2.410027,2.003772 0.148669,1.028823 -0.340957,0.888525 -2.916707,-0.835766 C 28.146272,72.848448 28.16,72.855421 28.16,73.359395 c 0,0.240445 0.97083,1.148941 2.157399,2.018887 3.927961,2.879824 4.242601,3.236451 4.242601,4.808771 0,1.215056 -0.102701,1.426531 -0.774691,1.595187 -1.397296,0.350701 -1.883112,0.01158 -4.618024,-3.22361 -1.487205,-1.759248 -2.826247,-3.24663 -2.975647,-3.305296 -0.652924,-0.25639 -0.142597,0.763325 1.613775,3.22458 1.036977,1.453148 1.820479,2.750086 1.741114,2.882086 -0.07936,0.132 -0.414134,0.24 -0.743934,0.24 -0.410291,0 -1.118425,-0.858883 -2.242593,-2.72 -0.903627,-1.496 -1.759706,-2.72 -1.902399,-2.72 -0.515452,0 -2.577601,0.974534 -2.577601,1.218128 0,0.137248 0.369635,1.524538 0.82141,3.082867 0.740339,2.553683 0.772674,2.882064 0.327619,3.327117 -0.271585,0.271587 -0.586469,0.401114 -0.699742,0.28784 -0.113274,-0.11327 -0.478436,-1.534435 -0.811473,-3.158138 -0.333037,-1.623705 -0.675788,-3.022454 -0.761668,-3.108336 -0.494155,-0.494153 -0.50918,0.673066 -0.05178,4.022314 0.487645,3.570698 0.484797,3.809082 -0.05435,4.548032 -0.312931,0.428902 -0.726827,0.832445 -0.919771,0.896758 -0.192944,0.06431 -0.780235,-1.006604 -1.305092,-2.379824 z M 61.926845,70.409878 C 60.982128,69.04665 60.543619,68.90801 58.94224,69.466253 57.116298,70.102781 56.801091,69.75881 57.891837,68.32 c 1.203987,-1.588179 1.206016,-1.928554 0.02083,-3.494902 -0.52224,-0.690196 -0.879043,-1.325389 -0.792893,-1.41154 0.08615,-0.08615 0.967334,0.03785 1.958186,0.275549 1.769033,0.424384 1.811971,0.418096 2.379104,-0.348461 1.544454,-2.087548 1.55006,-2.092262 1.883542,-1.583305 0.172019,0.262537 0.231146,0.802537 0.131389,1.2 -0.37472,1.493011 0.112957,2.258614 1.729542,2.7152 1.943997,0.549062 1.943443,1.176486 -0.0016,1.743616 -0.836,0.243763 -1.536742,0.618851 -1.557206,0.833526 -0.02048,0.214675 -0.05646,1.024992 -0.08,1.800711 -0.02355,0.775715 -0.200128,1.46416 -0.392429,1.529878 -0.192298,0.06572 -0.751882,-0.46096 -1.24352,-1.170394 z"
       id="path491"
       inkscape:connector-curvature="0" />
    <path
       style="fill:#fccc09;stroke-width:0.31999999"
       d="m 61.44,117.56087 c -3.100253,-0.3852 -8.369299,-1.53507 -10.9848,-2.39722 -4.082208,-1.34563 -10.047853,-4.37403 -13.651472,-6.93005 -4.34976,-3.08524 -11.554912,-10.435059 -10.857543,-11.075533 0.0736,-0.0676 11.993037,-6.931814 26.487642,-15.253817 24.773895,-14.223808 26.308634,-15.155741 25.6,-15.544999 C 77.619222,66.131504 65.688,59.277814 51.52,51.128822 30.528127,39.054957 25.74097,36.179123 25.65719,35.592016 25.499996,34.490438 33.503741,26.62398 37.426496,24.024588 43.276781,20.147927 49.772672,17.381948 56.432717,15.931654 59.191315,15.33094 60.691296,15.222679 66.4,15.212262 c 5.855747,-0.01069 7.167686,0.08356 10.200995,0.732788 10.458227,2.23841 18.784928,6.757198 26.300845,14.273113 6.0533,6.053306 9.92424,12.223299 12.50234,19.927859 2.21928,6.632218 2.90513,11.99952 2.36319,18.493978 -0.71763,8.600051 -2.17987,14.154515 -5.47571,20.8 -2.51441,5.069869 -5.46598,9.15951 -9.57906,13.2726 -7.295688,7.29568 -16.279467,12.0871 -26.434248,14.09846 -3.377238,0.66893 -11.987485,1.10402 -14.838352,0.74981 z M 19.425301,86.16 C 19.332163,85.852 18.975115,84.808 18.631862,83.84 18.132956,82.433046 18.052865,81.662762 18.232594,80 18.50091,77.51767 18.379705,77.063037 17.48254,77.18656 16.23791,77.357923 15.892002,75.04687 15.892002,66.56 c 0,-8.513162 0.344482,-10.798406 1.601583,-10.624688 0.984178,0.136003 1.072642,-0.190506 0.722158,-2.66537 -0.286448,-2.022688 -0.241968,-2.395414 0.542559,-4.546451 0.951162,-2.607923 1.149077,-2.853456 1.732957,-2.149926 0.325147,0.391779 0.322683,1.326656 -0.01266,4.800899 -0.229037,2.372906 -0.31587,4.414938 -0.192964,4.537843 0.122906,0.122906 0.492111,0.05569 0.820455,-0.14936 0.47722,-0.298029 0.63382,-0.276848 0.78057,0.105575 0.228806,0.596259 2.700406,1.731702 3.282932,1.508166 0.250502,-0.09613 0.430404,0.04978 0.430404,0.349075 0,1.252451 1.291095,0.356554 3.636703,-2.523523 2.391058,-2.935885 3.253473,-3.55905 4.577988,-3.307958 0.734339,0.139212 0.969591,1.916953 0.336861,2.54558 -0.243658,0.242077 -1.758381,1.448138 -3.36605,2.680138 -2.751423,2.108486 -3.657006,3.36 -2.431266,3.36 0.330069,0 0.446963,0.175312 0.326395,0.489507 C 28.46186,61.539616 29.371333,64 29.800842,64 c 0.160243,0 0.20494,0.344291 0.09933,0.765091 -0.105614,0.420797 -0.07213,0.839187 0.07441,0.929757 0.146541,0.09057 2.105103,-0.06189 4.352358,-0.3388 l 4.08592,-0.503469 0.960137,0.919872 0.960138,0.919869 -0.773338,0.773341 -0.773341,0.773337 -4.358054,-0.408006 c -2.396931,-0.224403 -4.458431,-0.307629 -4.581114,-0.184944 -0.122682,0.122682 -0.04729,0.504509 0.167539,0.848506 0.315494,0.505184 0.307127,0.625446 -0.04351,0.625446 -0.53914,0 -1.637732,2.35687 -1.394294,2.991261 0.111641,0.290931 -0.0658,0.529616 -0.472874,0.636067 -0.358364,0.09371 -0.589428,0.359901 -0.513476,0.59153 0.07595,0.231628 1.603124,1.555788 3.393714,2.942579 3.101536,2.402102 3.255619,2.578291 3.255619,3.722697 0,1.049476 -0.108627,1.222023 -0.859718,1.365604 -0.472845,0.09039 -1.022448,0.1019 -1.221338,0.02557 -0.19889,-0.07632 -1.549442,-1.573492 -3.001225,-3.32704 -2.595811,-3.13537 -3.308045,-3.660468 -3.673439,-2.708266 -0.101307,0.264 -0.471828,0.48 -0.82338,0.48 -0.943992,0 -2.9009,1.013216 -2.9009,1.501981 0,0.340054 -0.123169,0.346521 -0.625447,0.03284 -0.343996,-0.214829 -0.730653,-0.285392 -0.859239,-0.156807 -0.128585,0.128586 -0.01575,2.067133 0.25074,4.307885 0.48565,4.083491 0.36469,5.194096 -0.565707,5.194096 -0.201136,0 -0.441907,-0.252 -0.535046,-0.56 z M 22.09831,81.10552 C 21.88206,79.764998 21.767542,78.605792 21.843826,78.529507 21.958749,78.414582 23.036511,82.0692 23.162193,83 c 0.02079,0.154 -0.121607,0.339139 -0.316447,0.411418 -0.220178,0.08168 -0.503065,-0.791047 -0.747436,-2.305898 z M 27.919231,80.4 C 26.837063,78.824243 25.514675,76.389494 25.855357,76.600048 26.22899,76.830966 29.12,80.813552 29.12,81.097341 29.12,81.572848 28.462439,81.19097 27.919231,80.4 Z M 31.68,74.835645 c -2.634526,-1.900455 -2.656762,-2.104618 -0.08,-0.734531 1.276,0.67846 2.32,1.41926 2.32,1.646227 0,0.609779 -0.300224,0.487587 -2.24,-0.911696 z m 30.4,-4.851895 c -0.85928,-1.266768 -1.458128,-1.42302 -3.168582,-0.826752 -0.563248,0.196349 -1.08705,0.294039 -1.164,0.217085 -0.07695,-0.07695 0.218396,-0.625577 0.656332,-1.219168 0.996743,-1.351005 0.996743,-1.838825 0,-3.18983 -0.437936,-0.593591 -0.745308,-1.130195 -0.683046,-1.192455 0.06226,-0.06226 0.79672,0.06961 1.632131,0.293053 l 1.518935,0.40625 1.079353,-1.275965 1.079357,-1.275968 0.0048,1.512624 c 0.0052,1.632861 0.514003,2.215194 2.324762,2.660397 1.212076,0.298006 1.102179,0.619107 -0.362039,1.057798 -1.590032,0.476387 -1.891072,0.864195 -2.015961,2.597024 L 62.88,71.16313 Z m -28.438717,0.07261 c -2.490417,-0.717219 -2.941007,-1.070592 -0.996093,-0.781184 2.610788,0.388496 3.546407,0.640339 3.554669,0.956819 0.01261,0.482659 -0.36207,0.456938 -2.558576,-0.175635 z m -2.609845,-6.018439 c 0.87906,-0.60414 4.832424,-1.422064 5.182303,-1.072185 0.221741,0.221741 -0.426759,0.447357 -2.023719,0.704054 C 32.89751,63.877555 31.552,64.118278 31.2,64.204733 c -0.509709,0.12519 -0.544025,0.09123 -0.168562,-0.166807 z M 29.76,60.015946 c 0,-0.244823 3.77176,-2.735946 4.142442,-2.735946 0.917638,0 0.111465,0.745811 -1.902442,1.76 -1.232,0.620426 -2.24,1.0596 -2.24,0.975946 z M 26.882853,54.8 c 1.151061,-2.068419 1.803926,-2.859888 2.108129,-2.555683 0.20302,0.203017 -2.618073,4.395683 -2.957697,4.395683 -0.09591,0 0.286398,-0.828 0.849568,-1.84 z m -5.078726,-0.56 c -0.02966,-1.332118 0.768981,-4.76617 1.075873,-4.626077 0.406695,0.185651 0.303293,0.946087 -0.454991,3.346077 -0.333646,1.056 -0.613044,1.632 -0.620882,1.28 z"
       id="path489"
       inkscape:connector-curvature="0" />
    <path
       style="fill:#6f8dc8;stroke-width:0.31999999"
       d="m 61.44,117.56087 c -3.100253,-0.3852 -8.369299,-1.53507 -10.9848,-2.39722 -4.082208,-1.34563 -10.047853,-4.37403 -13.651472,-6.93005 -4.34976,-3.08524 -11.554912,-10.435059 -10.857543,-11.075533 0.0736,-0.0676 11.993037,-6.931814 26.487642,-15.253817 24.773895,-14.223808 26.308634,-15.155741 25.6,-15.544999 C 77.619222,66.131504 65.688,59.277814 51.52,51.128822 30.528127,39.054957 25.74097,36.179123 25.65719,35.592016 25.499996,34.490438 33.503741,26.62398 37.426496,24.024588 43.276781,20.147927 49.772672,17.381948 56.432717,15.931654 59.191315,15.33094 60.691296,15.222679 66.4,15.212262 c 5.855747,-0.01069 7.167686,0.08356 10.200995,0.732788 10.458227,2.23841 18.784928,6.757198 26.300845,14.273113 6.0533,6.053306 9.92424,12.223299 12.50234,19.927859 2.21928,6.632218 2.90513,11.99952 2.36319,18.493978 -0.71763,8.600051 -2.17987,14.154515 -5.47571,20.8 -2.51441,5.069869 -5.46598,9.15951 -9.57906,13.2726 -7.295688,7.29568 -16.279467,12.0871 -26.434248,14.09846 -3.377238,0.66893 -11.987485,1.10402 -14.838352,0.74981 z"
       id="path487"
       inkscape:connector-curvature="0" />
    <path
       style="fill:#fd1613;stroke-width:0.31999999"
       d="M 61.44,117.56087 C 58.339747,117.17567 53.070701,116.0258 50.4552,115.16365 46.372992,113.81802 40.407347,110.78962 36.803728,108.2336 32.454742,105.14891 25.248007,97.797722 25.946185,97.158435 26.019783,97.091046 37.816,90.305296 52.16,82.078995 66.504,73.852691 78.423446,66.951024 78.647658,66.741955 78.968454,66.442822 73.49544,63.167834 52.961203,51.371475 38.609443,43.126778 26.641475,36.216141 26.365717,36.014502 c -0.437903,-0.320201 -0.342545,-0.567142 0.753223,-1.95056 2.106651,-2.659664 7.664308,-7.71837 10.739476,-9.775317 6.45815,-4.319785 13.755382,-7.14265 21.501584,-8.317681 3.295334,-0.499874 11.110704,-0.499273 14.4,0.0011 10.818634,1.64577 20.117155,6.180718 27.94294,13.627949 9.25251,8.804947 14.71009,20.206947 15.69976,32.8 0.79338,10.095395 -0.74575,18.238147 -5.11104,27.04 -2.51441,5.069869 -5.46598,9.159511 -9.57906,13.272597 -7.295688,7.29569 -16.279467,12.0871 -26.434248,14.09846 C 72.901114,117.48 64.290867,117.91509 61.44,117.56088 Z"
       id="path485"
       inkscape:connector-curvature="0" />
    <path
       style="fill:#1c4ead;stroke-width:0.31999999"
       d="M 53.261597,51.576154 C 38.995478,43.361267 26.992232,36.420218 26.587721,36.151594 l -0.735476,-0.488407 1.260647,-1.591593 c 2.112019,-2.666468 7.666708,-7.723583 10.745524,-9.782969 6.45815,-4.319785 13.755382,-7.14265 21.501584,-8.317681 3.295334,-0.499874 11.110704,-0.499273 14.4,0.0011 10.818634,1.64577 20.117155,6.180718 27.94294,13.627949 7.64279,7.273088 12.59344,16.087946 14.76516,26.29001 0.6652,3.124889 1.31334,9.501949 1.0438,10.26999 -0.11031,0.314323 -4.22842,0.394893 -19.226137,0.376154 L 79.2,66.512304 Z"
       id="path483"
       inkscape:connector-curvature="0" />
    <path
       style="fill:#043ea6;stroke-width:0.31999999"
       d="M 78.053462,65.313936 C 73.051334,62.615741 26.721075,35.843226 26.641663,35.604989 c -0.176902,-0.530707 4.100641,-5.172722 7.045495,-7.645813 5.254295,-4.412563 10.601744,-7.429286 16.912228,-9.540906 9.770483,-3.269408 21.856761,-3.282959 31.770006,-0.03562 19.444038,6.369395 33.503188,24.32682 34.642188,44.247671 l 0.20528,3.59032 -18.714966,0.01418 -18.714969,0.01418 -1.733463,-0.935046 z"
       id="path481"
       inkscape:connector-curvature="0" />
  </g>
</svg>
