<?xml version="1.0" encoding="UTF-8" standalone="no"?>
<!-- Created with Inkscape (http://www.inkscape.org/) -->

<svg
   xmlns:dc="http://purl.org/dc/elements/1.1/"
   xmlns:cc="http://creativecommons.org/ns#"
   xmlns:rdf="http://www.w3.org/1999/02/22-rdf-syntax-ns#"
   xmlns:svg="http://www.w3.org/2000/svg"
   xmlns="http://www.w3.org/2000/svg"
   xmlns:sodipodi="http://sodipodi.sourceforge.net/DTD/sodipodi-0.dtd"
   xmlns:inkscape="http://www.inkscape.org/namespaces/inkscape"
   version="1.1"
   id="svg92"
   width="440"
   height="440"
   viewBox="0 0 440 440"
   sodipodi:docname="schweiz-vector.jpg.svg"
   inkscape:version="0.92.5 (2060ec1f9f, 2020-04-08)">
  <metadata
     id="metadata98">
    <rdf:RDF>
      <cc:Work
         rdf:about="">
        <dc:format>image/svg+xml</dc:format>
        <dc:type
           rdf:resource="http://purl.org/dc/dcmitype/StillImage" />
        <dc:title></dc:title>
      </cc:Work>
    </rdf:RDF>
  </metadata>
  <defs
     id="defs96" />
  <sodipodi:namedview
     pagecolor="#ffffff"
     bordercolor="#666666"
     borderopacity="1"
     objecttolerance="10"
     gridtolerance="10"
     guidetolerance="10"
     inkscape:pageopacity="0"
     inkscape:pageshadow="2"
     inkscape:window-width="1920"
     inkscape:window-height="1016"
     id="namedview94"
     showgrid="false"
     inkscape:zoom="0.6733585"
     inkscape:cx="-312.79482"
     inkscape:cy="391.95644"
     inkscape:window-x="0"
     inkscape:window-y="27"
     inkscape:window-maximized="1"
     inkscape:current-layer="svg92" />
  <g
     id="g102"
     transform="translate(4.9452182e-6,1.485091)">
    <path
       style="fill:#eaa7a5"
       d="M 190.5,438.82745 C 170.10449,436.55949 145.97497,429.7047 126.83188,420.74041 78.240904,397.98633 38.101417,356.86264 17.087932,308.30557 4.7116539,279.707 0.01684397,255.31912 -0.00766267,219.5 -0.02701688,191.21173 2.5533113,173.47154 9.9557312,151 20.845707,117.94128 37.173356,91.020746 61.425739,66.137814 90.89106,35.90641 124.99955,16.086894 165.90669,5.4267836 c 19.88238,-5.18120951 56.66463,-6.8912092 84.68662,-3.9370657 70.95478,7.4802154 138.12714,56.9640431 170.1471,125.3421621 5.58746,11.93192 13.46611,35.79307 15.57432,47.16812 3.95552,21.34237 4.82447,51.65627 2.19555,76.59331 -3.66191,34.73569 -17.94641,70.16109 -40.73433,101.02072 -10.302,13.95106 -32.21086,35.85992 -46.16192,46.16192 -30.85963,22.78792 -66.28503,37.07242 -101.02072,40.73433 -15.25773,1.60851 -46.97504,1.77591 -60.09331,0.31717 z M 260.2403,308.25 260.5,260.5 308.26147,260.2403 356.02293,259.98059 355.76147,220.2403 355.5,180.5 308,180 260.5,179.5 260.2403,131.73853 259.98059,83.977068 220.2403,84.238534 180.5,84.5 180,132 l -0.5,47.5 -47.5,0.5 -47.5,0.5 -0.261466,39.7403 -0.261466,39.74029 47.761462,0.25971 47.76147,0.2597 0.2597,47.75 0.25969,47.75 H 220 259.98061 Z"
       id="path116"
       inkscape:connector-curvature="0" />
    <path
       style="fill:#ee5252"
       d="M 196.5,438.83536 C 146.76732,433.22147 99.302315,410.38122 64.461812,375.29835 -21.36783,288.87161 -21.310985,150.48988 64.589446,64.589446 150.44414,-21.265248 289.04639,-21.352146 375.26202,64.394666 441.79054,130.56143 458.86009,232.46494 417.49141,316.5 c -33.79556,68.65127 -99.04128,114.12055 -175.702,122.44548 -11.35767,1.23338 -33.87246,1.17864 -45.28941,-0.11012 z m 62.25,-81.46565 2.25,-0.60297 v -46.68337 c 0,-34.97595 0.30094,-46.98431 1.2,-47.88337 0.89906,-0.89906 12.90742,-1.2 47.88337,-1.2 h 46.68337 l 0.60297,-2.25 c 0.78682,-2.93598 0.78682,-74.56402 0,-77.5 L 356.76674,179 H 310.08337 C 275.10742,179 263.09906,178.69906 262.2,177.8 261.30094,176.90094 261,164.89258 261,129.91663 V 83.233263 l -2.25,-0.602977 c -2.93598,-0.786813 -74.56402,-0.786813 -77.5,0 L 179,83.233263 v 46.683367 c 0,34.97595 -0.30094,46.98431 -1.2,47.88337 -0.89906,0.89906 -12.90742,1.2 -47.88337,1.2 H 83.233263 l -0.602977,2.25 c -0.786813,2.93598 -0.786813,74.56402 0,77.5 l 0.602977,2.25 h 46.683367 c 34.97595,0 46.98431,0.30094 47.88337,1.2 0.89908,0.89908 1.2,12.91481 1.2,47.91667 0,36.43766 0.27504,46.82764 1.25,47.22105 1.79421,0.72398 75.80531,0.75414 78.5,0.032 z"
       id="path114"
       inkscape:connector-curvature="0" />
    <path
       style="fill:#fa403e"
       d="M 202.5,439.03486 C 191.48501,437.50653 172.98517,434.0388 165.08265,432.0211 102.95282,416.15795 48.834311,371.15623 21.472438,312.60343 11.084646,290.37417 4.7655371,266.70102 0.89110087,235.5 -0.31837688,225.76002 0.25388659,203.67712 1.9276741,195.5 2.4905758,192.75 4.0953506,184.49306 5.4938403,177.15124 13.272131,136.31664 32.737165,99.094658 62.5,68.141296 93.536309,35.863522 134.0927,13.682617 177,5.5195056 184.425,4.1069 192.75,2.4905758 195.5,1.9276741 213.61679,-1.7806799 246.85141,0.72016673 274.61635,7.8810413 311.17352,17.309525 344.11076,35.761783 371.54666,62.183805 403.95227,93.391889 426.0641,133.47372 434.33531,176 c 4.87332,25.05609 5.16469,27.5384 5.16469,44 0,16.44555 -0.27909,18.82787 -5.15455,44 -7.67209,39.61117 -27.58078,77.48736 -56.52926,107.54666 -31.52578,32.7355 -71.661,54.7357 -114.81619,62.93673 -7.425,1.41101 -15.75,3.03699 -18.5,3.61328 -6.56992,1.3768 -34.36419,1.99766 -42,0.93819 z M 262,310 262.5,262.5 310,262 357.5,261.5 V 220 178.5 L 310,178 262.5,177.5 262,130 261.5,82.5 H 220 178.5 L 178,130 177.5,177.5 130,178 82.5,178.5 v 41.5 41.5 l 47.5,0.5 47.5,0.5 0.25028,46.5 c 0.13765,25.575 0.46294,47.0675 0.72288,47.76112 0.372,0.99266 9.25901,1.20553 41.74972,1 L 261.5,357.5 Z"
       id="path112"
       inkscape:connector-curvature="0" />
    <path
       style="fill:#f43332"
       d="M 203,439.03959 C 192.76032,437.74491 173.63662,434.20513 165.08265,432.0211 102.95282,416.15795 48.834311,371.15623 21.472438,312.60343 4.5492055,276.38871 -3.7683683,226.15593 2.0214266,195.13187 8.4028795,160.93747 12.252129,147.52945 21.294019,128 31.528519,105.89465 44.960562,86.38232 62.5,68.141296 80.415085,49.5096 99.010623,35.87683 122.88831,23.869386 143.76964,13.368731 158.98529,8.7672008 195.13187,2.0214266 c 31.02406,-5.7897949 81.25684,2.5277789 117.47156,19.4510114 36.16166,16.898437 69.22805,45.693888 91.276,79.486562 13.94917,21.37975 25.60446,50.09751 30.45588,75.041 4.87332,25.05609 5.16469,27.5384 5.16469,44 0,16.44555 -0.27909,18.82787 -5.15455,44 -7.67209,39.61117 -27.58078,77.48736 -56.52926,107.54666 -31.52578,32.7355 -71.661,54.7357 -114.81619,62.93673 -7.425,1.41101 -15.75,3.02699 -18.5,3.59105 -6.68696,1.37159 -33.37621,1.99229 -41.5,0.96515 z M 169.21666,398.26865 C 167.28452,397.57979 146.34084,383.37587 139.5,378.11491 114.85535,359.16195 90.746032,334.13561 72.551453,308.61993 62.115579,293.98488 46.516816,265.79502 39.975988,249.75 38.686779,246.5875 37.276029,244 36.840986,244 c -1.747052,0 3.490765,23.83933 8.307481,37.81055 15.615251,45.29314 48.949574,83.35148 91.960333,104.99262 10.62158,5.34431 31.98176,13.43589 32.8912,12.45972 0.275,-0.29519 -0.0775,-0.74259 -0.78334,-0.99424 z M 260.30616,357.75 c 1.53644,-1.13749 1.71116,-5.48036 1.94113,-48.25 l 0.25271,-47 47,-0.25271 c 43.04211,-0.23143 47.1068,-0.397 48.26822,-1.96604 1.7833,-2.40921 1.72695,-78.23188 -0.0599,-80.64446 -1.08269,-1.46178 -6.09394,-1.65763 -48.20829,-1.88408 l -47,-0.25271 -0.25977,-47.22005 c -0.24517,-44.565903 -0.36252,-47.27503 -2.08769,-48.198315 -2.52557,-1.351641 -77.7065,-1.390717 -80.22716,-0.0417 -1.82737,0.977976 -1.91653,2.964088 -2.16561,48.240015 L 177.5,177.5 l -47.22005,0.25977 c -44.954441,0.24731 -47.268054,0.34949 -48.220701,2.12952 -1.338725,2.50143 -1.324253,77.74703 0.01544,80.25026 0.932402,1.74221 3.516822,1.85483 48.205261,2.10068 L 177.5,262.5 l 0.25271,47 c 0.22997,42.76964 0.40469,47.11251 1.94113,48.25 1.28222,0.94927 10.97912,1.25 40.30616,1.25 29.32704,0 39.02394,-0.30073 40.30616,-1.25 z M 403.48635,194.25 C 399.94547,172.27621 393.76555,153.12453 384.36739,135 375.83549,118.54606 366.83862,105.99956 354,92.651412 337.03147,75.009448 324.0864,65.323143 303.26266,54.686588 293.18068,49.536814 272.59134,41.609558 270.89355,42.223911 c -0.41964,0.151849 3.14514,2.725892 7.92173,5.720096 C 317.70251,72.320425 353.69225,108.97472 378.53003,149.5 384.23039,158.8007 399,186.83532 399,188.35464 c 0,1.12962 3.98161,9.64536 4.50978,9.64536 0.31946,0 0.30892,-1.6875 -0.0234,-3.75 z"
       id="path110"
       inkscape:connector-curvature="0" />
    <path
       style="fill:#fa0000"
       d="m 207,439.29615 c -3.025,-0.18363 -6.4,-0.73557 -7.5,-1.22652 -1.1,-0.49096 -6.05,-1.4117 -11,-2.0461 C 154.79365,431.70368 117.3125,416.13853 88.510611,394.5 78.269634,386.80607 60.693403,369.90423 51.532904,358.94112 26.215976,328.64228 8.2614831,287.67028 3.7427994,249.8845 3.1020659,244.52661 2.2895789,240.32103 1.9372727,240.53877 1.5849665,240.7565 0.99972284,236.04473 0.63673121,230.06815 -0.06538748,218.50792 0.81963335,198.77049 2.007199,199.50445 2.3981547,199.74607 3.0165444,196.73184 3.3813983,192.80616 4.9698563,175.71497 11.884479,150.69943 20.406046,131.21483 36.060433,95.420994 65.472308,60.517048 98.5,38.538412 126.47309,19.923416 161.69178,6.6935655 192,3.4152739 c 3.575,-0.3866902 6.80653,-1.1772718 7.18119,-1.7568479 0.91368,-1.4134345 40.69135,-1.44926485 41.63762,-0.037506 0.37466,0.558948 5.07369,1.5800768 10.4423,2.2691751 C 288.58345,8.6806756 328.49612,26.339526 359,51.557781 c 41.84682,34.595723 71.08415,87.051929 77.26259,138.620779 0.63777,5.32321 1.44713,9.50084 1.79859,9.28363 0.35145,-0.21721 0.92718,4.31494 1.27939,10.07144 C 440.02726,220.75669 439.15591,241 437.98613,241 c -0.39047,0 -1.02,3.02639 -1.39897,6.72532 -1.80999,17.6665 -8.99041,43.06319 -17.54972,62.07225 -28.39229,63.05534 -85.88437,109.46153 -153.2568,123.70512 -6.44566,1.36271 -14.8705,2.77052 -18.72189,3.12847 -3.85138,0.35795 -6.80496,0.97047 -6.5635,1.36116 0.24147,0.39069 -3.93369,0.99992 -9.27811,1.35384 -9.52175,0.63055 -13.12907,0.6231 -24.21714,-0.05 z M 179.43263,403.109 c 0.30287,-0.49004 -2.70807,-2.81185 -6.69098,-5.15956 C 168.75874,395.60173 160.325,390.17874 154,385.89835 121.36104,363.81021 91.597401,333.65465 68.958865,299.73741 c -9.766879,-14.63282 -24.084797,-41.66814 -29.30677,-55.3375 -1.491807,-3.90505 -3.404174,-7.95505 -4.249703,-9 -1.402039,-1.73272 -1.484236,-1.15191 -0.934051,6.60009 1.192153,16.79716 8.119292,41.69333 16.497318,59.29144 23.207559,48.74765 68.610901,87.0101 119.482751,100.69088 8.42833,2.2666 8.29041,2.2493 8.98422,1.12668 z m 82.96038,-45.69079 c 0.33385,-0.86998 0.60699,-22.46998 0.60699,-48 V 263 h 46.41821 c 25.53002,0 47.13002,-0.27314 48,-0.60699 C 358.82568,261.85292 359,257.1809 359,220 359,182.8191 358.82568,178.14708 357.41821,177.60699 356.54823,177.27314 334.94823,177 309.41821,177 H 263 V 130.58179 C 263,105.05177 262.72686,83.451771 262.39301,82.581787 261.85292,81.174325 257.1809,81 220,81 182.8191,81 178.14708,81.174325 177.60699,82.581787 177.27314,83.451771 177,105.05177 177,130.58179 V 177 h -46.41821 c -25.53002,0 -47.130019,0.27314 -48.000003,0.60699 C 81.174325,178.14708 81,182.8191 81,220 c 0,37.1809 0.174325,41.85292 1.581787,42.39301 C 83.451771,262.72686 105.05177,263 130.58179,263 H 177 v 46.41821 c 0,25.53002 0.27314,47.13002 0.60699,48 C 178.14708,358.82568 182.8191,359 220,359 c 37.1809,0 41.85292,-0.17432 42.39301,-1.58179 z M 404.45168,188.60188 C 394.70097,129.89366 355.71006,77.937603 301.5,51.417024 288.63376,45.122617 266.97505,37.769634 262.56882,38.200155 c -2.78545,0.272157 -1.93165,0.991656 9.24631,7.791877 C 313.19766,71.167508 349.92737,107.31674 375.46111,148 c 7.40583,11.79982 19.86148,35.90817 24.02435,46.5 1.51315,3.85 3.48544,8.35 4.38286,10 l 1.63168,3 0.31474,-4.39812 c 0.1731,-2.41897 -0.44028,-8.94397 -1.36306,-14.5 z"
       id="path108"
       inkscape:connector-curvature="0" />
    <path
       style="fill:#e70202"
       d="m 207,439.29615 c -3.025,-0.18363 -6.4,-0.73557 -7.5,-1.22652 -1.1,-0.49096 -6.05,-1.4117 -11,-2.0461 C 154.79365,431.70368 117.3125,416.13853 88.510611,394.5 78.269634,386.80607 60.693403,369.90423 51.532904,358.94112 26.215976,328.64228 8.2614831,287.67028 3.7427994,249.8845 3.1020659,244.52661 2.2895789,240.32103 1.9372727,240.53877 1.5849665,240.7565 0.99972284,236.04473 0.63673121,230.06815 -0.06538748,218.50792 0.81963335,198.77049 2.007199,199.50445 2.3981547,199.74607 3.0165444,196.73184 3.3813983,192.80616 4.9698563,175.71497 11.884479,150.69943 20.406046,131.21483 36.060433,95.420994 65.472308,60.517048 98.5,38.538412 126.47309,19.923416 161.69178,6.6935655 192,3.4152739 c 3.575,-0.3866902 6.80653,-1.1772718 7.18119,-1.7568479 0.91368,-1.4134345 40.69135,-1.44926485 41.63762,-0.037506 0.37466,0.558948 5.07369,1.5800768 10.4423,2.2691751 C 288.58345,8.6806756 328.49612,26.339526 359,51.557781 c 41.84682,34.595723 71.08415,87.051929 77.26259,138.620779 0.63777,5.32321 1.44713,9.50084 1.79859,9.28363 0.35145,-0.21721 0.92718,4.31494 1.27939,10.07144 C 440.02726,220.75669 439.15591,241 437.98613,241 c -0.39047,0 -1.02,3.02639 -1.39897,6.72532 -1.80999,17.6665 -8.99041,43.06319 -17.54972,62.07225 -28.39229,63.05534 -85.88437,109.46153 -153.2568,123.70512 -6.44566,1.36271 -14.8705,2.77052 -18.72189,3.12847 -3.85138,0.35795 -6.80496,0.97047 -6.5635,1.36116 0.24147,0.39069 -3.93369,0.99992 -9.27811,1.35384 -9.52175,0.63055 -13.12907,0.6231 -24.21714,-0.05 z m 27,-28.17839 c 13.47646,-1.30165 33.59021,-4.6221 40,-6.60333 6.97074,-2.15463 19.95849,-7.23652 21.29689,-8.33312 0.66171,-0.54217 3.00311,-1.47228 5.20311,-2.06692 4.14754,-1.12104 17.45687,-8.63196 23.52352,-13.27516 1.91206,-1.46343 6.17648,-4.114 9.47648,-5.89016 7.2063,-3.87865 9.25245,-5.56968 11.12806,-9.19671 0.78281,-1.5138 2.13078,-2.75236 2.99548,-2.75236 0.8647,0 4.11565,-2.8056 7.22432,-6.23466 3.10868,-3.42906 8.24155,-8.89786 11.40639,-12.1529 3.16484,-3.25504 7.31326,-8.21194 9.21871,-11.01534 1.90544,-2.80341 4.36852,-6.2221 5.4735,-7.5971 1.10499,-1.375 2.01907,-2.85912 2.0313,-3.29804 0.0122,-0.43892 1.57409,-3.22396 3.47079,-6.18899 C 391.12596,309.201 394,303.4319 394,301.35483 c 0,-0.94866 1.56406,-4.74718 3.47569,-8.44115 7.11849,-13.75551 8.69631,-19.64704 13.6353,-50.91368 1.45173,-9.19024 1.81966,-15.01542 1.38957,-22 -0.32173,-5.225 -0.55238,-13.44641 -0.51256,-18.26979 0.0578,-6.99626 -0.23704,-8.88855 -1.45779,-9.35699 -1.84158,-0.70668 -2.11839,-8.40569 -0.41655,-11.5856 0.89211,-1.66691 0.79263,-2.26056 -0.5,-2.98395 C 408.60769,177.2407 408,175.58128 408,173.39726 c 0,-2.08917 -1.00917,-4.9885 -2.5,-7.18245 -1.375,-2.02349 -2.50037,-4.58712 -2.50081,-5.69694 -10e-4,-3.18344 -3.54523,-11.68432 -5.27454,-12.65209 -0.8626,-0.48273 -1.85705,-2.33751 -2.2099,-4.12174 -0.9162,-4.63293 -8.79723,-20.74201 -10.14812,-20.74311 -2.2363,-0.002 -2.11049,3.78714 0.22037,6.63686 1.28759,1.57422 2.35726,3.50178 2.37704,4.28347 0.0198,0.78169 0.7504,2.21071 1.62361,3.1756 0.87321,0.96488 1.42129,2.57531 1.21796,3.57874 -0.23884,1.17862 -1.89894,-1.18432 -4.68999,-6.6756 -2.37615,-4.675 -4.72424,-8.9275 -5.21795,-9.45 -1.38854,-1.46949 -1.07796,-2.26959 1.10233,-2.83975 2.20179,-0.57578 2.76955,-4.5407 0.91567,-6.39458 C 381.27841,113.67841 378,114.94961 378,117.22172 c 0,1.28609 -1.97772,-0.78617 -5.59899,-5.86663 -3.07945,-4.3203 -6.76364,-9.09259 -8.18709,-10.60509 -2.01042,-2.136182 -2.22657,-2.75 -0.9684,-2.75 0.89084,0 1.89498,0.867324 2.23143,1.927386 0.33645,1.060064 2.11066,2.811774 3.94267,3.892694 2.41758,1.4264 3.58064,3.02113 4.24157,5.81583 0.55835,2.36091 1.57375,3.97824 2.62472,4.18064 4.67204,0.89975 -1.4439,-12.27848 -7.24297,-15.606693 -1.61347,-0.926 -3.14979,-2.510432 -3.41404,-3.52096 -0.26426,-1.010527 -1.41387,-2.081411 -2.55469,-2.379741 -2.23025,-0.583223 -2.58987,-1.945603 -1.12488,-4.26141 1.46784,-2.320315 0.0328,-3.341562 -2.04861,-1.457901 C 357.87156,88.426211 357.34589,91 359,91 c 0.55,0 1,0.955176 1,2.122614 0,1.667689 -2.10486,0.102317 -9.82098,-7.303804 -10.61707,-10.190518 -17.55254,-15.775508 -29.03248,-23.379262 -4.0444,-2.678816 -6.7444,-5.034246 -6,-5.234289 3.93605,-1.057733 3.96522,-1.105053 2.2733,-3.687249 -1.9925,-3.04095 -4.79747,-3.244649 -6.7279,-0.488583 -1.40355,2.003848 -1.52528,1.979224 -9.65823,-1.95378 -4.53022,-2.190763 -12.35357,-5.466505 -17.38523,-7.279427 -6.0781,-2.189955 -8.38468,-3.404602 -6.87265,-3.619156 2.97112,-0.421595 14.89865,3.526829 18.69223,6.187775 1.63243,1.145043 3.43243,2.175049 4,2.288902 0.56757,0.113854 2.48816,0.784623 4.26797,1.490599 2.59654,1.029931 3.48417,1.035461 4.49164,0.02799 1.51222,-1.512211 -0.44955,-3.132357 -3.82268,-3.157012 -1.15226,-0.0084 -2.94312,-0.952462 -3.9797,-2.097867 -3.43995,-3.801104 -18.99745,-9.389963 -23.42904,-8.416623 -2.16631,0.475801 -3.15412,0.251352 -3.56107,-0.809142 -0.74426,-1.939512 -8.50219,-4.055614 -12.6413,-3.448121 -1.81511,0.266402 -4.17997,-0.09603 -5.28858,-0.8105 C 251.68553,28.971282 237.11465,27 222.73801,27 c -11.05,0 -17.89641,0.651599 -32.13953,3.058842 C 180.64432,31.741205 170.25,33.957282 167.5,34.983458 159.98369,37.788205 143.05959,43 141.46814,43 c -0.7692,0 -2.87671,1.291734 -4.68334,2.870519 C 134.97816,47.449304 129,51.099345 123.5,53.981721 118,56.864097 112.78957,59.847363 111.92126,60.611202 111.05295,61.375041 109.99028,62 109.55977,62 c -2.23236,0 -34.49182,31.235632 -40.84422,39.54794 -5.70249,7.46187 -9.943979,14.09309 -14.680706,22.95206 -2.352597,4.4 -4.846257,8.675 -5.541465,9.5 -3.618123,4.29361 -10.131638,21.43814 -13.867001,36.5 C 29.384426,191.63677 28.5,199.28804 28.5,223.5 c 0,14.76082 0.362345,21.59421 1.219591,23 1.124303,1.84374 1.221967,1.75116 1.25,-1.1849 0.01672,-1.7517 0.555416,-4.4517 1.197092,-6 1.077318,-2.59947 1.266031,-2.11135 2.463697,6.37254 0.713357,5.05321 1.98835,12.16863 2.833317,15.81206 1.853464,7.99198 1.841413,7.5003 0.183837,7.5003 -0.986568,0 -1.382437,1.7588 -1.463247,6.50103 -0.09945,5.83636 0.136724,6.6632 2.310026,8.0872 1.904882,1.24813 2.302554,2.17744 1.865946,4.36047 -0.604219,3.0211 1.40834,7.7388 5.280435,12.37803 C 46.938312,301.88142 48,303.99237 48,305.01771 c 0,1.02534 0.45,2.14237 1,2.48229 2.579601,1.59428 -0.409957,-9.01006 -3.613378,-12.81711 C 43.140489,292.01351 42.041026,286 43.799112,286 c 0.439511,0 1.395905,1.6875 2.125319,3.75 0.729415,2.0625 3.23633,7.6875 5.570923,12.5 3.735699,7.70072 4.020465,8.75 2.374681,8.75 C 52.458885,311 52,311.73617 52,314 c 0,3.5329 2.630658,4.17265 3.829694,0.93134 0.654714,-1.76986 1.634748,-0.72267 6.785068,7.25 3.310903,5.12526 8.76044,12.70904 12.110083,16.85285 8.038262,9.94403 24.848993,25.987 35.067385,33.46581 4.80435,3.51629 7.57899,6.13384 6.70282,6.32332 -2.05121,0.4436 -1.8758,1.90254 0.37347,3.10631 2.21803,1.18706 3.22552,0.47901 2.39564,-1.68363 -0.42144,-1.09825 0.70628,-0.75966 3.8189,1.14659 2.42932,1.48778 8.01694,4.56915 12.41694,6.8475 5.09075,2.63601 7.3636,4.28138 6.25,4.5245 -2.00278,0.43725 -2.2878,1.785 -0.5983,2.82917 0.63344,0.39148 1.70085,-0.0392 2.37202,-0.95709 1.11882,-1.53008 1.99707,-1.37246 10.55963,1.89514 5.13662,1.96021 12.95671,4.49164 17.37798,5.62541 4.42127,1.13377 8.71367,2.57859 9.53867,3.2107 3.76455,2.88442 9.12522,4.50559 16.53305,4.99994 4.41817,0.29484 9.14317,0.9969 10.5,1.56013 2.6492,1.0997 7.88373,0.93637 25.96695,-0.81023 z m -55,-10.17678 c 0,-0.58246 0.45,-0.7809 1,-0.44098 0.55,0.33992 1,0.81648 1,1.05902 0,0.24254 -0.45,0.44098 -1,0.44098 -0.55,0 -1,-0.47656 -1,-1.05902 z M 146.5,381 c -0.33992,-0.55 -0.14148,-1 0.44098,-1 0.58246,0 1.05902,0.45 1.05902,1 0,0.55 -0.19844,1 -0.44098,1 -0.24254,0 -0.7191,-0.45 -1.05902,-1 z m 30.53518,-22.93426 C 176.36458,356.81271 176,339.90768 176,310.06574 V 264 h -46.94098 c -34.760892,0 -47.128604,-0.30357 -47.664048,-1.16994 -0.492974,-0.79765 -0.167516,-0.95675 1.022771,-0.5 C 83.37795,262.69853 105.05177,263 130.58179,263 H 177 l 0.0153,46.75 c 0.008,25.7125 0.36932,47.30738 0.80198,47.98862 0.59982,0.94441 10.51292,1.30344 41.73469,1.51153 l 40.94802,0.27292 -41.21482,0.23846 c -39.85337,0.23059 -41.24901,0.17458 -42.25,-1.69579 z m 85.74343,-46.85602 c 0.15323,-26.18015 0.40286,-47.72452 0.55472,-47.87639 0.67116,-0.67115 95.42773,-0.75426 95.01264,-0.0833 -0.2552,0.4125 -21.58745,0.75 -47.40499,0.75 L 264,264 v 46.94098 c 0,25.81754 -0.3375,47.14979 -0.75,47.40499 -0.4125,0.25521 -0.62463,-20.95611 -0.47139,-47.13625 z m -182.194513,5.14884 c -0.526667,-1.37248 -0.380336,-1.43434 0.893011,-0.37756 1.735245,1.44013 1.91584,2.019 0.629881,2.019 -0.491156,0 -1.176458,-0.73865 -1.522892,-1.64144 z M 41.251414,282.75 C 39.621183,279.37414 38,273.9397 38,271.85078 c 0,-3.63446 1.527829,-1.7533 3.201106,3.9414 0.935609,3.18418 1.996253,6.55856 2.356989,7.49862 0.975983,2.54337 -1.046261,2.06926 -2.306681,-0.5408 z m 9.312879,-14.45687 c -0.542685,-1.4252 -0.427821,-1.54006 0.559795,-0.5598 0.683418,0.67834 0.990671,1.48524 0.682784,1.79313 -0.307887,0.30789 -0.867048,-0.24711 -1.242579,-1.23333 z M 80.456673,219.5 c -2.58e-4,-22.55 0.131106,-31.91763 0.291921,-20.81697 0.160815,11.10067 0.161026,29.55067 4.7e-4,41 C 80.588508,251.13237 80.456932,242.05 80.456673,219.5 Z m 278.999997,0 c -2.6e-4,-22.55 0.13111,-31.91763 0.29192,-20.81697 0.16082,11.10067 0.16103,29.55067 4.7e-4,41 -0.16055,11.44934 -0.29213,2.36697 -0.29239,-20.18303 z M 35.696917,235.60687 c -0.409197,-1.04122 -0.508402,-2.12872 -0.220456,-2.41666 0.91206,-0.91206 1.714561,0.58256 1.332392,2.48152 -0.350243,1.74033 -0.403729,1.73721 -1.111936,-0.0649 z M 404.07029,186.83179 c -0.0387,-1.46752 -0.37176,-3.45384 -0.74023,-4.41405 -0.42128,-1.09783 -0.28049,-1.50514 0.37929,-1.09737 1.5226,0.94101 2.09998,3.90695 1.20611,6.1956 -0.67521,1.72882 -0.78393,1.64081 -0.84517,-0.68418 z M 310.25,177.25024 263,176.98042 V 130.572 c 0,-25.52464 -0.30147,-47.19405 -0.66994,-48.154257 -0.45675,-1.190287 -0.29765,-1.515745 0.5,-1.022771 C 263.69643,81.930416 264,94.298128 264,129.05902 V 176 h 46.94098 c 30.2153,0 47.1612,0.35631 47.55902,1 0.33992,0.55 0.25398,0.89201 -0.19098,0.76003 -0.44496,-0.13199 -22.07152,-0.36139 -48.05902,-0.50979 z m -180.50998,-0.99999 46.24002,-0.27021 0.27021,-46.24002 L 176.52047,83.5 176.76023,130.25 177,177 130.25,176.76023 83.5,176.52047 Z m 272.24916,0.0588 c -0.006,-0.44496 -0.65943,-2.94652 -1.45217,-5.55902 -1.6025,-5.2811 -0.42747,-6.37264 1.93731,-1.79966 1.75153,3.38709 1.97884,6.65156 0.52568,7.54966 -0.55,0.33992 -1.00487,0.25398 -1.01082,-0.19098 z M 396.17841,157.47 c -1.27688,-3.83348 -2.55188,-7.53247 -2.83334,-8.21997 -0.28145,-0.6875 -0.0566,-1.25 0.49975,-1.25 1.44294,0 5.31301,10.84916 4.95511,13.89092 -0.22407,1.90428 -0.88714,0.78607 -2.62152,-4.42095 z M 199.31697,80.250936 c 11.44933,-0.160556 29.89933,-0.160345 41,4.7e-4 11.10066,0.160815 1.73303,0.292179 -20.81697,0.291921 -22.55,-2.59e-4 -31.63237,-0.131835 -20.18303,-0.292391 z M 306.87244,71.25 C 305.62857,69.663944 305.66394,69.628574 307.25,70.872445 308.91575,72.178814 309.44548,73 308.62244,73 c -0.20765,0 -0.99515,-0.7875 -1.75,-1.75 z m -46,-30.91372 C 259.62796,38.827677 259.70978,38.78434 261.75,39.871464 264.07696,41.111374 264.64993,42 263.12244,42 c -0.48265,0 -1.49515,-0.748674 -2.25,-1.66372 z m 0.82141,-2.97576 C 261.34214,37.008806 261.26759,36.376052 261.52818,35.9544 262.14305,34.95953 266,35.962 266,37.116631 c 0,1.013625 -3.34685,1.203181 -4.30615,0.243889 z M 174.45,406.09079 C 173.25698,404.94899 163.31007,402 160.65183,402 c -2.67496,0 -1.35216,1.14778 3.68117,3.19413 4.44987,1.80913 11.74607,2.45578 10.117,0.89666 z M 157.9923,401.25 c -0.0108,-1.05179 -7.55992,-5.25 -9.44042,-5.25 -3.23541,0 -1.37348,2.73367 2.69812,3.96134 2.3375,0.70481 4.7,1.41631 5.25,1.58112 0.55,0.1648 1.1125,0.33517 1.25,0.37859 0.1375,0.0434 0.24653,-0.25855 0.2423,-0.67105 z m -22.88151,-10.69632 c 0.003,-0.52048 -1.9155,-1.51343 -4.26295,-2.20655 -4.70162,-1.38822 -6.61773,-0.97054 -2.58367,0.56321 1.39785,0.53146 2.85222,1.46897 3.23193,2.08335 0.80202,1.29769 3.6071,0.95623 3.61469,-0.44001 z M 112.44113,376.5318 c -1.06762,-0.8075 -2.50311,-1.4825 -3.18999,-1.5 -0.68687,-0.0175 -3.16187,-1.89495 -5.5,-4.17214 -2.33812,-2.27718 -5.924279,-5.25248 -7.969226,-6.61176 -2.044947,-1.35929 -3.987439,-3.32009 -4.31665,-4.35734 -0.32921,-1.03725 -1.66041,-2.15242 -2.958223,-2.47815 -1.297812,-0.32573 -3.555739,-2.31818 -5.017616,-4.42767 -2.352731,-3.39499 -5.200489,-5.60701 -6.082709,-4.72479 -0.787699,0.7877 2.369062,5.25256 4.711072,6.66325 1.439783,0.86724 5.261889,4.3893 8.493568,7.8268 3.231678,3.4375 6.356548,6.25 6.944153,6.25 0.587606,0 2.034086,1.3062 3.214401,2.90266 1.18031,1.59646 4.07744,3.58593 6.43806,4.42105 5.73345,2.02833 7.74551,2.10834 5.23316,0.20809 z M 76,344.01546 c 0,-0.42382 -0.634938,-1.29752 -1.410972,-1.94157 -1.673435,-1.38883 -3.088916,0.18104 -2.215495,2.45714 C 72.919335,345.95336 76,345.51539 76,344.01546 Z m -5,-6.44737 C 71,336.78055 69.65,335.1749 68,334 66.35,332.8251 65,330.99445 65,329.93191 65,328.86936 64.811804,328 64.581787,328 c -0.230016,0 -1.130016,-0.27314 -2,-0.60699 -2.499267,-0.95906 -1.92646,2.35323 0.894855,5.17454 1.362153,1.36215 2.952986,3.3667 3.535184,4.45455 C 68.234189,339.3061 71,339.68475 71,337.56809 Z M 59,322.05902 c 0,-1.06754 -0.500312,-2.2502 -1.111803,-2.62812 -1.369433,-0.84635 -2.891048,1.3981 -2.188688,3.22842 C 56.486571,324.71037 59,324.25322 59,322.05902 Z M 34.487203,259.75 c -0.39368,-3.9875 -1.21696,-8.15 -1.829512,-9.25 -1.078968,-1.93757 -1.124807,-1.9266 -1.468591,0.35171 -0.195173,1.29344 -0.02104,3.54344 0.386971,5 0.408006,1.45656 0.633756,3.48455 0.501665,4.50664 -0.362115,2.80198 0.818871,6.64165 2.042807,6.64165 0.742871,0 0.857894,-2.27438 0.36666,-7.25 z M 355.78584,83.421672 c 0.17809,-1.197216 -0.55315,-2.298664 -1.93966,-2.921672 -1.22403,-0.55 -2.95516,-2.35 -3.84695,-4 -1.09293,-2.022151 -4.26326,-4.417157 -9.72646,-7.347777 -5.37287,-2.882164 -8.28934,-5.07328 -8.65177,-6.5 -0.70688,-2.782623 -4.47056,-5.202659 -5.88755,-3.785672 C 324.66552,59.934484 327.23232,65 328.8414,65 c 0.43741,0 2.56454,1.574648 4.72695,3.499218 2.16241,1.92457 4.39372,3.49957 4.95847,3.5 0.56475,4.3e-4 4.15568,3.153805 7.97985,7.0075 7.02805,7.082326 8.75985,7.906299 9.27917,4.414954 z"
       id="path106"
       inkscape:connector-curvature="0" />
    <path
       style="fill:#d80505"
       d="m 207,439.29615 c -3.025,-0.18363 -6.4,-0.73557 -7.5,-1.22652 -1.1,-0.49096 -6.05,-1.4117 -11,-2.0461 C 154.79365,431.70368 117.3125,416.13853 88.510611,394.5 78.269634,386.80607 60.693403,369.90423 51.532904,358.94112 26.215976,328.64228 8.2614831,287.67028 3.7427994,249.8845 3.1020659,244.52661 2.2895789,240.32103 1.9372727,240.53877 1.5849665,240.7565 0.99972284,236.04473 0.63673121,230.06815 -0.06538748,218.50792 0.81963335,198.77049 2.007199,199.50445 2.3981547,199.74607 3.0165444,196.73184 3.3813983,192.80616 4.9698563,175.71497 11.884479,150.69943 20.406046,131.21483 36.060433,95.420994 65.472308,60.517048 98.5,38.538412 126.47309,19.923416 161.69178,6.6935655 192,3.4152739 c 3.575,-0.3866902 6.80653,-1.1772718 7.18119,-1.7568479 0.91368,-1.4134345 40.69135,-1.44926485 41.63762,-0.037506 0.37466,0.558948 5.07369,1.5800768 10.4423,2.2691751 C 288.58345,8.6806756 328.49612,26.339526 359,51.557781 c 41.84682,34.595723 71.08415,87.051929 77.26259,138.620779 0.63777,5.32321 1.44713,9.50084 1.79859,9.28363 0.35145,-0.21721 0.92718,4.31494 1.27939,10.07144 C 440.02726,220.75669 439.15591,241 437.98613,241 c -0.39047,0 -1.02,3.02639 -1.39897,6.72532 -1.80999,17.6665 -8.99041,43.06319 -17.54972,62.07225 -28.39229,63.05534 -85.88437,109.46153 -153.2568,123.70512 -6.44566,1.36271 -14.8705,2.77052 -18.72189,3.12847 -3.85138,0.35795 -6.80496,0.97047 -6.5635,1.36116 0.24147,0.39069 -3.93369,0.99992 -9.27811,1.35384 -9.52175,0.63055 -13.12907,0.6231 -24.21714,-0.05 z m 16.31574,-11.49371 c 1.20134,-0.65866 8.03426,-1.51604 15.18426,-1.9053 16.49499,-0.89801 31.45907,-3.45891 33.06791,-5.65912 1.04707,-1.43196 1.68322,-1.47526 5.10119,-0.34723 3.2986,1.08864 4.44267,1.05457 7.36792,-0.21944 3.41726,-1.48829 3.42667,-1.50928 0.71298,-1.58978 -1.5125,-0.0449 -2.75,-0.523 -2.75,-1.06252 0,-1.15597 3.2752,-1.93305 7.53874,-1.78864 2.88902,0.0978 10.25263,-2.93638 22.51242,-9.27643 3.74685,-1.93766 6.34711,-2.67376 8,-2.26471 1.34686,0.33332 2.12717,0.25542 1.73402,-0.1731 -0.97414,-1.0618 0.9807,-4.51617 2.55572,-4.51617 0.6988,0 2.80862,-1.13476 4.68849,-2.52168 1.87987,-1.38693 5.19886,-3.00124 7.37552,-3.58735 5.39371,-1.45237 10.96157,-5.74446 9.59226,-7.39437 -1.21333,-1.46198 2.73142,-4.4966 5.8452,-4.4966 2.4959,0 3.90038,-1.78847 4.31914,-5.5 0.30151,-2.67225 0.74818,-3.03391 4.08849,-3.31037 2.0625,-0.1707 3.75,-0.76612 3.75,-1.32317 0,-0.55704 1.8,-2.62869 4,-4.60367 2.38044,-2.13697 4,-4.48711 4,-5.80439 0,-2.57351 2.41071,-4.94063 4.01921,-3.94653 1.43578,0.88736 4.98079,-2.32487 4.98079,-4.51322 0,-0.93026 0.71775,-3.13013 1.595,-4.88862 1.32202,-2.65007 1.84726,-2.98787 3.06908,-1.97386 1.2097,1.00397 1.90076,0.69792 3.85302,-1.70639 1.30842,-1.61138 2.67083,-4.27978 3.02758,-5.92978 1.02164,-4.72513 8.38458,-15.5 10.59183,-15.5 1.5029,0 1.77648,-0.49848 1.30487,-2.37753 -0.40488,-1.61316 0.36739,-4.10474 2.40211,-7.75 1.64935,-2.95486 3.48753,-7.23255 4.08484,-9.50598 0.59731,-2.27343 1.75779,-4.69103 2.57885,-5.37245 0.92508,-0.76775 1.49864,-2.99885 1.50813,-5.86648 0.0182,-5.49601 1.1147,-7.91232 2.68869,-5.92489 0.5651,0.71353 1.24263,1.97233 1.50562,2.79733 0.26299,0.825 0.80266,-1.06243 1.19927,-4.19429 0.46904,-3.70382 0.32097,-6.44196 -0.4236,-7.83319 -0.90028,-1.6822 -0.83456,-2.49479 0.30781,-3.80571 3.83069,-4.39587 8.71051,-40.29525 8.19607,-60.29611 -0.12207,-4.74612 -0.56151,-9.17873 -0.97653,-9.85024 -0.90091,-1.45771 -3.59973,-25.07053 -2.98003,-26.07323 0.50703,-0.82038 -2.42794,-10.03894 -3.61136,-11.34306 -0.4471,-0.49271 -0.54469,-2.23699 -0.21685,-3.87618 0.43449,-2.17244 0.14873,-3.23068 -1.05417,-3.90385 C 418.74261,156.3162 418,155.07808 418,154.07275 c 0,-1.00532 -0.58401,-2.31255 -1.2978,-2.90494 -0.71379,-0.59239 -2.85129,-5.79121 -4.75,-11.55293 -2.50293,-7.59525 -3.96744,-10.61561 -5.32598,-10.98411 -1.42573,-0.38673 -1.72633,-1.09578 -1.25712,-2.96526 0.42289,-1.68492 0.14755,-2.63701 -0.87622,-3.02987 C 403.6718,122.32056 403,120.9754 403,119.64639 c 0,-1.47398 -0.97501,-3.05522 -2.5,-4.05443 -1.375,-0.90094 -2.5,-2.26817 -2.5,-3.03829 0,-0.77012 -1.125,-2.73721 -2.5,-4.3713 -1.375,-1.6341 -2.5,-3.28163 -2.5,-3.66118 0,-0.37955 -2.025,-3.2676 -4.5,-6.417879 C 386.025,94.953031 384,92.03682 384,91.622841 384,90.874606 374.21988,81 373.4788,81 372.47261,81 368,75.753522 368,74.573234 c 0,-0.734721 -1.575,-2.537167 -3.5,-4.005436 -1.925,-1.468269 -3.5,-3.339901 -3.5,-4.159182 0,-2.884902 -4.20527,-7.39241 -6.42051,-6.881949 -1.53865,0.354557 -3.88799,-1.228597 -9.03308,-6.087133 -4.79015,-4.523368 -7.52457,-6.417001 -8.78881,-6.086396 -1.0599,0.277171 -2.64858,-0.393115 -3.76048,-1.586609 -1.11528,-1.197111 -3.28096,-2.1086 -5.14763,-2.166529 -2.76322,-0.08575 -3.34235,-0.563076 -4.06451,-3.35 -0.70592,-2.724212 -1.31047,-3.25 -3.73685,-3.25 -1.59207,0 -4.16671,-1.058009 -5.7214,-2.351131 -1.57152,-1.307107 -4.77297,-2.604924 -7.20965,-2.922672 -3.17742,-0.414341 -5.15601,-1.417954 -7.19363,-3.648869 -2.72857,-2.987397 -4.08401,-3.482516 -8.56907,-3.130132 -1.18009,0.09272 -3.87343,-0.757471 -5.98519,-1.889309 C 283.25743,21.926049 280.82146,21 279.95594,21 c -0.86552,0 -2.44719,-0.660688 -3.51481,-1.468197 -1.06762,-0.807508 -3.01425,-1.482508 -4.32583,-1.5 -4.55747,-0.06078 -15.02637,-2.366685 -14.51336,-3.196746 C 257.88579,14.375776 256.54303,14 254.61803,14 c -1.925,0 -3.73426,-0.379043 -4.02058,-0.842318 -0.28632,-0.463274 -8.97537,-0.76321 -19.30901,-0.666523 -14.5444,0.136085 -19.43946,-0.146649 -21.67053,-1.251668 -1.78197,-0.882588 -4.26307,-1.204636 -6.5,-0.843702 -1.98985,0.321068 -5.59637,0.879319 -8.01448,1.240559 -2.41812,0.361239 -5.26541,1.525634 -6.32732,2.587544 -1.23454,1.234536 -2.5339,1.670445 -3.60343,1.208875 C 184.25271,15.035738 182.825,14.745126 182,14.786961 178.68905,14.954859 170.85504,17.023602 168.06336,18.467238 166.43314,19.310257 164.5399,20 163.85617,20 c -3.45691,0 -17.98961,5.380819 -18.8439,6.977064 -0.95626,1.786802 -6.87234,3.564073 -10.34802,3.108687 -1.00966,-0.132287 -2.58466,0.415316 -3.5,1.216895 -0.91534,0.801579 -4.81425,3.13532 -8.66425,5.186092 -3.85,2.050771 -7.9169,4.804757 -9.03756,6.119968 C 112.31626,43.953867 110.32703,45 108.91538,45 c -1.61484,0 -3.91797,1.442425 -6.46032,4.046018 -3.557809,3.643531 -4.30771,3.985723 -7.538413,3.4399 -3.238415,-0.547127 -3.84692,-0.266116 -6.252117,2.887259 C 87.199038,57.294536 86,59.701288 86,60.721516 86,62.674979 78.005892,70 75.873994,70 74.155012,70 70,74.04592 70,75.719769 c 0,0.754127 -1.059613,2.430753 -2.354695,3.725835 -1.295082,1.295082 -2.649275,3.122359 -3.009318,4.060615 -0.470682,1.226577 -1.335362,1.535065 -3.077288,1.097869 -1.857074,-0.466095 -2.571007,-0.14067 -3.05807,1.393931 C 58.151156,87.099109 57.226588,88 56.446032,88 54.929466,88 52,94.008619 52,97.119243 c 0,1.031248 -1.535274,3.574357 -3.41172,5.651357 -1.876446,2.07701 -3.563946,5.11195 -3.75,6.74433 -0.422595,3.70772 -3.496298,4.68099 -4.085128,1.29352 -0.364711,-2.09813 -0.47613,-2.13982 -1.222928,-0.45753 -0.524558,1.18166 -0.378952,2.12454 0.402685,2.60762 0.895129,0.55322 0.09365,2.9461 -2.980689,8.89907 C 34.639452,126.33592 32.409793,130 31.997424,130 c -0.41237,0 -0.956166,2.48894 -1.208435,5.53097 -0.288362,3.47727 -1.242397,6.59102 -2.569373,8.38585 C 25.695954,147.33026 21,158.58117 21,161.21411 c 0,1.02811 -1.380009,4.82095 -3.066687,8.42852 -1.86005,3.9784 -2.958231,7.79829 -2.791045,9.7083 0.151603,1.73199 -0.3094,5.78044 -1.02445,8.99656 -0.715051,3.21612 -1.080536,6.68708 -0.812189,7.71323 0.268346,1.02616 -0.08641,2.34238 -0.788349,2.92494 -2.446975,2.03081 -2.590645,6.812 -0.334746,11.14004 1.955149,3.75103 2.029123,4.52373 0.867124,9.05761 -0.996911,3.88974 -1.014606,5.87023 -0.0822,9.20045 0.879262,3.14041 0.915779,6.17704 0.14046,11.67998 -0.840862,5.96813 -0.784648,7.63561 0.284732,8.44599 0.732843,0.55536 1.600554,2.58036 1.928246,4.5 C 17.982599,268.60224 22.25678,284.89519 24.5,288 c 0.596061,0.825 1.933602,4.2 2.972315,7.5 1.038712,3.3 2.52143,6.75359 3.294927,7.67465 0.836672,0.99629 1.269928,3.2141 1.069559,5.475 -0.27907,3.14892 0.006,3.86731 1.663199,4.19103 2.690163,0.5255 3.466492,1.95339 3.484687,6.40932 0.01235,3.02471 0.386313,3.75 1.933526,3.75 C 42.888437,323 44,324.11291 44,328.08794 c 0,3.26744 0.380078,3.96935 2.427642,4.48326 2.723528,0.68356 3.781731,2.47199 2.596948,4.38901 -0.511064,0.82692 0.581793,2.69277 3.09252,5.2799 2.13559,2.20058 3.88289,4.51355 3.88289,5.13993 0,0.62637 0.930706,1.7201 2.068235,2.4305 1.601639,1.00024 1.928509,1.9278 1.448885,4.11152 -0.568642,2.589 -0.267205,2.96012 3.681765,4.53279 5.053705,2.01263 7.701852,4.18543 8.891127,7.29515 0.473268,1.2375 1.589955,2.25 2.481528,2.25 2.031653,0 14.395442,12.93752 14.414441,15.08333 0.01981,2.23725 1.12383,3.07042 2.526262,1.90651 0.837812,-0.69532 2.513413,0.0125 5.59201,2.36204 2.417661,1.84517 6.420747,4.38269 8.895747,5.63894 2.475,1.25624 5.625,3.12965 7,4.16314 1.375,1.03348 3.54109,2.65913 4.81352,3.61255 1.27244,0.95342 3.15154,2.48759 4.17579,3.40928 1.10107,0.99081 2.72878,1.44919 3.98221,1.12141 1.22891,-0.32137 2.62611,0.0521 3.32421,0.88858 0.66235,0.79362 4.48173,2.48201 8.48751,3.75198 4.00578,1.26996 9.18078,3.5953 11.5,5.16743 2.31922,1.57213 4.94916,2.8666 5.84432,2.87661 0.89515,0.01 2.18775,0.6932 2.87244,1.5182 1.41636,1.7066 4.57671,1.99391 5.5,0.5 0.98487,-1.59355 3.6969,-1.16365 5.93737,0.94116 2.39468,2.24969 11.49627,3.92785 25.54426,4.70987 5.2149,0.29031 10.6149,1.14457 12,1.89836 3.12995,1.70336 13.39869,1.86245 16.33411,0.25305 z M 55.505551,93.008982 C 54.769611,91.818205 56.658108,89 58.191996,89 c 1.328219,0 0.561471,4.25995 -0.850355,4.724458 -0.637098,0.209613 -1.463338,-0.112351 -1.83609,-0.715476 z M 90,58 c 0,-1.333333 0.666667,-2 2,-2 2.266708,0 2.562995,1.037005 0.8,2.8 C 91.037005,60.562995 90,60.266708 90,58 Z M 28.954163,306.91435 c -0.613912,-1.1471 -1.360337,-1.84151 -1.658722,-1.54312 -0.824261,0.82426 0.49605,3.62877 1.708358,3.62877 0.739559,0 0.724341,-0.63946 -0.04964,-2.08565 z M 12,237.5 c 0,-0.825 -0.45,-1.5 -1,-1.5 -0.55,0 -1,0.675 -1,1.5 0,0.825 0.45,1.5 1,1.5 0.55,0 1,-0.675 1,-1.5 z M 113,40 c 0,-0.55 -0.64844,-1 -1.44098,-1 -0.79254,0 -1.7191,0.45 -2.05902,1 -0.33992,0.55 0.30852,1 1.44098,1 C 112.07344,41 113,40.55 113,40 Z M 307.75501,27.75 C 307.27832,26.30257 303,25.415219 303,26.763782 303,28.191835 304.17454,29 306.25,29 c 1.08622,0 1.7383,-0.541596 1.50501,-1.25 z M 140.56729,25.233961 c -0.90636,-0.906367 -3.69481,0.750697 -3.04164,1.807534 0.44804,0.724945 1.10197,0.682518 2.08754,-0.135437 0.78933,-0.655083 1.21867,-1.407526 0.9541,-1.672097 z"
       id="path104"
       inkscape:connector-curvature="0" />
  </g>
</svg>
