<?xml version="1.0" encoding="UTF-8" standalone="no"?>
<!-- Created with Inkscape (http://www.inkscape.org/) -->

<svg
   xmlns:dc="http://purl.org/dc/elements/1.1/"
   xmlns:cc="http://creativecommons.org/ns#"
   xmlns:rdf="http://www.w3.org/1999/02/22-rdf-syntax-ns#"
   xmlns:svg="http://www.w3.org/2000/svg"
   xmlns="http://www.w3.org/2000/svg"
   xmlns:sodipodi="http://sodipodi.sourceforge.net/DTD/sodipodi-0.dtd"
   xmlns:inkscape="http://www.inkscape.org/namespaces/inkscape"
   version="1.1"
   id="svg96"
   width="500"
   height="500"
   viewBox="0 0 500 500"
   sodipodi:docname="spain-vector.svg"
   inkscape:version="0.92.5 (2060ec1f9f, 2020-04-08)">
  <metadata
     id="metadata102">
    <rdf:RDF>
      <cc:Work
         rdf:about="">
        <dc:format>image/svg+xml</dc:format>
        <dc:type
           rdf:resource="http://purl.org/dc/dcmitype/StillImage" />
        <dc:title></dc:title>
      </cc:Work>
    </rdf:RDF>
  </metadata>
  <defs
     id="defs100" />
  <sodipodi:namedview
     pagecolor="#ffffff"
     bordercolor="#666666"
     borderopacity="1"
     objecttolerance="10"
     gridtolerance="10"
     guidetolerance="10"
     inkscape:pageopacity="0"
     inkscape:pageshadow="2"
     inkscape:window-width="1920"
     inkscape:window-height="1016"
     id="namedview98"
     showgrid="false"
     inkscape:zoom="1.185111"
     inkscape:cx="-67.027989"
     inkscape:cy="201.2367"
     inkscape:window-x="0"
     inkscape:window-y="27"
     inkscape:window-maximized="1"
     inkscape:current-layer="svg96" />
  <g
     id="g284"
     transform="matrix(1.730733,0,0,1.6975914,-174.94709,-167.95493)">
    <path
       style="fill:#e0a0a3;stroke-width:0.36506358"
       d="m 236.66018,375.5948 c -21.22155,-1.73939 -40.58508,-7.80196 -58.07758,-18.18364 -21.52838,-12.77694 -38.35056,-30.54968 -49.66134,-52.46752 -7.62068,-14.76722 -12.03821,-29.41326 -14.03257,-46.52404 -0.60388,-5.18112 -0.60187,-21.34047 0.003,-26.49609 2.02742,-17.27222 6.31175,-31.48977 13.99369,-46.43813 7.65538,-14.8967 17.33251,-27.28999 29.74891,-38.09882 20.37582,-17.73773 44.20617,-28.43944 71.23276,-31.98914 6.10932,-0.8024 20.85494,-1.10602 27.19708,-0.56 24.82573,2.13733 47.35796,10.39949 67.06672,24.59214 22.94175,16.52078 39.22765,38.89591 48.16912,66.17934 2.58091,7.87519 4.47983,16.82282 5.58467,26.31461 0.61653,5.29674 0.62338,20.63158 0.0116,26.13313 -4.60109,41.38058 -26.67986,76.45124 -61.83622,98.22279 -17.31818,10.72476 -37.73389,17.40451 -58.65457,19.191 -3.86914,0.33039 -17.25305,0.41063 -20.74562,0.12437 z"
       id="path298"
       inkscape:connector-curvature="0" />
    <path
       style="fill:#fdc000;stroke-width:0.36506358"
       d="m 232.43762,374.54869 c -25.92421,-2.93305 -48.64919,-12.24846 -68.84183,-28.21956 -4.65522,-3.68199 -16.06654,-14.97067 -19.7033,-19.49154 -16.17436,-20.10643 -25.46002,-42.32038 -28.40984,-67.96442 -0.78623,-6.835 -0.59465,-24.27737 0.33786,-30.76074 3.63948,-25.30394 13.70304,-47.78076 29.89899,-66.77903 3.68675,-4.32466 11.61933,-12.11962 16.22091,-15.93952 20.44059,-16.96828 45.90129,-27.42169 72.6175,-29.81461 6.32367,-0.5664 23.34579,-0.25393 28.90635,0.53063 24.95328,3.52074 46.45438,12.65091 65.72081,27.90753 4.73239,3.74746 15.74427,14.63281 19.53529,19.31082 15.43101,19.04141 24.607,40.13032 28.24579,64.91643 0.78307,5.33395 1.11313,23.54826 0.52695,29.07961 -2.74372,25.89051 -12.14875,48.93393 -28.07513,68.78738 -4.33885,5.4087 -15.09602,16.15574 -20.22864,20.20957 -20.364,16.08384 -43.15409,25.38238 -69.21327,28.23957 -6.13165,0.67229 -21.54914,0.6655 -27.53844,-0.0121 z"
       id="path296"
       inkscape:connector-curvature="0" />
    <path
       style="fill:#f9bc06;stroke-width:0.36506358"
       d="m 232.43762,374.54869 c -25.92421,-2.93305 -48.64919,-12.24846 -68.84183,-28.21956 -4.65522,-3.68199 -16.06654,-14.97067 -19.7033,-19.49154 -16.17436,-20.10643 -25.46002,-42.32038 -28.40984,-67.96442 -0.78623,-6.835 -0.59465,-24.27737 0.33786,-30.76074 3.63948,-25.30394 13.70304,-47.78076 29.89899,-66.77903 3.68675,-4.32466 11.61933,-12.11962 16.22091,-15.93952 20.44059,-16.96828 45.90129,-27.42169 72.6175,-29.81461 6.32367,-0.5664 23.34579,-0.25393 28.90635,0.53063 24.95328,3.52074 46.45438,12.65091 65.72081,27.90753 4.73239,3.74746 15.74427,14.63281 19.53529,19.31082 15.43101,19.04141 24.607,40.13032 28.24579,64.91643 0.78307,5.33395 1.11313,23.54826 0.52695,29.07961 -2.74372,25.89051 -12.14875,48.93393 -28.07513,68.78738 -4.33885,5.4087 -15.09602,16.15574 -20.22864,20.20957 -20.364,16.08384 -43.15409,25.38238 -69.21327,28.23957 -6.13165,0.67229 -21.54914,0.6655 -27.53844,-0.0121 z m 125.2817,-65.00028 c 1.27901,-0.20902 1.34589,-0.28547 1.14,-1.3031 -0.30648,-1.51478 0.6222,-2.05757 1.22473,-0.71581 0.43519,0.96908 0.43975,0.97017 0.46928,0.11121 0.0164,-0.47706 -0.25933,-1.07856 -0.61274,-1.33666 -0.5138,-0.37525 -0.55087,-0.56118 -0.18496,-0.92791 0.36803,-0.36885 0.56123,-0.32035 0.98704,0.24779 0.52373,0.69879 0.5355,0.69858 1.09123,-0.0195 0.30899,-0.39925 0.56705,-0.94515 0.57347,-1.21311 0.006,-0.26795 0.34214,-0.90248 0.74604,-1.41005 0.4039,-0.50757 0.73436,-1.32381 0.73436,-1.81387 0,-0.49005 0.30946,-1.16219 0.6877,-1.49363 0.7646,-0.67 1.88255,-3.30219 1.88255,-4.43242 0,-0.40148 0.24785,-0.82398 0.55077,-0.93889 0.30292,-0.11491 0.55077,-0.45504 0.55077,-0.75585 0,-0.30081 0.31552,-1.14083 0.70116,-1.86671 1.18277,-2.22631 1.83524,-4.27302 1.62072,-5.08394 -0.11245,-0.42506 -0.0414,-0.77284 0.15783,-0.77284 0.55749,0 1.36895,-3.21663 1.3725,-5.44055 0.003,-1.49842 0.13563,-1.99338 0.53739,-1.99628 1.0431,-0.008 1.56456,-4.39428 0.56732,-4.77256 -0.65411,-0.24812 -0.76891,-2.85883 -0.14254,-3.2415 0.65364,-0.39933 1.05543,0.63768 0.81833,2.11211 -0.1222,0.75988 -0.0666,1.3611 0.12581,1.3611 0.31476,0 1.20015,-2.78112 1.44439,-4.53701 0.0555,-0.39925 0.35393,-2.27757 0.6631,-4.17404 0.30916,-1.89646 0.65389,-4.83644 0.76607,-6.53328 0.11217,-1.69684 0.34395,-3.98349 0.51504,-5.08144 0.48589,-3.11799 0.21173,-15.94289 -0.46941,-21.95909 -0.98979,-8.74229 -1.14711,-9.57945 -1.91619,-10.1968 -0.38669,-0.3104 -0.47582,-0.44829 -0.19807,-0.30643 0.6394,0.32658 0.47779,-0.94311 -0.69583,-5.46702 -0.53411,-2.05881 -1.11703,-3.48366 -1.57653,-3.85357 -0.59292,-0.47732 -0.69021,-0.87343 -0.52093,-2.12102 0.20439,-1.50631 -0.60973,-4.62297 -1.34521,-5.14981 -0.18088,-0.12957 -0.22549,-0.50192 -0.0991,-0.82744 0.22866,-0.58901 -0.32295,-2.31844 -1.63661,-5.13114 -0.37906,-0.81163 -0.68921,-1.65166 -0.68921,-1.86671 0,-0.21506 -0.24785,-0.48503 -0.55077,-0.59994 -0.30442,-0.11547 -0.55353,-0.66046 -0.55694,-1.21845 -0.003,-0.55524 -0.58155,-2.15285 -1.28477,-3.55025 -0.70323,-1.3974 -1.27876,-2.71957 -1.27896,-2.93817 -1.9e-4,-0.21859 -0.33081,-0.69307 -0.73471,-1.05439 -0.4039,-0.36133 -0.73961,-0.91747 -0.74604,-1.23588 -0.006,-0.31841 -0.26448,-0.90559 -0.57347,-1.30484 -0.55573,-0.71809 -0.5675,-0.7183 -1.09123,-0.0195 -0.42581,0.56814 -0.61901,0.61664 -0.98704,0.24778 -0.36591,-0.36672 -0.32884,-0.55266 0.18496,-0.9279 0.35341,-0.2581 0.62914,-0.85961 0.61274,-1.33667 -0.0295,-0.85895 -0.0341,-0.85787 -0.46928,0.11122 -0.56376,1.25541 -1.52339,0.81397 -1.25439,-0.57704 l 0.18295,-0.94599 H 246.34869 133.68478 l 0.2203,1.08888 c 0.26237,1.29678 -0.27507,1.43069 -1.09257,0.27223 -0.56601,-0.8021 -0.57673,-0.79078 -0.60117,0.63518 -0.0155,0.90671 -0.13834,1.27503 -0.32706,0.98096 -0.35533,-0.55372 -0.7127,-0.2017 -1.58346,1.55976 -0.29605,0.59888 -0.70713,1.41554 -0.91351,1.8148 -2.44451,4.72908 -2.82028,6.22376 -1.77935,7.07772 0.60872,0.49939 0.74471,2.01644 0.21003,2.34309 -0.18741,0.1145 -0.44639,-0.12086 -0.57552,-0.52302 -0.12912,-0.40215 -0.53641,-0.73119 -0.9051,-0.73119 -0.79564,0 -1.30052,1.05174 -0.76093,1.58513 0.61466,0.6076 0.43486,1.31855 -0.33347,1.31855 -0.39198,0 -0.84391,0.20417 -1.00429,0.4537 -0.53059,0.82557 -1.50997,3.82389 -1.76971,5.41791 -0.14062,0.86299 -0.48945,1.93355 -0.77517,2.37901 -0.37021,0.57719 -0.45289,1.37007 -0.28773,2.75919 0.20661,1.73771 0.15331,1.96954 -0.49108,2.13612 -0.65239,0.16864 -1.19722,1.40833 -1.40076,3.18728 -0.0343,0.29944 -0.15135,0.78944 -0.2602,1.08888 -1.14801,3.15808 -2.54385,11.35938 -2.53278,14.88137 0.003,0.89832 -0.22276,3.10331 -0.5013,4.89996 -0.57056,3.68026 -0.65171,14.17948 -0.13325,17.24061 0.18596,1.09795 0.42066,3.3846 0.52155,5.08144 0.28688,4.82481 1.24037,11.10897 2.25794,14.88137 0.51156,1.89646 1.0175,3.83695 1.12432,4.31219 0.10683,0.47525 0.52187,0.94878 0.92233,1.0523 0.64527,0.1668 0.7051,0.40846 0.52595,2.12434 -0.20726,1.98509 0.5348,4.74455 1.42427,5.29636 0.23323,0.14468 0.34404,0.67679 0.24625,1.18246 -0.0978,0.50567 0.0286,1.44895 0.28079,2.09618 0.74301,1.90666 1.85691,4.40181 2.22669,4.98785 0.38906,0.61658 0.43003,0.72194 1.05852,2.72221 0.2509,0.79851 0.85254,2.06083 1.33698,2.80516 0.48444,0.74432 0.8808,1.67384 0.8808,2.06559 0,0.39176 0.1789,0.82159 0.39756,0.95517 0.21867,0.13359 0.70999,0.96336 1.09184,1.84394 0.38184,0.88057 0.94648,1.69671 1.25474,1.81364 0.30826,0.11693 0.56414,0.64429 0.56864,1.17191 l 0.008,0.95931 0.70108,-0.90198 c 0.87612,-1.12717 1.40323,-0.69245 0.86608,0.71427 -0.387,1.01351 -0.35751,1.06059 0.75094,1.19842 1.92377,0.23923 221.72618,0.26838 223.18719,0.0296 z M 128.20277,297.51917 c -0.41581,-0.76803 0.0453,-1.74579 0.64927,-1.37679 0.49893,0.30481 0.53897,1.53568 0.0595,1.82862 -0.19182,0.11719 -0.51075,-0.0861 -0.70874,-0.45183 z m 235.56261,0.40259 c -0.46191,-0.45659 -0.24475,-1.57282 0.30598,-1.57282 0.3427,0 0.55077,0.34279 0.55077,0.9074 0,0.88122 -0.35754,1.15891 -0.85675,0.66542 z m -236.4634,-2.90368 c -0.13463,-0.13308 -0.24479,-0.78641 -0.24479,-1.45184 0,-1.39357 0.92554,-1.70603 1.16471,-0.39321 0.2801,1.53746 -0.21881,2.53811 -0.91992,1.84505 z m 237.47009,-0.25826 c -0.30029,-0.77355 -0.0481,-1.77196 0.49262,-1.94992 0.29969,-0.0986 0.45897,0.22989 0.45897,0.94665 0,1.21121 -0.61795,1.86273 -0.95159,1.00327 z M 121.5495,276.56761 c 0,-0.6987 0.16209,-1.27036 0.36019,-1.27036 0.45529,0 0.89058,1.64543 0.57066,2.15713 -0.48449,0.77491 -0.93085,0.34968 -0.93085,-0.88677 z m 248.94749,0.36296 c 0,-0.29944 0.16523,-0.54444 0.36718,-0.54444 0.20195,0 0.36718,0.245 0.36718,0.54444 0,0.29944 -0.16523,0.54444 -0.36718,0.54444 -0.20195,0 -0.36718,-0.245 -0.36718,-0.54444 z m -248.15223,-3.49844 c 0.0675,-0.4714 0.28792,-0.81625 0.48987,-0.76634 0.54203,0.13395 0.44631,1.27453 -0.12269,1.46202 -0.33585,0.11066 -0.45129,-0.10807 -0.36718,-0.69568 z m -2.45777,0.034 c -0.42685,-0.68272 -0.54989,-2.3244 -0.21308,-2.84312 0.53976,-0.8313 1.14124,-0.0894 1.14124,1.40762 0,1.42112 -0.47645,2.158 -0.92816,1.43551 z m 249.59261,-0.0517 c 0.22694,-0.67301 1.01739,-0.78463 1.01739,-0.14367 0,0.31608 -0.26161,0.57469 -0.58136,0.57469 -0.31976,0 -0.51597,-0.19396 -0.43603,-0.43102 z m -66.91076,-14.0864 c -0.70682,-0.37953 -1.4868,-0.79565 -1.7333,-0.9247 -0.2465,-0.12906 -0.8884,0.10765 -1.42644,0.52601 -0.74156,0.57661 -1.50134,0.76066 -3.14002,0.76066 -2.02283,0 -2.26743,-0.0963 -3.80587,-1.49807 l -1.6441,-1.49807 v -2.84513 c 0,-1.86945 0.20332,-3.26662 0.59289,-4.07416 1.43979,-2.98458 6.00366,-3.55298 8.93707,-1.11305 1.38507,1.15207 1.39631,1.74187 0.0725,3.80527 -0.75728,1.18038 -0.96693,1.84046 -0.76009,2.39316 0.49329,1.31817 1.10554,1.36571 2.06015,0.15997 1.05603,-1.33386 1.63634,-1.40659 3.08536,-0.38665 0.88796,0.62501 1.06643,1.00633 1.06643,2.27848 0,1.56851 -0.803,3.15474 -1.58133,3.12378 -0.24099,-0.01 -1.01647,-0.32796 -1.72329,-0.7075 z m -90.05394,-1.24448 c -0.75909,-0.78373 -1.57275,-2.09039 -1.80813,-2.90368 l -0.42796,-1.47871 -0.25971,1.08888 c -0.2292,0.96099 -0.26481,0.89161 -0.30315,-0.59074 -0.0283,-1.0936 0.14872,-1.83727 0.50733,-2.13146 0.30292,-0.24852 0.54551,-0.79935 0.53909,-1.22407 -0.0109,-0.7192 -0.0452,-0.72861 -0.49945,-0.13703 -0.26828,0.34934 -0.82365,0.63518 -1.23417,0.63518 -0.9884,0 -1.19214,0.64258 -1.19214,3.76 0,3.04913 -0.59827,4.23148 -2.1321,4.21358 -1.28137,-0.015 -2.25191,-0.76076 -2.58312,-1.98499 l -0.26424,-0.97669 -1.54966,1.48661 c -1.3734,1.31752 -1.748,1.48638 -3.29334,1.48458 -4.35694,-0.005 -6.09081,-1.80757 -6.84799,-7.11906 -0.1939,-1.36022 -0.0829,-1.64151 1.22969,-3.11553 1.21977,-1.36981 1.66808,-1.62904 2.89971,-1.67675 2.12758,-0.0824 3.33272,-0.61892 3.15711,-1.40549 -0.0804,-0.36031 0.13976,-1.22677 0.48932,-1.92547 0.78064,-1.56029 2.21935,-1.88009 3.36469,-0.74791 0.64652,0.6391 0.7566,1.20132 0.7566,3.86423 v 3.11633 l 1.23489,-1.25699 c 0.67918,-0.69133 1.85152,-1.45815 2.60519,-1.70403 1.17161,-0.38221 1.57823,-0.35436 2.80409,0.19207 0.78858,0.35151 1.43378,0.78865 1.43378,0.97141 0,0.49114 1.53471,-0.0568 2.43364,-0.86888 0.49125,-0.44379 1.55239,-0.78452 2.85813,-0.91773 l 2.07678,-0.21188 1.61184,1.66288 1.61184,1.66288 -0.62832,1.20211 c -0.34558,0.66116 -0.93367,1.65638 -1.30689,2.21158 -0.76657,1.14041 -0.80465,1.05176 0.79784,1.85738 1.31723,0.66221 1.37242,0.59107 0.79622,-1.02627 -0.3426,-0.96165 -0.24317,-1.44686 0.72435,-3.53486 1.07294,-2.31547 1.2099,-2.4529 3.16474,-3.1759 2.47306,-0.91466 2.52281,-0.91376 4.55985,0.0824 1.41082,0.68991 2.28363,1.62973 3.18238,3.4267 0.38268,0.76514 0.81236,0.50771 1.06724,-0.63942 0.49273,-2.21761 4.59846,-4.17815 6.36025,-3.03711 0.64052,0.41485 1.10736,0.46531 1.87086,0.20221 1.56173,-0.53817 3.82466,0.0364 5.21986,1.32534 1.08521,1.00257 1.23673,1.36835 1.26357,3.05054 0.0168,1.05126 0.0655,2.31971 0.10827,2.81878 0.0753,0.8789 0.0982,0.86949 0.72874,-0.29967 0.57226,-1.06113 0.70862,-1.13841 1.12776,-0.63918 0.77625,0.92458 1.12794,0.30638 1.12794,-1.98273 0,-2.15018 0.002,-2.15435 1.7441,-3.40765 1.87479,-1.34886 4.29916,-1.99758 4.97363,-1.33086 0.29556,0.29217 0.50966,0.0813 0.79094,-0.77887 0.35517,-1.0862 0.52374,-1.18824 2.1312,-1.29017 1.56016,-0.0989 1.78155,-0.017 2.08483,0.77153 0.26646,0.69279 0.69952,0.9356 2.01699,1.1309 2.14353,0.31775 2.62872,0.0378 1.88337,-1.08667 -0.395,-0.59593 -0.5682,-1.73099 -0.56255,-3.68673 0.01,-3.4241 0.66669,-4.59181 2.55289,-4.5388 0.65255,0.0183 1.59826,-0.12143 2.10159,-0.31059 1.26541,-0.47558 3.69087,0.27211 5.05377,1.5579 1.01796,0.96038 1.08859,1.20513 1.10153,3.81719 l 0.0138,2.79102 -1.46872,0.82427 c -0.8078,0.45336 -1.58765,0.86797 -1.73302,0.92135 -0.14537,0.0534 -0.13225,1.15873 0.0292,2.45631 0.25448,2.04587 0.32955,2.21461 0.5651,1.27037 0.52183,-2.09178 0.93583,-2.69769 2.32022,-3.39584 1.9618,-0.98934 3.20052,-1.07659 4.08253,-0.28754 0.6401,0.57261 0.98799,0.61621 2.45296,0.30735 2.28854,-0.48249 3.96478,0.011 5.02186,1.47847 0.68899,0.95648 0.87438,1.80523 1.04769,4.79648 0.31185,5.38229 -0.66403,6.7932 -3.65523,5.28474 l -1.47665,-0.74467 -1.49558,0.77058 c -1.42451,0.73396 -1.5291,0.74058 -2.20133,0.13921 -0.68074,-0.60898 -1.92343,-0.59728 -4.11772,0.0388 -0.35991,0.10433 -0.90501,-0.13673 -1.27493,-0.56379 -0.67413,-0.77828 -1.58454,-1.00318 -1.58454,-0.39145 0,0.19503 -0.39744,0.61201 -0.88319,0.92663 -0.78786,0.51029 -1.02329,0.51417 -2.18121,0.0359 -1.05068,-0.43396 -1.34595,-0.78866 -1.54955,-1.86148 l -0.25153,-1.32536 -1.08851,1.30538 c -2.29407,2.75113 -5.20495,3.03573 -7.53107,0.73633 -1.13039,-1.1174 -1.20211,-1.34078 -1.20211,-3.74389 0,-1.40558 -0.15137,-2.64807 -0.33637,-2.7611 -0.185,-0.11302 -0.73652,-0.0551 -1.22559,0.1287 -0.75032,0.28199 -0.95269,0.71277 -1.29547,2.75762 -0.22343,1.33288 -0.64227,2.77615 -0.93075,3.20726 -0.70757,1.0574 -3.94562,2.16526 -5.08302,1.73909 -0.51901,-0.19446 -1.69313,-0.17207 -2.9662,0.0566 -1.80549,0.32426 -2.20387,0.29191 -2.78275,-0.22595 -0.83429,-0.74634 -1.9039,-0.77324 -2.84248,-0.0715 -0.93977,0.70264 -2.70672,0.7096 -2.92734,0.0115 -0.0946,-0.29944 -0.25126,-0.79399 -0.34806,-1.099 -0.14585,-0.45958 -0.42464,-0.3919 -1.62774,0.39513 -1.63866,1.07194 -2.76795,0.96086 -3.10288,-0.3052 -0.20569,-0.77752 -0.24563,-0.7651 -1.23298,0.38315 l -1.0204,1.1867 -3.57796,-0.34354 c -1.96788,-0.18895 -4.1034,-0.60266 -4.7456,-0.91935 -1.11402,-0.54935 -1.20832,-0.53812 -2.05335,0.24464 -0.78652,0.72855 -1.26253,0.82043 -4.25029,0.82043 h -3.36458 z m 67.96604,-3.14048 c -0.0584,-1.41305 -0.2346,-2.64768 -0.39166,-2.74362 -0.34701,-0.21201 -0.38673,4.72882 -0.0408,5.07081 0.48538,0.4798 0.5369,0.20252 0.43242,-2.32719 z m -41.48123,-0.42525 -0.0471,-2.63146 -0.36107,2.08257 c -0.33136,1.91127 -0.22753,3.18035 0.26021,3.18035 0.10731,0 0.17391,-1.18416 0.14798,-2.63146 z m -5.09337,0.4537 c 0,-0.79851 -0.16524,-1.45184 -0.36718,-1.45184 -0.40624,0 -0.51097,2.2776 -0.1224,2.6617 0.42879,0.42387 0.48958,0.27366 0.48958,-1.20986 z m 10.17994,-1.89904 c -0.0817,-0.65237 -0.15027,-0.20613 -0.15233,0.99164 -0.002,1.19777 0.0648,1.73152 0.14858,1.18612 0.0838,-0.5454 0.0855,-1.5254 0.004,-2.17776 z m -15.68763,0.2391 c 0,-1.00863 -0.13411,-1.27088 -0.60321,-1.17962 -1.4666,0.28533 -1.59283,2.4766 -0.14267,2.4766 0.61056,0 0.74588,-0.2353 0.74588,-1.29698 z m 41.34528,-1.87205 c -0.0987,-1.74297 -0.3455,-3.22373 -0.54838,-3.29058 -0.22633,-0.0746 -0.28697,0.37743 -0.15691,1.16968 0.12252,0.74629 0.0353,1.50165 -0.20664,1.78982 -0.31725,0.37788 -0.28486,0.75212 0.13379,1.54566 0.30382,0.57587 0.55342,1.25121 0.55466,1.50075 0.001,0.24953 0.0924,0.4537 0.20263,0.4537 0.1102,0 0.11959,-1.42607 0.0208,-3.16903 z m -4.62736,1.30979 c 0,-0.37482 -0.24785,-0.68148 -0.55077,-0.68148 -0.37198,0 -0.55077,0.36789 -0.55077,1.13332 0,0.96624 0.0812,1.06671 0.55077,0.68148 0.30292,-0.24852 0.55077,-0.75851 0.55077,-1.13332 z m -67.01021,-0.16729 c 0,-0.6947 -0.18761,-1.05863 -0.54573,-1.05863 -0.60381,0 -0.92029,1.00675 -0.58666,1.86618 0.34881,0.89855 1.13239,0.33975 1.13239,-0.80755 z m 51.95586,-0.67425 c 0,-0.31123 0.16523,-0.56586 0.36718,-0.56586 0.20195,0 0.36718,0.15369 0.36718,0.34153 0,0.18785 -0.16523,0.44249 -0.36718,0.56587 -0.20195,0.12337 -0.36718,-0.0303 -0.36718,-0.34154 z M 119.76117,219.7934 c -0.62963,-0.38466 -0.15692,-2.93274 0.54407,-2.93274 0.34883,0 0.50991,0.45186 0.50991,1.43042 0,1.52981 -0.30271,1.96129 -1.05398,1.50232 z m 252.44933,0.0919 c -0.13464,-0.13309 -0.24479,-0.86808 -0.24479,-1.63332 0,-1.81532 0.96746,-1.92248 1.30489,-0.14454 0.30437,1.60384 -0.26691,2.56193 -1.0601,1.77786 z m -249.67573,-2.17171 c -0.39115,-0.38665 -0.29465,-1.57888 0.1278,-1.57888 0.54288,0 0.88469,1.07406 0.47172,1.48229 -0.19174,0.18953 -0.46152,0.233 -0.59952,0.0966 z m 247.04428,-0.49 c -0.29944,-0.47893 0.1396,-1.15859 0.57614,-0.8919 0.44598,0.27247 0.44308,1.25486 -0.004,1.25486 -0.19003,0 -0.44763,-0.16333 -0.57244,-0.36296 z M 121.5495,213.7755 c 0,-1.23645 0.44636,-1.66168 0.93085,-0.88677 0.31992,0.51169 -0.11537,2.15713 -0.57066,2.15713 -0.1981,0 -0.36019,-0.57166 -0.36019,-1.27036 z m 248.82849,0.0355 c -0.20732,-0.53407 0.03,-0.9429 0.54738,-0.9429 0.16829,0 0.30598,0.32666 0.30598,0.72592 0,0.83224 -0.55931,0.97444 -0.85336,0.21697 z m -5.61485,-16.71046 c -0.27186,-0.7003 -0.0453,-1.67573 0.40976,-1.76443 0.20194,-0.0394 0.41895,0.45926 0.48223,1.10805 0.11634,1.19278 -0.50599,1.65073 -0.89199,0.65638 z m -1.24255,-3.65081 c 0,-0.29944 0.24784,-0.54444 0.55077,-0.54444 0.30292,0 0.55077,0.245 0.55077,0.54444 0,0.29944 -0.24785,0.54444 -0.55077,0.54444 -0.30293,0 -0.55077,-0.245 -0.55077,-0.54444 z"
       id="path294"
       inkscape:connector-curvature="0" />
    <path
       style="fill:#d7580e;stroke-width:0.36506358"
       d="m 232.43762,374.54869 c -25.92421,-2.93305 -48.64919,-12.24846 -68.84183,-28.21956 -4.66508,-3.68979 -16.07593,-14.9806 -19.69876,-19.49154 -5.14526,-6.40658 -11.49385,-15.78093 -11.10669,-16.40017 0.21798,-0.34866 226.82343,-0.40734 227.17598,-0.0588 0.47753,0.47204 -5.71344,9.70602 -10.54835,15.73309 -4.33885,5.4087 -15.09602,16.15574 -20.22864,20.20957 -20.364,16.08384 -43.15409,25.38238 -69.21327,28.23957 -6.13165,0.67229 -21.54914,0.6655 -27.53844,-0.0121 z M 132.69233,179.67098 c 0.94514,-2.4347 8.63131,-13.23818 13.17947,-18.5247 3.67543,-4.27213 11.61422,-12.0547 16.06861,-15.7524 20.44059,-16.96828 45.90129,-27.42169 72.6175,-29.81461 6.32367,-0.5664 23.34579,-0.25393 28.90635,0.53063 24.95328,3.52074 46.45438,12.65091 65.72081,27.90753 4.73995,3.75345 15.75243,14.64135 19.52752,19.30661 5.2238,6.45559 11.67693,15.94346 11.27793,16.58165 -0.10178,0.1628 -51.33187,0.29599 -113.84464,0.29599 -99.57237,0 -113.63403,-0.0658 -113.45355,-0.5307 z"
       id="path292"
       inkscape:connector-curvature="0" />
    <path
       style="fill:#bd1d27;stroke-width:0.36506358"
       d="m 235.74223,374.87958 c -0.90877,-0.0806 -4.10989,-0.4776 -7.11359,-0.88226 -23.59026,-3.17806 -44.26747,-11.83282 -63.75199,-26.68436 -5.324,-4.05807 -17.53734,-16.09933 -21.66749,-21.3622 -3.83131,-4.88206 -10.29489,-14.39837 -10.04788,-14.79345 0.23382,-0.37397 226.21951,-0.38192 226.45331,-0.008 0.25088,0.40126 -6.70949,10.5854 -10.40701,15.22711 -4.02254,5.04974 -15.21074,16.13948 -20.38542,20.20604 -19.26079,15.13619 -40.82211,24.20431 -65.72508,27.64222 -4.22893,0.58381 -23.06968,1.03485 -27.35485,0.65486 z M 132.93206,179.28879 c 0,-0.42219 5.48491,-8.59511 8.03463,-11.97219 6.8642,-9.09158 17.0739,-19.26159 25.92944,-25.82864 18.79551,-13.93826 38.7725,-21.99798 62.97123,-25.40573 6.58613,-0.92748 26.44939,-0.92835 33.04613,-10e-4 25.00738,3.51378 45.21896,11.89357 64.99072,26.94537 5.44783,4.14732 17.59266,16.14726 21.82866,21.56825 2.96528,3.79479 10.11593,14.16582 10.11593,14.67176 0,0.11528 -51.05627,0.2096 -113.45837,0.2096 -62.4021,0 -113.45837,-0.0841 -113.45837,-0.18697 z"
       id="path290"
       inkscape:connector-curvature="0" />
    <path
       style="fill:#c41321;stroke-width:0.36506358"
       d="m 242.35146,374.49784 c -14.21995,-0.90639 -18.08906,-1.43271 -27.90562,-3.79608 -1.71656,-0.41327 -3.24078,-0.95665 -3.38715,-1.20751 -0.14637,-0.25087 -0.6494,-0.38369 -1.11786,-0.29517 -1.23363,0.23312 -10.89741,-3.02213 -16.01486,-5.39461 -2.23219,-1.03486 -2.88616,-1.35195 -4.44832,-2.15687 -0.30292,-0.15609 -1.45953,-0.71193 -2.57025,-1.2352 -5.65057,-2.66206 -10.99093,-5.87045 -17.66833,-10.61482 -3.50923,-2.49335 -12.89324,-10.51 -16.14654,-13.79381 -3.99343,-4.03088 -10.62362,-11.90058 -14.04368,-16.66914 -2.38407,-3.32409 -5.01525,-7.41373 -5.01525,-7.79518 0,-0.17003 50.56057,-0.30915 112.35683,-0.30915 61.79626,0 112.35683,0.13912 112.35683,0.30915 0,0.79673 -5.59695,8.83731 -9.09277,13.06266 -1.26498,1.52895 -3.30725,4.00491 -4.53838,5.50212 -6.22304,7.56798 -18.19623,17.7881 -28.59446,24.40778 -10.8705,6.92033 -30.22316,15.17579 -34.30856,14.63535 -0.82027,-0.10851 -1.28487,-0.10406 -1.03243,0.01 1.24451,0.56177 0.14448,0.92805 -8.53692,2.84264 -6.93666,1.52981 -23.74109,2.91553 -30.29228,2.49796 z m -67.92815,-22.77606 c 0,-0.088 -0.16523,-0.261 -0.36718,-0.38438 -0.20195,-0.12338 -0.36718,-0.0514 -0.36718,0.16006 0,0.21141 0.16523,0.38438 0.36718,0.38438 0.20195,0 0.36718,-0.072 0.36718,-0.16006 z m 144.6686,-0.2029 c 0,-0.19963 -0.0729,-0.36296 -0.16192,-0.36296 -0.0891,0 -0.26404,0.16333 -0.38885,0.36296 -0.12481,0.19963 -0.0519,0.36296 0.16192,0.36296 0.21386,0 0.38885,-0.16333 0.38885,-0.36296 z M 168.18126,346.8004 c 0,-0.19963 -0.17498,-0.36296 -0.38885,-0.36296 -0.21387,0 -0.28673,0.16333 -0.16192,0.36296 0.12481,0.19963 0.2998,0.36296 0.38885,0.36296 0.0891,0 0.16192,-0.16333 0.16192,-0.36296 z m -29.00715,-29.92279 c 0,-0.088 -0.16524,-0.26101 -0.36718,-0.38439 -0.20195,-0.12337 -0.36718,-0.0514 -0.36718,0.16006 0,0.21141 0.16523,0.38439 0.36718,0.38439 0.20194,0 0.36718,-0.072 0.36718,-0.16006 z m 215.167,-0.2029 c 0,-0.19963 -0.0729,-0.36297 -0.16192,-0.36297 -0.0891,0 -0.26404,0.16334 -0.38885,0.36297 -0.12481,0.19962 -0.052,0.36296 0.16192,0.36296 0.21387,0 0.38885,-0.16334 0.38885,-0.36296 z M 134.67616,179.22646 c -0.82707,-0.2148 -0.80959,-0.53178 0.0918,-1.66454 0.4039,-0.50757 0.73436,-1.02816 0.73436,-1.15687 0,-0.25287 3.18568,-4.97511 5.48981,-8.13775 0.78256,-1.07413 2.39279,-3.03412 3.57829,-4.35552 1.18549,-1.3214 3.1755,-3.62754 4.42224,-5.12475 3.86628,-4.643 13.98675,-13.81861 19.68752,-17.84946 4.12951,-2.91986 4.26044,-3.00569 11.71693,-7.68125 1.16513,-0.73058 2.34076,-1.32834 2.61253,-1.32834 0.27177,0 0.88817,-0.29295 1.36979,-0.651 0.48162,-0.35805 1.70183,-1.03703 2.71157,-1.50884 1.00974,-0.47181 2.08374,-0.9988 2.38666,-1.17109 0.30293,-0.1723 1.12908,-0.56845 1.8359,-0.88035 0.70682,-0.3119 2.16909,-0.97445 3.24948,-1.47232 9.53951,-4.3961 28.09359,-9.1378 38.11768,-9.74141 1.78481,-0.10747 5.55834,-0.36153 8.38562,-0.56456 2.82728,-0.20304 6.54497,-0.27716 8.26153,-0.16472 1.71656,0.11244 4.36025,0.28496 5.87487,0.38338 7.25768,0.4716 12.78493,1.16395 17.44101,2.18469 4.87994,1.06982 8.81909,2.04915 10.83179,2.69294 1.11071,0.35528 3.09348,0.98514 4.40615,1.3997 4.49941,1.42097 8.26528,2.88248 12.3005,4.77374 2.22143,1.04116 4.78251,2.23064 5.69128,2.64328 0.90876,0.41265 2.04636,1.04869 2.52797,1.41342 0.48162,0.36473 1.09084,0.66314 1.35382,0.66314 0.26299,0 1.93432,0.91687 3.71408,2.03748 1.77975,1.12061 3.71455,2.30476 4.29956,2.63146 0.585,0.32669 2.07208,1.33076 3.30461,2.23127 1.23253,0.90051 2.90189,2.08294 3.70968,2.62764 0.8078,0.5447 2.64851,2.0129 4.09048,3.26268 1.44196,1.24977 3.17447,2.68065 3.85001,3.17972 1.97842,1.4616 10.30255,9.75826 12.56359,12.52213 1.14317,1.39739 3.11095,3.79612 4.37284,5.3305 2.91642,3.54618 5.49899,7.02732 6.3802,8.60012 0.78847,1.40728 1.15728,2.00125 2.11859,3.41205 0.37831,0.55521 0.56908,1.12687 0.42393,1.27036 -0.28339,0.28014 -222.83253,0.47203 -223.90666,0.19307 z m 4.49795,-5.76096 c 0,-0.31122 -0.16524,-0.46492 -0.36718,-0.34154 -0.20195,0.12338 -0.36718,0.37802 -0.36718,0.56586 0,0.18785 0.16523,0.34154 0.36718,0.34154 0.20194,0 0.36718,-0.25464 0.36718,-0.56586 z m 215.167,0.2029 c 0,-0.19963 -0.17498,-0.36296 -0.38885,-0.36296 -0.21387,0 -0.28673,0.16333 -0.16192,0.36296 0.12481,0.19963 0.29979,0.36296 0.38885,0.36296 0.0891,0 0.16192,-0.16333 0.16192,-0.36296 z m -179.9178,-34.84417 c 0,-0.19963 -0.16523,-0.36296 -0.36718,-0.36296 -0.20195,0 -0.36718,0.16333 -0.36718,0.36296 0,0.19962 0.16523,0.36296 0.36718,0.36296 0.20195,0 0.36718,-0.16334 0.36718,-0.36296 z m 144.6686,0 c 0,-0.19963 -0.17499,-0.36296 -0.38885,-0.36296 -0.21387,0 -0.28673,0.16333 -0.16192,0.36296 0.12481,0.19962 0.29979,0.36296 0.38885,0.36296 0.0891,0 0.16192,-0.16334 0.16192,-0.36296 z"
       id="path288"
       inkscape:connector-curvature="0" />
    <path
       style="fill:#c5121e;stroke-width:0.36506358"
       d="m 248.52466,373.77447 c 0.26505,-0.10485 0.58175,-0.092 0.70376,0.0286 0.12201,0.1206 -0.0949,0.20639 -0.48192,0.19063 -0.42775,-0.0174 -0.51475,-0.10342 -0.22184,-0.21929 z m -10.76294,-0.48465 c -0.8078,-0.15738 -2.2465,-0.19834 -3.19712,-0.091 -1.20049,0.13553 -2.12442,0.009 -3.02497,-0.41306 -1.00779,-0.47273 -1.46626,-0.51841 -2.05853,-0.20507 -0.55081,0.29139 -1.26931,0.29556 -2.59259,0.015 -1.00684,-0.21344 -2.69449,-0.38808 -3.75033,-0.38808 -1.05584,0 -2.24564,-0.22075 -2.64398,-0.49056 -0.39834,-0.2698 -1.58284,-0.58773 -2.63221,-0.7065 -1.04938,-0.11878 -2.45384,-0.50384 -3.12103,-0.8557 l -1.21307,-0.63974 1.63315,-0.23027 c 0.89824,-0.12665 1.69685,-0.41917 1.7747,-0.65003 0.0778,-0.23087 0.45243,-0.41976 0.83239,-0.41976 0.37997,0 0.85856,-0.30978 1.06355,-0.68841 0.31326,-0.57861 0.22059,-0.72614 -0.58103,-0.92503 -0.62203,-0.15432 -1.16741,-0.0455 -1.56811,0.313 -0.33791,0.30229 -1.51641,0.73093 -2.61888,0.95253 -1.10247,0.22161 -2.53957,0.64231 -3.19355,0.93488 -0.9144,0.40908 -1.36695,0.43786 -1.95914,0.12457 -0.93426,-0.49426 -0.75351,-0.71963 0.8347,-1.04072 0.70412,-0.14235 1.21197,-0.46692 1.21197,-0.77458 0,-0.73936 -2.992,-0.57601 -3.8722,0.2114 -0.67927,0.60767 -1.32154,0.51748 -4.31482,-0.6059 -0.46388,-0.1741 -1.1603,-0.31654 -1.54759,-0.31654 -0.38729,0 -0.88102,-0.32667 -1.09718,-0.72592 -0.28618,-0.52859 -0.76881,-0.72592 -1.77538,-0.72592 -0.7603,0 -1.53933,-0.15029 -1.73118,-0.33397 -0.19185,-0.18369 -1.3402,-0.67232 -2.5519,-1.08586 -1.314,-0.44845 -2.53042,-1.15081 -3.01423,-1.74041 -0.73807,-0.89948 -1.1726,-1.04754 -3.42137,-1.1658 -0.3084,-0.0162 -1.13456,-0.55489 -1.83589,-1.19704 -0.70134,-0.64216 -1.77086,-1.22569 -2.3767,-1.29673 -1.14431,-0.13418 -2.21895,-0.80236 -1.29044,-0.80236 0.27981,0 0.87386,-0.33906 1.32011,-0.75347 0.7104,-0.65972 0.98612,-0.70578 2.21569,-0.37018 1.43071,0.3905 2.27736,0.0826 1.81338,-0.65952 -0.35602,-0.56944 -1.79469,-0.48544 -3.54539,0.207 -1.41621,0.56014 -1.54445,0.56014 -1.86157,0 -0.47348,-0.83633 -1.40563,-0.75388 -1.40563,0.12433 0,1.04516 -0.92799,0.89618 -2.26087,-0.36296 -0.63396,-0.59888 -1.29747,-1.08888 -1.47446,-1.08888 -0.177,0 -0.46878,-0.3821 -0.6484,-0.84911 -0.25703,-0.66827 -0.54834,-0.82102 -1.36783,-0.71721 -0.64419,0.0816 -1.3892,-0.13877 -1.95371,-0.57791 -1.03409,-0.80442 -0.71879,-1.5107 0.37341,-0.83645 0.96171,0.5937 1.08982,0.56009 1.08982,-0.28596 0,-0.66867 0.40274,-0.90875 1.25548,-0.74842 0.18565,0.0349 0.12242,-0.19277 -0.14051,-0.50594 -0.3899,-0.46439 -0.58103,-0.4849 -1.03653,-0.11122 -0.30717,0.252 -0.82225,0.46621 -1.14462,0.47602 -0.32237,0.01 -0.9734,0.14819 -1.44674,0.30749 -0.67088,0.22579 -1.08006,0.0818 -1.85599,-0.65302 -0.54746,-0.51847 -1.16407,-0.94267 -1.37025,-0.94267 -0.39867,0 -1.66162,-1.27099 -2.16399,-2.17776 -0.16589,-0.29944 0.17596,-0.082 0.75967,0.48321 1.4353,1.38982 2.26066,1.80035 2.58301,1.28478 0.14158,-0.22646 -0.0136,-0.56168 -0.3449,-0.74494 -0.89646,-0.49592 -0.729,-1.35637 0.34234,-1.75901 1.15371,-0.4336 1.07418,-1.57053 -0.12167,-1.73919 -0.60454,-0.0853 -0.91812,0.1345 -1.18611,0.83127 -0.312,0.8112 -0.47085,0.8908 -1.10654,0.5545 -0.50613,-0.26776 -0.69349,-0.65841 -0.58899,-1.22807 0.13112,-0.71476 0.0257,-0.81129 -0.72995,-0.6685 -0.69364,0.13107 -0.88319,0.39533 -0.88319,1.2313 0,1.05227 -0.0429,1.03036 -3.76359,-1.92134 -4.97023,-3.94299 -14.22819,-13.18747 -14.22819,-14.20747 0,-0.0985 -0.70223,-0.89253 -1.56051,-1.76443 l -1.56052,-1.58528 1.19334,-0.11374 c 0.65633,-0.0625 1.19333,-0.25336 1.19333,-0.42401 0,-0.17065 0.10978,-0.59308 0.24396,-0.93873 0.20517,-0.52851 0.0907,-0.59043 -0.71967,-0.38938 -0.74338,0.18444 -1.05428,0.0716 -1.36028,-0.49354 -0.33947,-0.62704 -0.25854,-0.78452 0.56155,-1.09274 0.70486,-0.26491 0.92718,-0.57488 0.84093,-1.17248 -0.17063,-1.1821 -1.32077,-1.26073 -1.75941,-0.12027 -0.39208,1.01941 -1.27136,1.23257 -1.73601,0.42086 -0.1615,-0.28212 -0.77266,-0.56796 -1.35814,-0.63518 -1.20265,-0.13809 -1.9202,-1.00027 -1.57422,-1.89151 0.12758,-0.32867 0.22488,-0.6367 0.2162,-0.68452 -0.009,-0.0478 0.16409,-0.55454 0.38391,-1.12607 0.38984,-1.01357 0.37468,-1.03294 -0.616,-0.78716 -1.31838,0.3271 -1.33502,0.35329 -0.78113,1.23001 0.25879,0.40962 0.34155,0.87225 0.18392,1.02807 -0.35864,0.35451 -1.6859,-1.30846 -1.69692,-2.12615 -0.0136,-1.00735 -0.42446,-1.75375 -0.9654,-1.75375 -0.28132,0 -0.51149,-0.24499 -0.51149,-0.54444 0,-0.29944 -0.16098,-0.54444 -0.35775,-0.54444 -0.19676,0 -0.61408,-0.48999 -0.92737,-1.08888 l -0.56963,-1.08888 H 246.381 c 61.80144,0 112.36626,0.0958 112.36626,0.21289 0,0.43429 -2.31493,3.38148 -2.80083,3.56579 -0.27708,0.10511 -0.50928,0.56372 -0.516,1.01916 -0.0137,0.92829 -1.33642,2.70105 -1.72717,2.3148 -0.13876,-0.13717 -0.0406,-0.58455 0.21821,-0.99417 0.54793,-0.86728 0.55315,-0.8596 -0.80446,-1.182 -0.79857,-0.18963 -0.97172,-0.13821 -0.74468,0.22117 0.1627,0.25753 0.33881,0.63158 0.39136,0.83121 0.54732,2.07939 0.53155,2.43808 -0.14044,3.19443 -0.39,0.43897 -1.1131,1.40951 -1.6069,2.15675 -0.95634,1.44721 -2.17802,1.98499 -1.44857,0.63766 0.21616,-0.39926 0.51112,-0.7272 0.65548,-0.72875 0.39189,-0.004 1.15338,-1.78565 0.84407,-1.97462 -0.14686,-0.0897 -0.54272,0.15517 -0.87969,0.5442 -0.82511,0.95259 -1.30206,0.8902 -1.73155,-0.22648 -0.43864,-1.14046 -1.58879,-1.06183 -1.75941,0.12027 -0.0863,0.5976 0.13606,0.90757 0.84093,1.17248 0.82009,0.30822 0.90102,0.4657 0.56154,1.09274 -0.28916,0.53409 -0.62909,0.67495 -1.25441,0.51981 -0.75732,-0.18789 -0.83704,-0.10562 -0.68076,0.70252 0.13815,0.71437 0.43046,0.93967 1.33143,1.0262 l 1.15442,0.11087 -1.6523,1.73261 c -0.90877,0.95294 -2.148,2.40269 -2.75385,3.22166 -1.36727,1.84825 -9.08989,9.62382 -10.83178,10.90604 -0.70682,0.5203 -1.94605,1.55272 -2.75385,2.29427 -1.58115,1.45148 -2.78359,2.35267 -3.13913,2.35267 -0.12204,0 -0.14913,-0.49 -0.0602,-1.08888 0.0905,-0.60953 -0.005,-1.08888 -0.21715,-1.08888 -0.20836,0 -0.66492,-0.10852 -1.01459,-0.24116 -0.53465,-0.20281 -0.59729,-0.0897 -0.3939,0.7114 0.18658,0.73484 0.0725,1.04217 -0.49928,1.34465 -0.63432,0.33557 -0.79364,0.25557 -1.10544,-0.55509 -0.26799,-0.69677 -0.58156,-0.91654 -1.18611,-0.83127 -1.19584,0.16866 -1.27538,1.30559 -0.12167,1.73919 1.04017,0.39092 1.2565,1.26592 0.3939,1.59314 -0.51614,0.19578 -0.80333,1.32058 -0.33718,1.32058 0.11747,0 0.94363,-0.59134 1.83589,-1.31408 0.89227,-0.72275 1.62231,-1.148 1.62231,-0.945 0,0.35035 -1.16576,1.39687 -3.66766,3.2925 -0.71333,0.54047 -1.3559,0.76084 -1.7576,0.60277 -0.34826,-0.13704 -1.04114,-0.32593 -1.53974,-0.41974 -0.4986,-0.0938 -1.09629,-0.32625 -1.3282,-0.51651 -0.27893,-0.22883 -0.58349,-0.15318 -0.89971,0.22346 -0.26293,0.31317 -0.32616,0.54084 -0.14052,0.50594 0.85274,-0.16033 1.25549,0.0797 1.25549,0.74842 0,0.84605 0.1281,0.87966 1.08982,0.28596 1.07502,-0.66365 1.3434,-0.045 0.33912,0.78177 -0.483,0.39761 -1.41517,0.72835 -2.0715,0.735 -0.79766,0.008 -1.19334,0.18836 -1.19334,0.54374 0,0.29242 -0.37177,0.72459 -0.82615,0.96039 -0.45438,0.23579 -0.95189,0.63857 -1.10557,0.89507 -0.5432,0.90659 -4.4133,2.69431 -5.83272,2.69431 -0.98681,0 -1.33901,0.13649 -1.20996,0.46891 0.26662,0.68683 -1.87204,2.10235 -3.31418,2.19355 -0.80777,0.0511 -1.56425,0.42023 -2.15719,1.05267 -0.50224,0.5357 -1.38163,1.06839 -1.9542,1.18377 -0.57257,0.11537 -1.86719,0.61052 -2.87693,1.10032 -1.00975,0.4898 -2.32995,1.00122 -2.9338,1.13649 -0.60385,0.13526 -1.31788,0.46339 -1.58674,0.72916 -0.26886,0.26577 -0.85706,0.48322 -1.30712,0.48322 -0.45006,0 -0.97983,0.15968 -1.17726,0.35485 -0.19744,0.19517 -0.99694,0.43559 -1.77666,0.53427 -0.77972,0.0987 -1.50528,0.26602 -1.61235,0.37186 -0.10707,0.10585 -0.48375,-0.0662 -0.83706,-0.38223 -0.92948,-0.8315 -4.12351,-0.89604 -4.29158,-0.0867 -0.0946,0.4555 0.17469,0.63985 1.06038,0.72592 1.30904,0.12721 1.80277,0.80269 0.85068,1.16384 -0.33832,0.12833 -1.13752,-0.0932 -1.80296,-0.49972 -0.85049,-0.51959 -1.83179,-0.73023 -3.40185,-0.73023 -1.51346,0 -2.35015,-0.17102 -2.66367,-0.54444 -0.52992,-0.63118 -1.6826,-0.72031 -2.03458,-0.15733 -0.32064,0.51285 -0.16553,0.62872 1.05859,0.79077 0.56662,0.075 1.14248,0.31593 1.27969,0.53538 0.1372,0.21945 0.73187,0.45457 1.32149,0.52249 0.58961,0.0679 1.13255,0.30601 1.20651,0.52909 0.18229,0.54973 -1.99741,1.49899 -3.4984,1.52356 -0.66962,0.011 -1.70231,0.12519 -2.29487,0.25384 -0.67249,0.14601 -1.0774,0.0867 -1.0774,-0.15788 0,-0.21549 -0.50946,-0.3918 -1.13213,-0.3918 -0.74652,0 -1.07748,0.15454 -0.97165,0.4537 0.0883,0.24953 0.42003,0.40854 0.73727,0.35333 0.31722,-0.0552 0.68161,0.0673 0.80973,0.27222 0.14646,0.23427 -0.49073,0.39653 -1.71642,0.43708 -1.07215,0.0355 -2.99471,0.0994 -4.27237,0.1421 -1.27765,0.0427 -3.01257,0.25298 -3.85538,0.46734 -2.2086,0.56172 -9.37147,0.71784 -9.56918,0.20856 -0.17248,-0.44433 -3.10104,-0.44684 -4.68847,-0.004 -0.53655,0.14968 -1.28109,0.11049 -1.65455,-0.0871 -0.79562,-0.42091 -4.24078,-0.121 -3.95013,0.34388 0.23471,0.37539 -1.63957,0.34852 -3.70079,-0.0531 z m -14.50358,-1.98385 c 0,-0.68197 -1.67931,-0.75116 -1.93989,-0.0799 -0.11998,0.30907 0.18123,0.49768 0.87867,0.55021 0.73902,0.0557 1.06122,-0.0871 1.06122,-0.47028 z m -0.64256,-2.82486 c -0.0505,-0.14633 -0.17441,-0.26606 -0.27539,-0.26606 -0.10097,0 -0.39985,0 -0.66418,0 -0.26432,0 -0.79081,0.22423 -1.16997,0.4983 -0.61389,0.44372 -0.53109,0.47286 0.75597,0.26606 0.79495,-0.12773 1.40405,-0.35196 1.35357,-0.4983 z m 49.66098,0.0969 c -0.12481,-0.19963 -0.71287,-0.36296 -1.3068,-0.36296 -0.59392,0 -1.07986,0.16333 -1.07986,0.36296 0,0.19963 0.58806,0.36296 1.30679,0.36296 0.7777,0 1.21492,-0.14696 1.07987,-0.36296 z m -72.82829,-6.38649 c 0.75699,-0.46247 0.26195,-1.23568 -0.79114,-1.23568 -0.60584,0 -1.10153,0.15233 -1.10153,0.33851 0,0.18617 -0.33047,0.44217 -0.73436,0.5689 -0.4039,0.12672 -0.73436,0.40359 -0.73436,0.61529 0,0.37273 2.65216,0.14627 3.36139,-0.28702 z m 97.24571,0.25551 c 0,-0.17798 -0.41308,-0.42609 -0.91795,-0.55135 -0.50487,-0.12526 -0.91795,-0.38797 -0.91795,-0.58379 0,-0.19582 -0.41308,-0.35605 -0.91795,-0.35605 -1.60676,0 -1.02504,0.94427 0.82616,1.34103 0.95925,0.2056 1.7854,0.39631 1.83589,0.4238 0.0505,0.0275 0.0918,-0.0956 0.0918,-0.27364 z m 2.20307,-1.18872 c 0,-0.16636 -0.15548,-0.30247 -0.34551,-0.30247 -0.19003,0 -0.43061,0.13611 -0.53461,0.30247 -0.10401,0.16636 0.0515,0.30247 0.34551,0.30247 0.29403,0 0.53461,-0.13611 0.53461,-0.30247 z m -110.88811,-2.11727 c 0,-0.19962 -0.17499,-0.36296 -0.38885,-0.36296 -0.21387,0 -0.28673,0.16334 -0.16192,0.36296 0.12481,0.19963 0.29979,0.36296 0.38885,0.36296 0.0891,0 0.16192,-0.16333 0.16192,-0.36296 z m 117.31375,0 c 0.12481,-0.19962 0.0519,-0.36296 -0.16192,-0.36296 -0.21387,0 -0.38885,0.16334 -0.38885,0.36296 0,0.19963 0.0729,0.36296 0.16192,0.36296 0.0891,0 0.26404,-0.16333 0.38885,-0.36296 z m 5.10589,-2.8376 c -0.38486,-0.0635 -1.22041,-0.3493 -1.85677,-0.63518 -1.38164,-0.62068 -2.92486,-0.67546 -3.27449,-0.11624 -0.41834,0.66911 0.58574,0.98717 1.94511,0.61614 1.09761,-0.29958 1.38116,-0.23978 2.00584,0.42303 0.61117,0.64848 0.8197,0.69643 1.30379,0.2998 0.51614,-0.42289 0.50326,-0.48419 -0.12348,-0.58755 z M 164.35842,341.17452 c 0.0544,-3.03233 -0.5835,-4.08657 -1.31767,-2.17776 -0.19195,0.49907 -0.55963,0.90489 -0.81706,0.90184 -0.32413,-0.004 -0.2987,-0.11376 0.0827,-0.3574 0.32551,-0.20795 0.37318,-0.35412 0.11654,-0.35741 -0.23882,-0.003 -0.53358,-0.315 -0.65502,-0.6932 -0.30138,-0.93865 -2.67922,-1.24372 -2.95675,-0.37934 -0.32625,1.01611 0.20895,1.79256 1.23965,1.79846 1.3988,0.008 1.78805,0.36694 2.08293,1.92067 0.23227,1.22392 0.37114,1.3676 1.22703,1.26953 0.89328,-0.10236 0.96753,-0.24566 0.99765,-1.92539 z m 166.21534,0.21577 c 0.23015,-0.60272 0.90912,-1.291 1.59032,-1.61211 0.78252,-0.36887 1.15591,-0.78415 1.0927,-1.21532 -0.0797,-0.54338 -0.51257,-0.67327 -2.54071,-0.76231 l -2.44468,-0.10732 v 2.29666 c 0,2.20867 0.0364,2.29964 0.95038,2.37441 0.74573,0.061 1.03686,-0.14873 1.35199,-0.97401 z m 5.64279,-4.93426 c 0.11624,-0.29944 0.10462,-0.81937 -0.0258,-1.1554 -0.21428,-0.55199 -0.31098,-0.538 -1.00179,0.14487 -0.79514,0.78601 -0.65883,1.55497 0.27564,1.55497 0.29735,0 0.63574,-0.24499 0.75198,-0.54444 z m -177.94913,-0.32412 c 0,-0.67122 -1.12047,-1.0727 -1.61884,-0.58006 -0.28122,0.27799 -0.23723,0.48826 0.1532,0.73226 0.79713,0.49817 1.46564,0.42875 1.46564,-0.1522 z m -2.83417,-3.07254 c -0.9384,-1.62958 -1.9948,-1.36554 -1.97243,0.49298 0.004,0.29773 2.17064,0.89977 2.5232,0.70098 0.0568,-0.032 -0.19105,-0.5693 -0.55077,-1.19396 z m 183.71158,0.0393 c 0.0454,-0.88918 -0.55476,-1.07167 -1.25335,-0.38111 -0.73279,0.72437 -0.52242,1.44122 0.38554,1.31376 0.56098,-0.0788 0.83953,-0.37811 0.86781,-0.93265 z M 152.68825,330.4073 c 0.0908,-1.07777 -0.0311,-1.37521 -0.64257,-1.56704 -0.41506,-0.13022 -0.75719,-0.42993 -0.76028,-0.66601 -0.003,-0.25368 -0.1512,-0.20657 -0.36156,0.1152 -0.24648,0.37702 -0.35766,0.40216 -0.36156,0.0818 -0.003,-0.25448 0.40746,-0.61794 0.91233,-0.80768 1.93099,-0.72573 0.86449,-1.35627 -2.20308,-1.30253 -1.7036,0.0298 -1.84402,0.10154 -1.94862,0.99491 -0.10177,0.86912 0.0322,0.98695 1.37807,1.21172 1.2236,0.20435 1.52962,0.42212 1.70737,1.21502 0.47721,2.12873 0.57278,2.27954 1.37318,2.16682 0.62401,-0.0879 0.81868,-0.3975 0.90672,-1.44217 z m 192.20766,-2.43592 c 0.18403,-0.18191 0.27608,-0.63392 0.20456,-1.00448 -0.10876,-0.56356 -0.53469,-0.69128 -2.60469,-0.78105 -2.31742,-0.10051 -2.47466,-0.058 -2.47466,0.66916 0,0.47123 0.28869,0.85111 0.73436,0.96631 0.4039,0.10441 0.73436,0.34376 0.73436,0.53188 0,0.18813 0.16523,0.24111 0.36718,0.11773 0.20195,-0.12338 0.36718,-0.0627 0.36718,0.13472 0,0.40885 2.12738,-0.0962 2.67171,-0.63427 z m 11.83186,-16.01639 c 0.40921,-0.17312 -48.44542,-0.30082 -110.33734,-0.28841 -61.08944,0.0122 -110.4934,0.14286 -109.78658,0.29025 1.8138,0.37824 219.22984,0.37641 220.12392,-0.002 z m -214.55708,11.07132 c -0.47233,-0.49229 -0.8028,-1.06111 -0.73436,-1.26406 0.0685,-0.20294 0.58587,0.20267 1.14984,0.90135 1.17076,1.45043 0.87548,1.70821 -0.41548,0.36271 z M 134.7219,179.17803 c -0.92133,-0.38085 -0.22157,-1.74183 1.02603,-1.99555 1.78481,-0.36297 220.6715,-0.27635 221.64018,0.0877 1.2182,0.45784 1.52773,1.71267 0.49034,1.98784 -1.11884,0.29679 -222.437,0.21745 -223.15655,-0.08 z m 222.55664,-0.7911 c 0,-0.24111 -37.21502,-0.36174 -110.88811,-0.35943 -72.95276,0.002 -110.88812,0.12644 -110.88812,0.36291 0,0.23648 37.933,0.35943 110.88812,0.35943 73.67074,0 110.88811,-0.1218 110.88811,-0.36291 z m -220.218,-2.42203 c -0.2537,-0.0994 -0.34109,-0.37096 -0.19421,-0.60344 0.14687,-0.23248 0.31294,-0.71398 0.36903,-1.06999 0.13152,-0.83478 1.19272,-2.43787 1.6138,-2.43787 0.47142,0 0.39837,0.87112 -0.11567,1.37925 -0.55164,0.5453 -0.098,1.0234 1.29355,1.36326 0.88083,0.21513 1.01871,0.15084 0.91795,-0.42802 -0.0652,-0.37464 -0.36642,-0.88014 -0.66935,-1.12333 -0.30292,-0.24318 -0.42103,-0.44735 -0.26246,-0.4537 0.15856,-0.006 0.1081,-0.34437 -0.11214,-0.75117 -0.62382,-1.15223 -0.11478,-2.16405 1.08874,-2.16405 0.56752,0 1.23753,-0.245 1.48894,-0.54444 0.68615,-0.81726 1.44339,-0.65754 1.84605,0.38937 0.43864,1.14045 1.58878,1.06183 1.75941,-0.12027 0.0863,-0.59761 -0.13607,-0.90757 -0.84093,-1.17249 -0.82009,-0.30821 -0.90102,-0.4657 -0.56155,-1.09273 0.306,-0.56518 0.6169,-0.67798 1.36028,-0.49355 0.81039,0.20106 0.92484,0.13914 0.71967,-0.38937 -0.13418,-0.34565 -0.24396,-0.76808 -0.24396,-0.93873 0,-0.17066 -0.537,-0.36146 -1.19333,-0.42402 l -1.19334,-0.11373 1.56052,-1.58529 c 0.85828,-0.8719 1.56051,-1.66589 1.56051,-1.76443 0,-0.82466 7.93005,-8.95856 12.11691,-12.42838 2.69842,-2.23628 5.61482,-4.73733 6.97641,-5.98283 0.50487,-0.46183 1.41363,-1.13383 2.01948,-1.49333 0.60585,-0.35951 1.45925,-0.96558 1.89645,-1.34682 0.57852,-0.50447 1.02832,-0.6146 1.65231,-0.40454 0.47157,0.15875 0.98734,0.29667 1.14617,0.30648 0.15883,0.01 0.40667,0.19726 0.55077,0.41654 0.27968,0.42562 1.74404,0.43503 2.17003,0.0139 0.14085,-0.13923 -0.18007,-0.68429 -0.71314,-1.21125 -0.82301,-0.81355 -1.05685,-0.88623 -1.54992,-0.48172 -0.86551,0.71006 -1.15328,0.12942 -0.36344,-0.73331 0.46808,-0.51128 1.03826,-0.71285 1.80305,-0.6374 0.885,0.0873 1.1405,-0.0414 1.22393,-0.61671 0.058,-0.39987 0.5537,-1.01181 1.10154,-1.35987 4.27331,-2.71492 5.15877,-3.17388 6.1366,-3.18078 0.68856,-0.005 1.42572,-0.34562 1.96623,-0.90891 0.90147,-0.93946 1.52197,-1.15887 1.52197,-0.53817 0,0.19963 0.18546,0.36296 0.41214,0.36296 0.30315,0 0.30399,-0.12881 0.003,-0.48709 -0.57378,-0.68328 -0.14876,-0.96475 1.45665,-0.96475 1.10885,0 1.53375,-0.20994 2.14652,-1.06061 0.46029,-0.63899 1.45549,-1.29966 2.50346,-1.66195 0.95671,-0.33073 2.25438,-0.84742 2.88372,-1.14818 0.62935,-0.30077 1.4555,-0.51407 1.8359,-0.47402 1.19041,0.12535 1.60947,0.005 1.61272,-0.46446 0.004,-0.52802 3.73099,-1.70302 5.27092,-1.6616 0.57833,0.0156 1.15664,-0.11464 1.28513,-0.28931 0.37564,-0.51065 1.39642,-0.35805 2.15714,0.32247 0.72191,0.64582 2.47963,0.85943 2.80392,0.34075 0.32627,-0.52185 -0.30419,-1.09443 -1.34364,-1.22028 -1.31858,-0.15965 -1.39746,-0.75658 -0.15695,-1.18783 0.73694,-0.2562 1.13231,-0.19751 1.62716,0.24151 0.35953,0.31896 1.31461,0.69739 2.1224,0.84097 0.80779,0.14357 2.0785,0.4979 2.8238,0.7874 0.74529,0.2895 1.64869,0.47047 2.00754,0.40215 0.62333,-0.11866 0.62352,-0.14839 0.004,-0.66595 -0.35653,-0.29796 -0.9302,-0.81532 -1.27482,-1.1497 -0.34461,-0.33438 -1.28675,-0.66104 -2.09365,-0.72592 l -1.46709,-0.11796 1.28513,-0.69374 c 1.00048,-0.54008 2.07795,-0.70086 4.86453,-0.72592 3.03957,-0.0273 3.5795,-0.12077 3.58,-0.61957 7.4e-4,-0.55265 1.87075,-1.09691 3.75695,-1.09333 0.34943,6.5e-4 0.73095,-0.15173 0.84782,-0.33866 0.30573,-0.489 0.77029,-0.4197 1.40724,0.20993 0.49679,0.49109 0.70443,0.46748 1.9445,-0.22102 1.23665,-0.6866 1.5899,-0.72737 3.23363,-0.37321 1.43368,0.3089 2.37769,0.28385 4.23198,-0.11232 2.10492,-0.44971 2.43785,-0.44499 2.82028,0.04 0.34224,0.43401 1.38183,0.55779 4.93249,0.58726 2.54966,0.0212 4.54938,-0.11199 4.61546,-0.30732 0.0662,-0.19586 2.21701,-0.33581 4.98135,-0.32413 3.68131,0.0155 5.13273,0.15943 5.96629,0.59148 0.71521,0.3707 1.37525,0.46894 1.88195,0.2801 0.42923,-0.15996 1.42061,-0.1488 2.20308,0.0248 0.78246,0.17359 1.91835,0.30352 2.5242,0.28871 3.35569,-0.082 4.2026,0.45941 1.19333,0.76288 -0.15146,0.0153 -0.27538,0.1911 -0.27538,0.39073 0,0.48937 1.72912,0.46441 2.03787,-0.0294 0.14611,-0.2337 0.63745,-0.2885 1.215,-0.13552 0.53333,0.14127 1.73667,0.3025 2.67408,0.35829 1.94389,0.11568 3.96847,1.17917 3.18264,1.67181 -0.26449,0.16581 -0.93527,0.30397 -1.49063,0.30703 -0.65026,0.004 -1.00974,0.19938 -1.00974,0.55 0,0.926 4.05413,0.74115 5.31922,-0.24253 0.74361,-0.57821 1.16492,-0.69169 1.58818,-0.42777 1.11565,0.69565 0.91136,1.21474 -0.47809,1.21474 -1.08034,0 -1.31884,0.12409 -1.22079,0.63518 0.1708,0.8903 2.01509,1.0365 2.91539,0.2311 0.84697,-0.7577 2.15711,-0.93525 2.15711,-0.29234 0,0.31065 0.4417,0.40247 1.40807,0.29273 0.84429,-0.0959 1.83663,0.061 2.47846,0.39187 0.58871,0.30348 1.37134,0.55279 1.73918,0.55402 0.36783,0.001 0.91664,0.24724 1.21956,0.54668 0.30292,0.29944 0.96784,0.54444 1.4776,0.54444 0.50976,0 1.36693,0.30978 1.90483,0.68839 0.5379,0.37862 1.69878,0.88025 2.57973,1.11474 0.91798,0.24435 2.0331,0.8932 2.61222,1.51997 0.55576,0.60149 1.32054,1.06104 1.69951,1.02122 1.5476,-0.1626 2.21715,0.0696 3.42371,1.18726 0.69628,0.64498 1.71327,1.22319 2.25997,1.2849 1.17042,0.13212 5.10278,2.16537 5.10278,2.63842 0,0.17951 0.47469,0.56903 1.05487,0.86561 0.58017,0.29657 1.13638,0.84735 1.236,1.22394 0.13644,0.51573 0.44248,0.65154 1.24,0.55027 0.66352,-0.0842 1.39955,0.13057 1.97133,0.57535 1.03409,0.80442 0.71879,1.51071 -0.37341,0.83646 -0.96172,-0.5937 -1.08982,-0.56009 -1.08982,0.28596 0,0.66866 -0.40275,0.90875 -1.25549,0.74842 -0.18564,-0.0349 -0.11829,0.19767 0.14967,0.51684 0.33801,0.4026 0.60441,0.46444 0.86995,0.20196 0.21051,-0.20809 0.75302,-0.37834 1.20558,-0.37834 0.45256,0 0.92496,-0.16334 1.04977,-0.36296 0.36943,-0.59089 1.29154,-0.41797 2.41942,0.4537 0.58118,0.44916 1.55511,1.19658 2.16428,1.66092 0.60917,0.46435 1.10758,1.02365 1.10758,1.24289 0,0.21924 -0.37177,0.0639 -0.82615,-0.34521 -0.45439,-0.40911 -1.19792,-0.93332 -1.65231,-1.16492 -0.66995,-0.34147 -0.82615,-0.32307 -0.82615,0.0973 0,0.28511 0.24784,0.61239 0.55077,0.7273 0.86928,0.32974 0.64268,1.30401 -0.3939,1.69359 -1.15371,0.4336 -1.07417,1.57053 0.12167,1.73919 0.60455,0.0853 0.91812,-0.1345 1.18611,-0.83127 0.3118,-0.81067 0.47112,-0.89067 1.10544,-0.55509 0.57175,0.30248 0.68586,0.6098 0.49928,1.34465 -0.20339,0.80108 -0.14075,0.91421 0.3939,0.7114 0.34967,-0.13264 0.80623,-0.24116 1.01459,-0.24116 0.21324,0 0.30714,-0.48275 0.21483,-1.10447 -0.22098,-1.48837 0.0694,-1.33772 4.36465,2.26418 7.34949,6.16316 13.6445,12.77822 13.21437,13.88624 -0.11342,0.29216 -0.55006,0.40226 -1.14753,0.28936 -0.60436,-0.1142 -1.12925,0.0218 -1.40586,0.36429 -0.24278,0.3006 -0.90754,0.65382 -1.47724,0.78494 -1.59262,0.36655 -0.96335,1.06957 1.06011,1.18435 2.70405,0.15339 3.46392,-0.10133 3.46392,-1.16112 0,-1.24186 0.45367,-1.13017 1.87084,0.46062 l 1.21256,1.3611 -1.13561,0.11086 c -0.88075,0.086 -1.17533,0.31629 -1.31262,1.02621 -0.15628,0.80814 -0.0766,0.89041 0.68076,0.70252 0.62532,-0.15515 0.96525,-0.0143 1.25441,0.51981 0.33948,0.62703 0.25855,0.78452 -0.56154,1.09273 -0.70487,0.26492 -0.92719,0.57488 -0.84093,1.17249 0.17062,1.1821 1.32077,1.26072 1.75941,0.12027 0.41614,-1.08198 0.9648,-1.17772 1.90893,-0.33312 1.0895,0.97466 0.86399,-0.28935 -0.26681,-1.49548 -0.51606,-0.55044 -0.83286,-1.10501 -0.70401,-1.23237 0.2234,-0.22083 1.18835,0.79192 3.03915,3.18969 0.7266,0.94135 0.79559,1.27686 0.48857,2.37604 -0.19663,0.70395 -0.26798,1.27991 -0.15856,1.27991 0.10942,0 -0.0153,0.25527 -0.27731,0.56726 -0.41917,0.49927 -0.34754,0.53666 0.59761,0.31191 1.39496,-0.33173 1.38719,-0.32069 0.83781,-1.19028 -0.69193,-1.09524 -0.0128,-1.4627 0.78092,-0.42254 0.64652,0.84726 1.15838,3.10303 0.78734,3.4698 -0.23397,0.23128 -217.83821,0.15488 -218.42919,-0.0767 z m 15.24022,-12.0795 c 0.0505,-0.009 0.0918,-0.1843 0.0918,-0.38887 0,-0.20456 -0.41308,-0.52719 -0.91795,-0.71693 -0.50487,-0.18975 -0.91542,-0.55321 -0.91233,-0.80768 0.004,-0.3204 0.11508,-0.29526 0.36156,0.0818 0.21036,0.32176 0.35823,0.36888 0.36156,0.1152 0.003,-0.23609 0.33608,-0.53292 0.73998,-0.65964 0.53356,-0.16741 0.73282,-0.54625 0.72873,-1.38556 -0.007,-1.47514 -0.44263,-2.14831 -1.20308,-1.85985 -0.59025,0.2239 -0.7136,0.4826 -1.14268,2.39665 -0.1771,0.79002 -0.48438,1.01077 -1.68643,1.21152 -1.20491,0.20123 -1.46987,0.3924 -1.46987,1.06049 0,0.44825 0.12392,0.93922 0.27538,1.09105 0.20264,0.20313 3.42827,0.10978 4.77333,-0.13814 z m 189.32267,-4.18888 c -0.1158,-0.2983 -0.36116,-0.45034 -0.54524,-0.33788 -0.38501,0.23522 -0.0759,0.88023 0.42179,0.88023 0.1837,0 0.23925,-0.24406 0.12345,-0.54235 z m -186.27236,-2.27059 c 0.27837,-0.54897 0.55813,-1.09579 0.62168,-1.21515 0.0636,-0.11935 -0.4922,-0.11935 -1.23502,0 -0.74283,0.11936 -1.33499,0.38035 -1.31593,0.57997 0.17789,1.86318 1.14511,2.18162 1.92927,0.63518 z m 183.74784,-0.0949 c 0.003,-0.68946 -0.21299,-0.93295 -0.91369,-1.02876 -1.206,-0.1649 -1.83589,-0.70637 -1.83589,-1.57816 0,-1.12191 -0.82619,-1.75225 -1.58129,-1.20645 -0.92464,0.66834 -0.77076,1.00803 0.87843,1.93915 0.92383,0.52157 1.64005,1.25634 1.87553,1.92407 0.46801,1.3271 1.57058,1.29225 1.57691,-0.0498 z m -181.41229,-2.39391 c 0.6873,-0.26071 0.78401,-1.23399 0.12183,-1.22597 -0.77501,0.009 -1.48498,0.61685 -1.21871,1.04274 0.29327,0.46907 0.32803,0.47488 1.09688,0.18323 z m 4.08129,-3.0846 c 0.12144,-0.37821 0.4162,-0.69015 0.65502,-0.69321 0.25664,-0.003 0.20897,-0.14946 -0.11654,-0.3574 -0.3814,-0.24365 -0.40683,-0.35355 -0.0827,-0.3574 0.25743,-0.003 0.62511,0.40277 0.81706,0.90184 0.73417,1.9088 1.37204,0.85456 1.31767,-2.17776 -0.0302,-1.68403 -0.10272,-1.82283 -1.00647,-1.92623 -0.87923,-0.1006 -0.99842,0.0319 -1.2258,1.36224 -0.20747,1.21388 -0.42415,1.50948 -1.22915,1.67679 -0.5375,0.11171 -1.38869,0.28747 -1.89154,0.39059 -1.44069,0.29543 -2.04088,1.58177 -0.73804,1.58177 0.4039,0 0.73436,0.13054 0.73436,0.29008 0,0.15954 0.57271,0.22399 1.27267,0.14321 0.84265,-0.0973 1.34728,-0.37922 1.49346,-0.83452 z m 171.57055,0.32864 c 0.78955,-0.78047 0.46762,-1.34408 -0.98922,-1.73186 -1.10271,-0.29352 -1.4874,-0.60728 -1.68142,-1.37145 -0.29806,-1.17393 -0.75835,-1.5184 -1.70272,-1.27428 -0.57811,0.14944 -0.69371,0.5251 -0.69371,2.25426 0,1.14121 0.11015,2.18382 0.24478,2.31691 0.42478,0.41989 4.36155,0.26186 4.82229,-0.19358 z m -167.13589,-6.79341 c -0.025,-0.35198 0.42164,-0.70926 1.15254,-0.92196 0.69997,-0.20371 1.19333,-0.58635 1.19333,-0.92555 0,-0.31805 0.20654,-0.80024 0.45897,-1.07155 0.25244,-0.2713 -0.30542,0.0359 -1.23967,0.6826 -1.74874,1.21054 -2.88088,2.81115 -1.98839,2.81115 0.25521,0 0.44566,-0.25861 0.42322,-0.57469 z m 3.96643,-0.86807 c -0.87175,-0.48225 -1.50976,0.2766 -0.8716,1.0367 0.45822,0.54577 0.53561,0.54112 0.97947,-0.0589 0.40633,-0.54931 0.38941,-0.7027 -0.10787,-0.97779 z m 12.01208,-9.70864 c 0.47979,-0.71102 0.56872,-0.71966 1.86889,-0.18148 1.59067,0.65842 3.07669,0.73233 3.42797,0.17048 0.46343,-0.74123 -0.38206,-1.05019 -1.8085,-0.66085 -1.14355,0.31212 -1.51664,0.27711 -2.04041,-0.19145 -1.10021,-0.98423 -4.22664,0.10776 -3.52438,1.23098 0.39357,0.6295 1.5406,0.42639 2.07643,-0.36768 z m 126.3964,-0.16309 c 0.57844,-0.29821 1.28067,-0.54221 1.56051,-0.54221 0.57808,0 0.68348,-0.57635 0.1635,-0.89402 -0.1899,-0.11603 -0.66827,0.13174 -1.06302,0.55059 -0.6145,0.65201 -0.90158,0.71136 -1.99604,0.41263 -1.35937,-0.37102 -2.36345,-0.053 -1.94511,0.61614 0.35648,0.57018 2.03895,0.49676 3.28016,-0.14313 z m -2.70402,-3.20391 c 0,-0.26618 -0.24785,-0.48395 -0.55077,-0.48395 -0.93192,0 -0.64069,0.59597 0.45897,0.93924 0.0505,0.0158 0.0918,-0.18912 0.0918,-0.45529 z m -106.18457,-2.69136 c -0.1338,-0.68681 -3.03573,-1.51355 -3.51767,-1.00217 -0.14736,0.15636 -0.0522,0.36025 0.21153,0.45308 0.2637,0.0928 0.67678,0.39092 0.91795,0.66242 0.24117,0.2715 0.90499,0.49985 1.47515,0.50745 0.79308,0.0106 1.00762,-0.13531 0.91304,-0.62078 z m 95.16919,0.27854 c 0,-0.19583 0.41308,-0.45853 0.91795,-0.58379 1.71699,-0.42599 0.92665,-0.75097 -0.91795,-0.37745 -1.91703,0.38819 -2.56447,1.31728 -0.91795,1.31728 0.50487,0 0.91795,-0.16022 0.91795,-0.35604 z m 4.27313,0.10356 c -0.39109,-0.38659 -1.36711,-0.45437 -1.13219,-0.0786 0.11386,0.18211 0.47265,0.3311 0.79731,0.3311 0.32466,0 0.47536,-0.11361 0.33488,-0.25248 z m -23.4564,-6.19006 c 0.099,-0.29717 -0.23945,-0.4537 -0.98099,-0.4537 -1.09085,0 -1.4174,0.32294 -0.87186,0.86222 0.3944,0.38986 1.68139,0.10611 1.85285,-0.40852 z m -52.8752,-0.90609 c -0.0839,-0.24881 -0.79264,-0.55524 -1.57498,-0.68094 l -1.42244,-0.22856 0.85071,0.68095 c 0.96317,0.77096 2.3805,0.92186 2.14671,0.22855 z m 49.75727,-0.18279 c -0.19984,-0.51721 -2.66698,-0.62913 -2.66698,-0.12099 0,0.42993 0.6736,0.64738 1.88011,0.60694 0.60976,-0.0204 0.89797,-0.19843 0.78687,-0.48595 z m -131.30403,46.9126 c 0.27442,-0.7986 1.96617,-2.65184 1.95035,-2.13652 -0.005,0.17695 -0.50261,0.89338 -1.10484,1.59208 -0.68594,0.79583 -1.00177,0.9992 -0.84551,0.54444 z"
       id="path286"
       inkscape:connector-curvature="0" />
  </g>
</svg>
