<?xml version="1.0" encoding="UTF-8" standalone="no"?>
<!-- Created with Inkscape (http://www.inkscape.org/) -->

<svg
   xmlns:dc="http://purl.org/dc/elements/1.1/"
   xmlns:cc="http://creativecommons.org/ns#"
   xmlns:rdf="http://www.w3.org/1999/02/22-rdf-syntax-ns#"
   xmlns:svg="http://www.w3.org/2000/svg"
   xmlns="http://www.w3.org/2000/svg"
   xmlns:sodipodi="http://sodipodi.sourceforge.net/DTD/sodipodi-0.dtd"
   xmlns:inkscape="http://www.inkscape.org/namespaces/inkscape"
   version="1.1"
   id="svg176"
   width="500"
   height="500"
   viewBox="0 0 500 500"
   sodipodi:docname="tagalog-v.svg"
   inkscape:version="0.92.5 (2060ec1f9f, 2020-04-08)">
  <metadata
     id="metadata182">
    <rdf:RDF>
      <cc:Work
         rdf:about="">
        <dc:format>image/svg+xml</dc:format>
        <dc:type
           rdf:resource="http://purl.org/dc/dcmitype/StillImage" />
        <dc:title></dc:title>
      </cc:Work>
    </rdf:RDF>
  </metadata>
  <defs
     id="defs180" />
  <sodipodi:namedview
     pagecolor="#ffffff"
     bordercolor="#666666"
     borderopacity="1"
     objecttolerance="10"
     gridtolerance="10"
     guidetolerance="10"
     inkscape:pageopacity="0"
     inkscape:pageshadow="2"
     inkscape:window-width="1920"
     inkscape:window-height="1016"
     id="namedview178"
     showgrid="false"
     inkscape:zoom="0.838"
     inkscape:cx="-171.89621"
     inkscape:cy="225.99086"
     inkscape:window-x="0"
     inkscape:window-y="27"
     inkscape:window-maximized="1"
     inkscape:current-layer="svg176" />
  <g
     id="g186"
     transform="translate(-1.1740548e-5)">
    <path
       style="fill:#eed3f6"
       d="m 84.274172,407.54743 c -5.929795,-2.76077 -6.375921,-3.37581 -21.181782,-29.2017 l -9.261168,-16.15426 -6.665611,-3.26284 C 34.211504,352.58757 22.298006,337.7598 18.584193,323.35566 16.301782,314.50325 16.222046,223.40697 18.48909,214.70319 23.121382,196.91862 37.393462,181.6641 54.92787,175.75608 61.328331,173.59952 63.001946,173.52807 119,173.02084 l 57.5,-0.52084 0.57889,-20 c 0.422,-14.57973 1.00266,-21.10336 2.14257,-24.07125 6.78142,-17.65624 19.00105,-29.885811 35.5881,-35.617039 L 221.5,90.5 h 109 109 l 6.69044,2.311711 c 17.83484,6.162373 32.10646,21.619009 36.26978,39.281359 2.24256,9.5138 2.25204,99.75216 0.0114,108.35463 -3.87694,14.88457 -14.06821,27.85424 -28.04069,35.68529 l -7.8175,4.38142 -10.62853,18.4928 c -12.31275,21.4232 -16.34148,26.15916 -23.76834,27.94084 -6.65278,1.59598 -14.39894,-0.45166 -18.74433,-4.95491 -1.63472,-1.69411 -7.71436,-11.27311 -13.51032,-21.28667 L 369.4238,282.5 H 346.4619 323.5 l -0.55688,19.5 c -0.45542,15.94681 -0.92063,20.52524 -2.55312,25.12654 -4.73401,13.34319 -15.65541,25.9319 -27.57583,31.78565 -12.17288,5.97773 -13.2772,6.05136 -91.04998,6.07045 L 131.02838,365 l -2.39551,3.75 c -1.31753,2.0625 -6.38641,10.67174 -11.26419,19.13165 -8.98083,15.57616 -11.80099,18.81504 -18.267903,20.98025 -5.133173,1.71865 -9.059529,1.37055 -14.826605,-1.31447 z m 21.725238,-37.82706 c 6.32468,-11.1212 12.49173,-21.23287 13.70455,-22.47037 l 2.20513,-2.25 77.79546,-7.9e-4 77.79545,-7.9e-4 6,-2.88282 c 7.48145,-3.59462 13.56091,-9.82125 17.19925,-17.6156 l 2.80075,-6 v -50 -50 l -2.79431,-5.69015 c -3.60813,-7.34738 -11.92136,-14.99855 -19.29319,-17.75671 -5.54934,-2.07627 -6.1882,-2.08654 -113.24666,-1.82059 L 60.5,193.5 55.159416,196.45823 C 47.971881,200.43952 42.230523,206.35123 39.094327,213 L 36.5,218.5 V 269 c 0,49.75792 0.03199,50.56924 2.176852,55.21176 4.342953,9.40023 11.348859,15.8843 20.823148,19.2721 2.75,0.98335 5.9,2.76515 7,3.95956 1.1,1.19442 7.175,11.24565 13.5,22.33608 6.932567,12.15575 12.095752,20.16378 13,20.16282 0.904029,-9.5e-4 6.068877,-8.03542 12.99941,-20.22195 z m 316.13383,-86.90101 11.9399,-20.68064 6.47699,-2.1554 c 8.25071,-2.74566 16.2216,-9.7823 20.15556,-17.79317 L 463.5,236.5 v -50 -50 l -2.63517,-5.62001 c -3.70676,-7.9054 -8.99532,-13.32661 -16.70142,-17.12031 L 437.54205,110.5 H 330.5 223.45795 l -6.62136,3.25968 c -7.7061,3.7937 -12.99466,9.21491 -16.70142,17.12031 -2.49405,5.31905 -2.65281,6.59733 -2.96459,23.87001 l -0.32942,18.25 37.82942,0.0174 c 41.86853,0.0192 46.88826,0.5433 58.14359,6.07045 11.91169,5.84947 22.81266,18.40891 27.58836,31.78565 1.70324,4.77078 2.09155,9.04864 2.55312,28.12654 l 0.54435,22.5 28.10889,0.26533 c 25.20708,0.23795 28.26908,0.44441 29.66066,2 0.85347,0.95407 6.35145,10.05967 12.21773,20.23467 14.70215,25.50072 13.50846,23.82322 15.26362,21.4502 0.79334,-1.07261 6.81539,-11.25649 13.38234,-22.63084 z"
       id="path200"
       inkscape:connector-curvature="0" />
    <path
       style="fill:#e3b3f0"
       d="M 86.577906,407.51478 C 80.656189,405.40489 78.084088,402.14046 66.474384,382 60.609137,371.825 55.318748,362.9024 54.717964,362.17199 c -0.600785,-0.7304 -3.370602,-2.4675 -6.15515,-3.86022 -12.645687,-6.32485 -22.331926,-16.95976 -27.47455,-30.16541 L 18.5,321.5 l -0.312702,-49 c -0.34514,-54.08307 -0.134002,-56.73125 5.429746,-68.10204 6.377608,-13.0341 15.903585,-21.37144 31.141405,-27.25562 L 61.5,174.53905 l 58,-0.51952 58,-0.51953 0.55365,-20.5 c 0.47689,-17.65819 0.84452,-21.22707 2.65198,-25.7449 6.6765,-16.68821 18.13652,-27.926259 34.10393,-33.443389 L 221.5,91.5 h 109 109 l 6.76623,2.33693 c 8.47206,2.926095 17.27938,8.75158 23.21908,15.35796 5.24666,5.83555 10.81731,16.87318 12.41772,24.60433 0.70661,3.41348 1.09697,22.28136 1.09697,53.02164 0,43.0619 -0.17757,48.36281 -1.8183,54.27977 -4.05365,14.61873 -15.28255,28.37761 -28.44982,34.85983 l -6.39647,3.14897 -9.3362,16.19529 c -5.13492,8.9074 -10.81745,18.46484 -12.62785,21.23874 -7.40797,11.35049 -21.4979,13.43342 -30.28003,4.47632 -1.97523,-2.01459 -7.95343,-11.28069 -13.28489,-20.59133 -5.33146,-9.31065 -10.25896,-17.49095 -10.95,-18.17845 -0.92997,-0.9252 -6.98591,-1.24602 -23.30644,-1.23469 -12.1275,0.008 -22.56875,0.34592 -23.20278,0.75 -0.78081,0.49763 -1.2773,6.86541 -1.53871,19.73469 -0.35335,17.39614 -0.60534,19.60913 -2.98519,26.21602 -5.81357,16.13949 -16.90037,26.86932 -34.73615,33.61773 -5.45545,2.06414 -7.34102,2.12638 -79.98011,2.64011 l -74.39294,0.52614 -10.37457,18 c -11.00514,19.09405 -14.81304,23.70474 -20.995125,25.42135 -4.946302,1.37346 -6.966534,1.30365 -11.766519,-0.40657 z M 95.758683,389.25 c 1.042179,-1.5125 6.984067,-11.6375 13.204187,-22.5 L 120.27219,347 H 195.926 c 65.10278,0 76.48365,-0.21615 81.60401,-1.54983 10.96209,-2.85526 19.78243,-10.36473 24.70087,-21.02983 2.2641,-4.90947 2.26912,-5.03218 2.26912,-55.52097 v -50.60064 l -3.5,-6.86055 c -2.62744,-5.15019 -4.99364,-8.06263 -9.49123,-11.68226 -10.83329,-8.71858 -2.83028,-8.1386 -117.00877,-8.4797 -58.90922,-0.17599 -103.821749,0.0874 -107.771,0.63198 -12.363886,1.70498 -21.838634,8.2724 -27.80187,19.27087 L 35.5,217.5 35.213817,266.93087 c -0.320403,55.34154 -0.306919,55.47295 6.626731,64.58211 5.084758,6.68015 9.879792,10.27545 17.276213,12.95363 l 6.335791,2.29413 11.523724,19.92838 c 16.565323,28.647 15.483873,27.348 18.782407,22.56088 z m 324.208437,-101 c 12.78785,-22.23962 15.4837,-26.25 17.6457,-26.25 3.20382,0 12.5631,-5.33381 16.80823,-9.57895 2.44479,-2.44478 5.71269,-7.02716 7.26201,-10.18306 L 464.5,236.5 v -50 -50 l -2.82391,-6.11039 c -4.78497,-10.35373 -14.39486,-18.15143 -25.11168,-20.37624 -3.44875,-0.71596 -38.76136,-0.97041 -109.08202,-0.78602 -117.70319,0.30863 -108.69022,-0.34144 -118.58286,8.55289 -10.95147,9.84631 -13.06008,16.38647 -12.67505,39.31346 L 196.5,173.5 l 41,0.54449 c 40.84947,0.5425 41.0243,0.5538 47.61957,3.07855 13.07977,5.00708 21.38936,11.32 27.84161,21.15169 7.23986,11.03183 8.31859,16.0503 8.96892,41.72527 l 0.5699,22.5 29,0.5 29,0.5 12.85928,22.25 c 7.0726,12.2375 13.39753,22.25 14.0554,22.25 0.65787,0 6.30647,-8.8875 12.55244,-19.75 z"
       id="path198"
       inkscape:connector-curvature="0" />
    <path
       style="fill:#dea5ee"
       d="M 86.577906,407.51478 C 80.656189,405.40489 78.084088,402.14046 66.474384,382 60.609137,371.825 55.318748,362.9024 54.717964,362.17199 c -0.600785,-0.7304 -3.370602,-2.4675 -6.15515,-3.86022 -12.645687,-6.32485 -22.331926,-16.95976 -27.47455,-30.16541 L 18.5,321.5 l -0.312702,-49 c -0.34514,-54.08307 -0.134002,-56.73125 5.429746,-68.10204 6.376374,-13.03158 15.893248,-21.36221 31.141405,-27.25976 L 61.5,174.53076 l 58.25,-0.32395 58.25,-0.32396 0.0174,-16.19142 c 0.0199,-18.53889 1.42889,-27.05354 6.02603,-36.41537 6.03001,-12.27978 18.86229,-23.313356 31.73982,-27.290818 C 222.02727,92.056646 225.30443,92 330.63688,92 c 107.07146,0 108.50391,0.02593 114.64467,2.075196 16.80228,5.607185 29.75377,18.699384 35.00299,35.383274 2.16261,6.87354 2.21546,8.22242 2.21546,56.54153 0,45.21048 -0.15934,50.01994 -1.83871,55.5 -4.61074,15.04562 -14.70829,27.38192 -27.49391,33.58964 l -7.0241,3.41036 -11.12719,19.18577 c -6.11996,10.55217 -12.07933,20.3962 -13.24305,21.87563 -4.6883,5.96021 -15.51639,8.14139 -22.56288,4.54501 -5.34224,-2.72657 -6.48078,-4.25593 -18.17137,-24.40889 L 370.48253,281.5 H 346.49126 322.5 l -0.54476,19.5 c -0.49386,17.67821 -0.78702,20.17416 -3.13797,26.71602 -5.79616,16.12867 -16.89084,26.86801 -34.7301,33.61773 -5.45545,2.06414 -7.34102,2.12638 -79.98011,2.64011 l -74.39294,0.52614 -10.37457,18 c -11.00514,19.09405 -14.81304,23.70474 -20.995125,25.42135 -4.946302,1.37346 -6.966534,1.30365 -11.766519,-0.40657 z M 95.758683,389.25 c 1.042179,-1.5125 6.984067,-11.6375 13.204187,-22.5 L 120.27219,347 H 195.926 c 65.10278,0 76.48365,-0.21615 81.60401,-1.54983 10.96209,-2.85526 19.78243,-10.36473 24.70087,-21.02983 2.26411,-4.90947 2.26912,-5.03217 2.26912,-55.52116 v -50.60083 l -3.5,-6.86036 c -2.62736,-5.1499 -4.99377,-8.06254 -9.49123,-11.68207 -10.83329,-8.71858 -2.83028,-8.1386 -117.00877,-8.4797 -58.90922,-0.17599 -103.821749,0.0874 -107.771,0.63198 -12.363886,1.70498 -21.838634,8.2724 -27.80187,19.27087 L 35.5,217.5 35.213817,266.93087 c -0.320403,55.34154 -0.306919,55.47295 6.626731,64.58211 5.084758,6.68015 9.879792,10.27545 17.276213,12.95363 l 6.335791,2.29413 11.523724,19.92838 c 16.565323,28.647 15.483873,27.348 18.782407,22.56088 z M 422.21486,285.41872 434.5,264.02401 l 7,-2.68566 c 9.22792,-3.54042 18.06051,-12.06649 21.58751,-20.83835 l 2.41249,-6 V 187 c 0,-43.14646 -0.1659,-48.00409 -1.81009,-53 -3.54925,-10.78449 -13.02433,-20.41253 -23.12141,-23.49466 -7.46122,-2.27754 -212.64913,-2.2645 -220.32167,0.014 -9.31768,2.76705 -19.12476,12.49601 -22.90211,22.71968 -1.67444,4.532 -3.16777,33.34557 -1.97459,38.09958 l 0.62903,2.50622 41.25042,0.3664 41.25042,0.36641 6.61957,2.53973 c 18.93621,7.26524 30.29452,19.4519 34.89509,37.43995 1.65087,6.45484 1.98534,11.08444 1.98534,27.48021 0,15.20927 0.30479,19.97055 1.33305,20.82392 0.88602,0.73534 10.69435,1.19557 29.24895,1.37245 l 27.91591,0.26611 12.00104,20.64827 c 13.74101,23.64193 14.22465,24.32601 16.09859,22.77078 0.7327,-0.60809 6.8605,-10.73324 13.61732,-22.50033 z"
       id="path196"
       inkscape:connector-curvature="0" />
    <path
       style="fill:#c7c7c7"
       d="M 86.577906,407.51478 C 80.656189,405.40489 78.084088,402.14046 66.474384,382 60.609137,371.825 55.318748,362.9024 54.717964,362.17199 c -0.600785,-0.7304 -3.370602,-2.4675 -6.15515,-3.86022 -12.645687,-6.32485 -22.331926,-16.95976 -27.47455,-30.16541 L 18.5,321.5 l -0.312702,-49 c -0.34514,-54.08307 -0.134002,-56.73125 5.429746,-68.10204 6.377449,-13.03377 15.902248,-21.37024 31.141405,-27.25615 L 61.5,174.53798 120,174.01899 178.5,173.5 179.05917,153 c 0.49409,-18.11409 0.82188,-21.16753 2.81644,-26.23554 6.13956,-15.60015 17.51973,-26.62327 33.01583,-31.979997 L 221.5,92.5 h 109 109 l 6.67258,2.305767 c 8.34321,2.883067 19.58834,10.691443 24.31833,16.886123 4.61414,6.04295 8.99541,15.35265 10.40401,22.10733 0.71734,3.4399 1.10508,22.04984 1.10508,53.0399 0,52.60086 -0.12387,53.89964 -6.25449,65.57943 -4.34922,8.28594 -14.51993,18.20559 -23.24551,22.67172 l -7,3.5829 -11.22672,19.41342 c -6.1747,10.67737 -12.77604,20.84883 -14.66965,22.60323 -8.63654,8.00163 -21.47187,5.94858 -28.27778,-4.5231 -1.66819,-2.5667 -6.74765,-11.19172 -11.2877,-19.16672 -4.54005,-7.975 -8.96694,-15.0625 -9.83752,-15.75 -1.15852,-0.91488 -7.53105,-1.25 -23.76931,-1.25 -16.53344,0 -22.44873,0.31849 -23.21588,1.25 -0.59357,0.72072 -1.19108,9.295 -1.41116,20.25 -0.34961,17.40249 -0.60025,19.60672 -2.98096,26.21602 -5.81357,16.13949 -16.90037,26.86932 -34.73615,33.61773 -5.45545,2.06414 -7.34102,2.12638 -79.98011,2.64011 l -74.39294,0.52614 -10.37457,18 c -11.00514,19.09405 -14.81304,23.70474 -20.995125,25.42135 -4.946302,1.37346 -6.966534,1.30365 -11.766519,-0.40657 z M 95.758683,389.25 c 1.042179,-1.5125 6.984067,-11.6375 13.204187,-22.5 L 120.27219,347 H 195.926 c 65.10278,0 76.48365,-0.21615 81.60401,-1.54983 10.96209,-2.85526 19.78243,-10.36473 24.70087,-21.02983 2.26411,-4.90947 2.26912,-5.03217 2.26912,-55.52116 v -50.60083 l -3.5,-6.86036 c -2.62736,-5.1499 -4.99377,-8.06254 -9.49123,-11.68207 -10.83329,-8.71858 -2.83028,-8.1386 -117.00877,-8.4797 -58.90922,-0.17599 -103.821749,0.0874 -107.771,0.63198 -12.363886,1.70498 -21.838634,8.2724 -27.80187,19.27087 L 35.5,217.5 35.213817,266.93087 c -0.320403,55.34154 -0.306919,55.47295 6.626731,64.58211 5.084758,6.68015 9.879792,10.27545 17.276213,12.95363 l 6.335791,2.29413 11.523724,19.92838 c 16.565323,28.647 15.483873,27.348 18.782407,22.56088 z M 422.15365,286.49545 434.90231,264.5 l 7.17626,-2.91805 c 8.94,-3.63524 16.80581,-10.95891 20.70086,-19.27406 L 465.5,236.5 v -50 -50 l -2.68802,-5.73546 c -3.69667,-7.88764 -7.02232,-11.98178 -13.11634,-16.1473 C 439.67561,107.76812 443.85236,108 330.5,108 c -113.4321,0 -109.16677,-0.23822 -119.25854,6.66056 -6.65516,4.5495 -11.95045,11.73058 -14.36082,19.47511 C 195.35356,139.0422 195,143.34299 195,157.01223 v 16.83405 l 41.75,0.36475 41.75,0.36475 6.61957,2.54065 c 18.9387,7.26885 30.29463,19.45325 34.89509,37.44088 1.64301,6.42411 1.98534,11.08331 1.98534,27.02087 0,10.59203 0.27314,19.97005 0.60699,20.84003 0.53304,1.38908 3.97481,1.58366 28.25,1.5971 15.20365,0.008 28.1332,0.34592 28.73232,0.75 0.59912,0.40408 6.39376,9.95969 12.87696,21.23469 13.43007,23.35635 13.31665,23.18845 15.39426,22.78834 0.84945,-0.16359 7.28135,-10.19539 14.29312,-22.29289 z"
       id="path194"
       inkscape:connector-curvature="0" />
    <path
       style="fill:#d58cea"
       d="m 402.84264,325.06906 c -7.84628,-2.49955 -9.14819,-4.11115 -23.28236,-28.82057 -6.93718,-12.12762 -9.25253,-15.38413 -11.30404,-15.89903 -1.41897,-0.35613 -15.00558,-0.39975 -30.19247,-0.0969 -29.04478,0.57915 -29.52691,0.51965 -31.90043,-3.9368 -1.81852,-3.41441 -1.37862,-6.95393 1.24305,-10.00181 l 2.4064,-2.7976 33.8436,0.2965 c 18.61399,0.16307 34.51861,0.50386 35.34361,0.75731 0.825,0.25345 7.125,10.24136 14,22.19534 9.55146,16.60772 12.95994,21.73452 14.44986,21.73452 1.48765,0 4.97249,-5.215 14.70115,-22 l 12.7513,-22 7.17626,-2.91805 c 8.94,-3.63524 16.80581,-10.95891 20.70086,-19.27406 L 465.5,236.5 v -50 -50 l -2.68802,-5.73546 c -3.69667,-7.88764 -7.02232,-11.98178 -13.11634,-16.1473 C 439.67561,107.76812 443.85236,108 330.5,108 c -113.50092,0 -109.15904,-0.24376 -119.31347,6.69839 -6.93326,4.73997 -12.50941,12.62061 -14.72711,20.81346 -1.51192,5.58548 -1.68002,9.43995 -1.20952,27.73418 0.61429,23.88529 0.23209,25.77973 -5.58847,27.70069 -4.09332,1.35092 -7.89024,0.15989 -10.06336,-3.1567 -1.29955,-1.98337 -1.39565,-5.93938 -0.6995,-28.79464 0.72496,-23.80106 1.03213,-27.07863 3.02067,-32.23092 5.97582,-15.48334 17.45321,-26.61536 32.9722,-31.979997 L 221.5,92.5 h 109 109 l 6.67258,2.305767 c 8.34321,2.883067 19.58834,10.691443 24.31833,16.886123 4.61414,6.04295 8.99541,15.35265 10.40401,22.10733 0.71734,3.4399 1.10508,22.04984 1.10508,53.0399 0,52.60086 -0.12387,53.89964 -6.25449,65.57943 -4.34922,8.28594 -14.51993,18.20559 -23.24551,22.67172 l -7,3.5829 -11.15196,19.24461 c -11.51846,19.87706 -13.99054,23.30567 -18.49307,25.64863 -3.52175,1.8326 -9.72716,2.54919 -13.01233,1.50265 z"
       id="path192"
       inkscape:connector-curvature="0" />
    <path
       style="fill:#ca6ce5"
       d="m 401.31687,323.77243 c -5.00786,-1.61005 -8.0808,-5.5885 -19.36086,-25.06596 l -10.544,-18.20647 -30.456,-0.0601 c -16.75081,-0.0331 -31.21207,-0.40666 -32.13613,-0.83017 -2.24255,-1.02781 -3.88856,-6.01627 -3.17025,-9.60783 0.95656,-4.78281 3.62709,-6.40847 10.13769,-6.1712 3.14197,0.11451 18.62909,0.43787 34.41582,0.71859 l 28.70315,0.5104 1.87426,2.72017 c 1.03084,1.4961 6.69972,11.1215 12.59751,21.38978 5.89779,10.26828 11.41318,19.24218 12.25642,19.94201 1.10373,0.91601 1.99776,0.97936 3.19184,0.22615 0.91227,-0.57545 7.34412,-10.85748 14.293,-22.84897 l 12.63433,-21.80271 5.95803,-2.15735 c 3.27691,-1.18655 7.35214,-3.15005 9.05606,-4.36335 5.23229,-3.72572 11.05172,-11.08964 13.44891,-17.01829 2.2711,-5.6168 2.28335,-5.91284 2.28335,-55.19942 v -49.55234 l -3.77234,-7.63234 C 456.7723,116.71393 447.65256,109.89929 434.8199,107.90922 430.90262,107.30173 389.53285,107.041 326,107.22338 c -95.34961,0.27372 -102.81392,0.41791 -107,2.067 -10.13915,3.99428 -18.79195,12.83415 -22.59815,23.08672 -1.62754,4.38406 -1.88635,7.71909 -1.79438,23.12294 0.0591,9.9 0.44429,19.91688 0.85597,22.25974 1.46084,8.3138 -1.70516,13.24026 -8.50889,13.24026 -2.99805,0 -4.70262,-0.65716 -6.58364,-2.53818 -2.36817,-2.36817 -2.49682,-2.98775 -1.92068,-9.25 0.33963,-3.6915 0.95935,-15.71182 1.37716,-26.71182 0.64002,-16.85023 1.09172,-20.82601 2.86812,-25.2449 6.8246,-16.9765 19.42167,-28.409571 36.01642,-32.688421 5.5424,-1.429071 17.82961,-1.572874 114,-1.334193 L 440.5,93.5 l 5.96087,2.248427 c 11.9825,4.519783 22.06405,13.060323 28.03713,23.751573 6.35087,11.36745 6.502,12.93148 6.502,67.28901 0,45.87394 -0.12529,49.40581 -1.96368,55.35565 -4.26483,13.80287 -13.98854,25.48642 -26.49388,31.8338 -3.55848,1.80619 -7.08638,4.01244 -7.83977,4.90276 -0.75338,0.89033 -6.00336,9.71878 -11.66662,19.61878 -11.58308,20.24852 -12.9136,22.01503 -18.53605,24.60996 -4.3965,2.02911 -8.31925,2.22624 -13.18313,0.66247 z"
       id="path190"
       inkscape:connector-curvature="0" />
    <path
       style="fill:#9751aa"
       d="M 308.6928,278.97299 C 306.49349,277.24302 306,276.04346 306,272.42742 c 0,-3.05175 0.6041,-5.03152 1.94422,-6.37164 2.26336,-2.26336 7.93528,-3.55382 11.58918,-2.63675 2.50181,0.62791 2.54145,0.78355 2.25657,8.86005 L 321.5,280.5 l -5.0572,0.29557 c -3.93845,0.23019 -5.65291,-0.173 -7.75,-1.82258 z M 180.40477,188.49568 c -2.18621,-2.18621 -2.46624,-3.23416 -2.20454,-8.25 L 178.5,174.5 l 7.3425,-0.29568 c 4.55244,-0.18332 7.87733,0.1482 8.75,0.87245 1.69326,1.40528 1.82512,6.42681 0.28478,10.84541 -1.91791,5.50173 -10.09095,6.95505 -14.47251,2.5735 z"
       id="path188"
       inkscape:connector-curvature="0" />
  </g>
  <g
     id="g314"
     transform="matrix(0.5636996,0,0,0.62701081,36.584363,109.03825)">
    <path
       style="fill:#f3e3a1;stroke-width:0.80615634"
       d="m 244.27077,378.21332 c -23.18301,-1.91082 -46.95449,-10.00884 -66.38727,-22.61555 -7.72777,-5.01326 -26.66099,-21.84525 -28.73838,-25.54895 -1.04603,-1.86493 -1.04603,-2.28681 0,-3.21275 0.66228,-0.58624 31.60646,-17.16124 68.76485,-36.83332 37.15838,-19.67208 67.83334,-36.00297 68.16656,-36.29085 0.33323,-0.28788 -29.12491,-16.28391 -65.46254,-35.54673 -79.01305,-41.88536 -71.52361,-37.72591 -71.52361,-39.72241 0,-2.66155 21.63516,-22.02674 31.01732,-27.76296 15.34353,-9.38098 32.38029,-16.07426 49.84758,-19.58377 7.23497,-1.45364 11.16896,-1.71562 26.14117,-1.74083 15.35785,-0.0258 18.79867,0.2022 26.75413,1.77325 27.42877,5.41664 49.26719,16.35147 68.97916,34.53894 16.19274,14.9404 26.30759,29.97997 33.09809,49.2129 13.58454,38.47581 7.00009,78.85007 -18.19902,111.59215 -3.08281,4.00561 -9.78782,11.11597 -14.90004,15.80082 -23.20138,21.26183 -51.4278,33.28768 -84.46303,35.98542 -10.6037,0.86594 -12.07382,0.86305 -23.09497,-0.0454 z M 129.79455,298.15226 c -1.88804,-4.50591 -2.61894,-7.35944 -2.33053,-9.09867 0.50245,-3.03001 0.0488,-4.46981 -1.40847,-4.46981 -1.42344,0 -3.68553,-10.63302 -4.6963,-22.0751 -1.22876,-13.90966 1.78129,-39.35147 4.78137,-40.41368 0.69125,-0.24474 1.12891,-1.62835 1.12891,-3.56888 0,-4.23348 4.82806,-16.02401 6.56161,-16.02401 0.71676,0 2.16576,0.74767 3.22,1.66147 1.69177,1.46641 1.87225,2.2164 1.53738,6.38843 -0.29565,3.68338 -0.21724,4.15552 0.35518,2.13857 1.08105,-3.8092 2.11697,-4.43312 4.18791,-2.52235 2.20305,2.03267 2.18327,2.84342 -0.2623,10.75062 l -1.98381,6.41423 2.94604,1.13574 c 1.62032,0.62465 3.07209,1.13573 3.22615,1.13573 0.15407,0 1.80963,-2.41634 3.67902,-5.36963 4.15011,-6.55639 5.43531,-7.79441 8.09148,-7.79441 2.47545,0 3.44966,1.82807 1.96543,3.68805 -0.59042,0.73989 0.15907,0.19572 1.66554,-1.20928 2.49232,-2.32444 3.12861,-2.53368 7.06426,-2.32306 l 4.32522,0.23147 0.24909,3.94324 0.24908,3.94324 -4.65521,3.31372 c -5.46657,3.89125 -6.01144,4.70908 -1.31484,1.97355 3.87583,-2.25748 4.69362,-2.37611 5.35855,-0.77735 1.08755,2.61494 -1.07046,4.88366 -7.83623,8.23824 -6.22323,3.08559 -6.7546,3.53395 -6.28856,5.30626 0.27998,1.06474 0.78202,2.19497 1.11563,2.51163 0.33362,0.31666 3.32346,-0.11892 6.64409,-0.96794 7.2854,-1.86275 10.52426,-1.94899 11.99017,-0.31928 0.86715,0.96404 0.88749,1.54038 0.0957,2.71025 -0.90964,1.34392 -0.75919,1.48583 1.57521,1.48583 2.95051,0 8.34374,3.41414 8.34374,5.28194 0,0.67449 -1.1692,2.33937 -2.59821,3.69972 -2.46028,2.34203 -2.87245,2.4579 -7.76319,2.18235 -3.77463,-0.21267 -4.4675,-0.12013 -2.57392,0.34377 4.02216,0.98537 4.66768,1.54259 3.70659,3.19952 -1.35528,2.33653 -3.78158,2.52824 -10.49377,0.8292 -8.35291,-2.11437 -9.49326,-2.06303 -10.17911,0.45827 -0.64399,2.36742 -0.004,2.93284 7.54545,6.66235 5.02444,2.48226 7.05352,4.87893 6.09066,7.19403 -0.36228,0.87109 -1.12545,1.15756 -2.31756,0.86992 -1.67648,-0.40451 -1.6581,-0.31059 0.32401,1.65445 2.28702,2.26732 3.47198,7.55644 2.17281,9.69838 -0.54354,0.89615 -1.89969,1.29 -4.44185,1.29 -3.35852,0 -3.98092,-0.33427 -7.5694,-4.06536 -2.15049,-2.23596 -3.50431,-3.30074 -3.00847,-2.36619 0.49583,0.93454 1.27715,1.91337 1.73626,2.17517 0.97843,0.55794 1.12108,3.22735 0.20052,3.75228 -0.34882,0.19892 -1.65931,0.18086 -2.91219,-0.0401 -1.77948,-0.31386 -3.12732,-1.73851 -6.15942,-6.51046 -2.13481,-3.35977 -4.13266,-6.25192 -4.43968,-6.42699 -0.30702,-0.17508 -1.76275,0.14898 -3.23497,0.72012 l -2.67675,1.03845 1.66845,5.28079 c 2.72869,8.63649 2.81166,9.42888 1.16328,11.10946 -1.70841,1.74177 -3.41891,1.97879 -4.03951,0.55975 -0.23282,-0.53237 -0.45313,0.11755 -0.48957,1.44428 -0.0781,2.8432 -2.91259,6.49286 -5.04267,6.49286 -1.10312,0 -2.22198,-1.72896 -4.24825,-6.56476 z m 114.2227,-34.08889 c -1.49171,-1.91653 -2.9388,-3.4846 -3.21574,-3.4846 -0.27695,0 -2.52448,0.58777 -4.99452,1.30617 -6.20245,1.80394 -6.9266,0.80846 -3.09016,-4.24801 l 3.05563,-4.02736 -3.05563,-4.02736 c -3.83644,-5.05647 -3.11229,-6.05195 3.09016,-4.24802 2.47004,0.71841 4.71757,1.30618 4.99452,1.30618 0.27694,0 1.72403,-1.56807 3.21574,-3.4846 1.5173,-1.94939 3.38904,-3.4846 4.24847,-3.4846 1.32836,0 1.53625,0.6688 1.53625,4.94208 v 4.94207 l 4.82577,1.44636 c 3.03335,0.90914 4.82576,1.87778 4.82576,2.60789 0,0.7344 -1.7746,1.67981 -4.82576,2.57091 l -4.82577,1.40938 v 4.97905 c 0,4.30911 -0.2067,4.97905 -1.53625,4.97905 -0.85943,0 -2.73117,-1.5352 -4.24847,-3.48459 z"
       id="path328"
       inkscape:connector-curvature="0" />
    <path
       style="fill:#f7d95e;stroke-width:0.80615634"
       d="m 239.31118,376.97328 c -31.56793,-3.77521 -62.58552,-18.96156 -83.52634,-40.89486 -7.31923,-7.66612 -7.33899,-7.7215 -3.56433,-9.98741 1.74039,-1.04475 19.21525,-10.39823 38.83303,-20.78552 106.44117,-56.35886 96.95012,-51.10932 94.8039,-52.43633 -1.06343,-0.65751 -32.17663,-17.22873 -69.14047,-36.82493 -54.7793,-29.04098 -67.25682,-35.95183 -67.4766,-37.37287 -0.41228,-2.66566 20.57913,-21.70139 30.86733,-27.99156 15.34353,-9.38098 32.38029,-16.07426 49.84758,-19.58377 7.23497,-1.45364 11.16896,-1.71562 26.14117,-1.74083 15.35785,-0.0258 18.79867,0.2022 26.75413,1.77325 27.42877,5.41664 49.26719,16.35147 68.97916,34.53894 19.84814,18.3131 31.72538,38.6402 37.51487,64.2042 2.39796,10.58838 2.32461,31.42873 -0.15742,44.73123 -9.66156,51.78145 -53.81794,92.55739 -109.79174,101.38651 -7.23707,1.14154 -13.07723,1.48838 -23.59222,1.40108 -7.68584,-0.0638 -15.10726,-0.25152 -16.49205,-0.41713 z m -108.5137,-78.99131 c -2.22192,-5.36374 -2.45977,-6.73706 -2.11931,-12.23665 l 0.38349,-6.19485 -1.62206,1.85599 -1.62206,1.85598 -0.94251,-3.79187 c -3.65432,-14.70192 -3.66707,-36.95319 -0.0296,-51.60832 0.84984,-3.42393 2.42406,-5.08795 2.42406,-2.56236 0,0.61371 0.43662,1.36481 0.97027,1.66912 0.71812,0.4095 0.84079,-1.02634 0.47203,-5.52513 -0.45254,-5.52077 -0.26483,-6.63686 2.04602,-12.16567 1.82107,-4.35697 2.91376,-6.02009 3.84415,-5.85091 2.79508,0.50821 3.11746,2.52245 2.02702,12.66502 -0.98195,9.13351 -0.89732,11.38312 0.38378,10.20111 0.28125,-0.2595 1.04405,-3.19237 1.6951,-6.51749 1.72159,-8.79261 1.93952,-9.53027 2.81557,-9.53027 0.43656,0 1.17254,0.65304 1.63551,1.4512 0.61526,1.06072 0.28727,3.30062 -1.21895,8.32432 -1.13338,3.78022 -2.06539,7.12979 -2.07112,7.44349 -0.012,0.65415 5.53003,2.91423 7.14604,2.91423 0.59215,0 2.84793,-2.78768 5.01285,-6.19485 3.18943,-5.01956 4.31913,-6.19484 5.9546,-6.19484 1.11012,0 2.0184,0.20829 2.0184,0.46286 0,0.25457 -2.0158,3.12937 -4.47954,6.38844 -5.62157,7.43624 -5.88258,7.86145 -4.82566,7.86145 0.47577,0 3.75034,-3.22325 7.27683,-7.16278 3.52649,-3.93954 6.94271,-7.44481 7.59161,-7.78951 0.64888,-0.34469 2.58955,-0.51892 4.31257,-0.38718 3.02577,0.23137 3.14146,0.34949 3.38703,3.45872 l 0.25427,3.21917 -8.85671,6.37907 c -4.8712,3.50849 -8.85672,6.71424 -8.85672,7.12388 0,1.11689 1.87023,0.25513 8.77174,-4.04178 6.96521,-4.33658 8.25426,-4.69318 7.86208,-2.17495 -0.18903,1.2138 -2.02631,2.6422 -6.22511,4.83972 -8.52153,4.45989 -8.82958,4.7502 -7.68448,7.24183 1.59954,3.48048 1.90828,3.53377 9.71457,1.67687 7.53191,-1.79163 10.22131,-1.72553 10.22131,0.25121 0,0.74529 -2.53334,1.47811 -8.39263,2.42773 -4.61595,0.74811 -8.39263,1.72253 -8.39263,2.16538 0,0.77976 2.60002,0.67494 16.39178,-0.66086 4.66891,-0.45221 5.27138,-0.32749 7.76319,1.60707 3.23024,2.50786 3.26946,2.81272 0.7145,5.55333 l -1.98697,2.13132 -11.12391,-0.96129 c -6.11816,-0.5287 -11.32967,-0.77145 -11.58114,-0.53943 -0.90719,0.83703 0.67731,1.38413 7.11796,2.45768 9.52962,1.58844 10.32911,1.78952 10.32911,2.59782 0,0.40279 -0.70778,1.08185 -1.57284,1.50901 -1.14963,0.56768 -3.57729,0.26506 -9.02208,-1.12466 -4.09708,-1.04574 -7.72742,-1.90566 -8.06742,-1.91096 -0.34,-0.005 -1.19842,1.27169 -1.9076,2.83773 -1.54824,3.41886 -1.5254,3.44549 6.54436,7.62723 4.27203,2.21377 6.13148,3.64021 6.32077,4.84885 0.38991,2.48961 -0.89423,2.15011 -7.64964,-2.02244 -8.18092,-5.05301 -8.14492,-5.03614 -8.14492,-3.81659 0,0.58184 2.5462,2.78027 5.65821,4.88542 10.30185,6.96877 11.12706,7.83176 11.12706,11.63656 0,2.94026 -0.26935,3.452 -2.03178,3.86013 -3.66469,0.84864 -4.93884,0.028 -12.11168,-7.80069 -3.90049,-4.25713 -7.41239,-7.85639 -7.80423,-7.99835 -1.71242,-0.62043 -0.37399,1.84713 4.23245,7.80303 2.71967,3.51641 4.77456,6.65482 4.56641,6.97424 -0.20814,0.31943 -1.08615,0.58077 -1.95111,0.58077 -1.07607,0 -2.93329,-2.07838 -5.88164,-6.58202 -2.36994,-3.62011 -4.61518,-6.58202 -4.98942,-6.58202 -1.35188,0 -6.76027,2.35824 -6.76027,2.9477 0,0.33212 0.96944,3.68917 2.15431,7.46011 1.94168,6.17956 2.02649,6.97419 0.85925,8.05116 -0.71229,0.6572 -1.53814,0.97064 -1.83522,0.69653 -0.29708,-0.2741 -1.25479,-3.71312 -2.12825,-7.64225 -0.87345,-3.92914 -1.77238,-7.31392 -1.99762,-7.52174 -1.29602,-1.19579 -1.33543,1.62872 -0.1358,9.73344 1.27895,8.64059 1.27148,9.21744 -0.14253,11.0056 -0.82072,1.03788 -1.90625,2.0144 -2.41228,2.17003 -0.50603,0.15563 -2.04632,-2.43584 -3.42286,-5.75884 z m 113.56723,-35.05623 c -2.4777,-3.29883 -3.62778,-3.63432 -7.82771,-2.28345 -4.7889,1.54031 -5.61559,0.70795 -2.75489,-2.77377 3.15769,-3.84317 3.16301,-4.66683 0.0546,-8.45717 -1.36967,-1.67018 -2.30546,-3.20726 -2.07952,-3.41573 0.22595,-0.20847 2.53703,0.0916 5.13573,0.66679 4.63964,1.02695 4.75226,1.01173 6.23967,-0.84323 4.05064,-5.05158 4.06535,-5.06298 4.93997,-3.83138 0.45115,0.63531 0.60622,1.94203 0.34459,2.90384 -0.98278,3.61287 0.29625,5.46553 4.53607,6.5704 5.09851,1.32865 5.09706,2.84693 -0.004,4.21931 -2.19257,0.58987 -4.03041,1.49753 -4.08408,2.01702 -0.0537,0.51948 -0.14809,2.48033 -0.20982,4.35746 -0.0618,1.87713 -0.52487,3.54307 -1.02922,3.7021 -0.50434,0.15902 -1.97196,-1.11546 -3.26138,-2.83219 z"
       id="path326"
       inkscape:connector-curvature="0" />
    <path
       style="fill:#fccc09;stroke-width:0.80615634"
       d="m 243.08787,377.02456 c -8.13103,-0.93213 -21.95015,-3.71465 -28.80981,-5.80094 -10.7064,-3.25623 -26.35249,-10.58455 -35.80369,-16.76974 -11.40811,-7.46586 -30.30504,-25.2514 -28.47606,-26.80126 0.19303,-0.16357 31.45412,-16.77402 69.46909,-36.91211 64.97444,-34.41963 68.99959,-36.67478 67.14106,-37.61673 -1.08738,-0.55111 -32.37937,-17.13609 -69.53776,-36.85551 -55.05534,-29.21707 -67.6106,-36.17619 -67.83033,-37.59691 -0.41228,-2.66566 20.57913,-21.70139 30.86733,-27.99156 15.34353,-9.38098 32.38029,-16.07426 49.84758,-19.58377 7.23497,-1.45364 11.16896,-1.71562 26.14117,-1.74083 15.35785,-0.0258 18.79867,0.2022 26.75413,1.77325 27.42877,5.41664 49.26719,16.35147 68.97916,34.53894 15.87599,14.64816 26.02828,29.57868 32.78987,48.22264 5.8205,16.04904 7.61926,29.03717 6.19794,44.75285 -1.88213,20.81092 -5.71716,34.25195 -14.36115,50.3331 -6.59454,12.26837 -14.3356,22.16474 -25.12298,32.11784 -19.13438,17.65454 -42.69612,29.24909 -69.32904,34.11631 -8.85747,1.61872 -31.43955,2.67158 -38.91651,1.81443 z M 132.89601,301.03884 c -0.24428,-0.74532 -1.18071,-3.27166 -2.08096,-5.61408 -1.30847,-3.40463 -1.51853,-5.26861 -1.04716,-9.29227 0.70372,-6.00689 0.38583,-7.10704 -1.96716,-6.80813 -3.26429,0.41468 -4.1715,-5.17775 -4.1715,-25.71479 0,-20.60067 0.90347,-26.13064 4.20047,-25.71027 2.5812,0.32911 2.81321,-0.46099 1.894,-6.44982 -0.75127,-4.89462 -0.63461,-5.79657 1.42297,-11.00178 2.49461,-6.31081 3.01368,-6.90496 4.54502,-5.20252 0.85276,0.94805 0.8463,3.21032 -0.0332,11.61751 -0.6007,5.7421 -0.82843,10.68353 -0.50609,10.98095 0.32235,0.29741 1.29066,0.13476 2.15181,-0.36143 1.2516,-0.72119 1.66232,-0.66994 2.0472,0.25547 0.60009,1.44287 7.08235,4.19048 8.61014,3.64955 0.65699,-0.23261 1.12882,0.12047 1.12882,0.84472 0,3.03075 3.38615,0.86281 9.53797,-6.10658 6.27102,-7.10443 8.53288,-8.6124 12.00668,-8.0048 1.92595,0.33688 2.54294,4.63876 0.88348,6.15995 -0.63904,0.5858 -4.6117,3.5043 -8.82813,6.48556 -7.21615,5.10225 -9.59122,8.13074 -6.37647,8.13074 0.86566,0 1.17224,0.42423 0.85603,1.18453 -0.57377,1.37959 1.8115,7.33337 2.93798,7.33337 0.42026,0 0.53749,0.83314 0.2605,1.85142 -0.277,1.01827 -0.18917,2.03071 0.19516,2.24988 0.38433,0.21916 5.52105,-0.14978 11.41492,-0.81985 l 10.71613,-1.21832 2.51815,2.22596 2.51815,2.22595 -2.02823,1.87138 -2.02824,1.87137 -11.42986,-0.98732 c -6.28643,-0.54302 -11.69312,-0.74442 -12.01488,-0.44754 -0.32175,0.29688 -0.12402,1.22084 0.43941,2.05327 0.82744,1.22247 0.8055,1.51349 -0.11413,1.51349 -1.414,0 -4.29527,5.7033 -3.65681,7.23844 0.2928,0.70401 -0.17258,1.28159 -1.2402,1.53919 -0.93988,0.22677 -1.5459,0.87091 -1.3467,1.43142 0.1992,0.56051 4.20451,3.76479 8.90069,7.12063 8.13439,5.81275 8.5385,6.2391 8.5385,9.00841 0,2.53958 -0.28489,2.95712 -2.25478,3.30457 -1.24013,0.21872 -2.68157,0.24658 -3.2032,0.0619 -0.52163,-0.18468 -4.06371,-3.80763 -7.8713,-8.05097 -6.80803,-7.58716 -8.676,-8.85782 -9.63432,-6.55363 -0.2657,0.63884 -1.23746,1.16153 -2.15948,1.16153 -2.47581,0 -7.60818,2.45185 -7.60818,3.63459 0,0.82288 -0.32304,0.83853 -1.64036,0.0795 -0.9022,-0.51986 -1.91629,-0.69061 -2.25353,-0.37945 -0.33724,0.31116 -0.0413,5.00217 0.65762,10.42448 1.27371,9.88148 0.95647,12.56899 -1.48368,12.56899 -0.52752,0 -1.15899,-0.60981 -1.40326,-1.35512 z m 7.01049,-12.23114 c -0.56716,-3.24388 -0.8675,-6.04899 -0.66743,-6.23359 0.30141,-0.27811 3.12805,8.56556 3.45767,10.81797 0.0545,0.37265 -0.31894,0.82067 -0.82994,0.99557 -0.57746,0.19765 -1.31939,-1.91422 -1.9603,-5.57995 z m 15.26652,-1.70726 c -2.8382,-3.81311 -6.30643,-9.70487 -5.41292,-9.19536 0.97993,0.55879 8.56217,10.1961 8.56217,10.88283 0,1.15066 -1.72458,0.22656 -3.14925,-1.68747 z m 9.86336,-13.46497 c -6.90957,-4.59883 -6.96789,-5.09288 -0.20982,-1.77746 3.34657,1.64178 6.08466,3.43441 6.08466,3.98364 0,1.47558 -0.7874,1.17989 -5.87484,-2.20618 z m 79.73001,-11.7409 c -2.25363,-3.06541 -3.82423,-3.44352 -8.31023,-2.00063 -1.47723,0.47514 -2.851,0.71153 -3.05282,0.52532 -0.20183,-0.18622 0.57279,-1.51381 1.72136,-2.95022 2.61416,-3.26924 2.61416,-4.4497 0,-7.71894 -1.14857,-1.43641 -1.95472,-2.73492 -1.79142,-2.88558 0.16328,-0.15066 2.08955,0.16846 4.28058,0.70915 l 3.98371,0.98307 2.83082,-3.08766 2.83083,-3.08767 0.0125,3.66034 c 0.0135,3.9513 1.34808,5.36046 6.09715,6.43779 3.17891,0.72114 2.89068,1.49816 -0.94952,2.55973 -4.17017,1.15279 -4.95971,2.09123 -5.28726,6.28443 l -0.26754,3.4248 z m -74.58616,0.17571 c -6.53161,-1.73557 -7.71337,-2.59068 -2.61245,-1.89035 6.84731,0.9401 9.30115,1.54953 9.32282,2.31537 0.0331,1.16796 -0.9496,1.10572 -6.71037,-0.42502 z M 163.3354,247.5065 c 2.3055,-1.46193 12.67399,-3.4412 13.59161,-2.59454 0.58156,0.53658 -1.11926,1.08254 -5.3076,1.70372 -3.38987,0.50275 -6.91874,1.08526 -7.84193,1.29447 -1.33681,0.30294 -1.42681,0.22077 -0.44208,-0.40365 z m -3.3346,-9.73263 c 0,-0.59244 9.89219,-6.62061 10.86437,-6.62061 2.40669,0 0.29234,1.80476 -4.98953,4.25896 -3.23116,1.50134 -5.87484,2.56408 -5.87484,2.36165 z m -7.54589,-12.62186 c 3.01889,-5.00529 4.73115,-6.92053 5.52899,-6.1844 0.53246,0.49127 -6.86642,10.63694 -7.75715,10.63694 -0.25154,0 0.75114,-2.00364 2.22816,-4.45254 z m -13.31996,-1.35512 c -0.0778,-3.22355 2.0168,-11.53347 2.82169,-11.19447 1.06663,0.44925 0.79544,2.2894 -1.19331,8.09704 -0.87505,2.55538 -1.60782,3.94922 -1.62838,3.09743 z"
       id="path324"
       inkscape:connector-curvature="0" />
    <path
       style="fill:#6f8dc8;stroke-width:0.80615634"
       d="m 243.08787,377.02456 c -8.13103,-0.93213 -21.95015,-3.71465 -28.80981,-5.80094 -10.7064,-3.25623 -26.35249,-10.58455 -35.80369,-16.76974 -11.40811,-7.46586 -30.30504,-25.2514 -28.47606,-26.80126 0.19303,-0.16357 31.45412,-16.77402 69.46909,-36.91211 64.97444,-34.41963 68.99959,-36.67478 67.14106,-37.61673 -1.08738,-0.55111 -32.37937,-17.13609 -69.53776,-36.85551 -55.05534,-29.21707 -67.6106,-36.17619 -67.83033,-37.59691 -0.41228,-2.66566 20.57913,-21.70139 30.86733,-27.99156 15.34353,-9.38098 32.38029,-16.07426 49.84758,-19.58377 7.23497,-1.45364 11.16896,-1.71562 26.14117,-1.74083 15.35785,-0.0258 18.79867,0.2022 26.75413,1.77325 27.42877,5.41664 49.26719,16.35147 68.97916,34.53894 15.87599,14.64816 26.02828,29.57868 32.78987,48.22264 5.8205,16.04904 7.61926,29.03717 6.19794,44.75285 -1.88213,20.81092 -5.71716,34.25195 -14.36115,50.3331 -6.59454,12.26837 -14.3356,22.16474 -25.12298,32.11784 -19.13438,17.65454 -42.69612,29.24909 -69.32904,34.11631 -8.85747,1.61872 -31.43955,2.67158 -38.91651,1.81443 z"
       id="path322"
       inkscape:connector-curvature="0" />
    <path
       style="fill:#fd1613;stroke-width:0.80615634"
       d="m 243.08787,377.02456 c -8.13103,-0.93213 -21.95015,-3.71465 -28.80981,-5.80094 -10.7064,-3.25623 -26.35249,-10.58455 -35.80369,-16.76974 -11.40608,-7.46454 -30.30717,-25.25338 -28.47606,-26.80036 0.19303,-0.16308 31.13094,-16.58365 68.75092,-36.49015 37.61998,-19.90651 68.88109,-36.60758 69.46912,-37.1135 0.84136,-0.72386 -13.51271,-8.64887 -67.36781,-37.19441 -37.64033,-19.95102 -69.02869,-36.6738 -69.75192,-37.16174 -1.14849,-0.77484 -0.89839,-1.3724 1.97548,-4.72008 5.52511,-6.43602 20.10116,-18.67738 28.1664,-23.65491 16.93777,-10.45327 36.07621,-17.28421 56.39216,-20.12763 8.64266,-1.20962 29.14002,-1.20817 37.76684,0.003 28.37401,3.98253 52.76122,14.95647 73.28589,32.97773 24.26654,21.30675 38.58013,48.898 41.17572,79.37143 2.0808,24.42945 -1.95586,44.13377 -13.40471,65.43303 -6.59454,12.26838 -14.3356,22.16474 -25.12298,32.11784 -19.13438,17.65454 -42.69612,29.2491 -69.32904,34.11631 -8.85747,1.61872 -31.43955,2.67158 -38.91651,1.81443 z"
       id="path320"
       inkscape:connector-curvature="0" />
    <path
       style="fill:#1c4ead;stroke-width:0.80615634"
       d="M 221.63839,217.35075 C 184.22267,197.47187 152.74178,180.6755 151.68087,180.02546 l -1.92893,-1.18187 3.3063,-3.85144 c 5.53918,-6.45247 20.10745,-18.68999 28.18226,-23.67342 16.93777,-10.45327 36.07621,-17.28421 56.39216,-20.12763 8.64266,-1.20962 29.14002,-1.20817 37.76684,0.003 28.37401,3.98253 52.76122,14.95647 73.28589,32.97773 20.04473,17.59986 33.0288,38.93059 38.72456,63.61816 1.74461,7.5618 3.44448,22.99339 2.73758,24.85195 -0.28931,0.76061 -11.08989,0.95558 -50.42436,0.91023 l -50.05619,-0.0577 z"
       id="path318"
       inkscape:connector-curvature="0" />
    <path
       style="fill:#043ea6;stroke-width:0.80615634"
       d="m 286.65996,250.59427 c -13.11907,-6.52926 -134.62934,-71.31501 -134.83762,-71.89151 -0.46396,-1.28424 10.75475,-12.51727 18.47821,-18.50181 13.78043,-10.67778 27.80517,-17.97783 44.35566,-23.08766 25.62503,-7.91151 57.32368,-7.9443 83.32313,-0.0862 50.99584,15.41304 87.86874,58.86751 90.856,107.07319 l 0.53839,8.68807 -49.08371,0.0343 -49.08371,0.0343 z"
       id="path316"
       inkscape:connector-curvature="0" />
  </g>
</svg>
