<?xml version="1.0" encoding="UTF-8" standalone="no"?>
<!-- Created with Inkscape (http://www.inkscape.org/) -->

<svg
   xmlns:dc="http://purl.org/dc/elements/1.1/"
   xmlns:cc="http://creativecommons.org/ns#"
   xmlns:rdf="http://www.w3.org/1999/02/22-rdf-syntax-ns#"
   xmlns:svg="http://www.w3.org/2000/svg"
   xmlns="http://www.w3.org/2000/svg"
   xmlns:sodipodi="http://sodipodi.sourceforge.net/DTD/sodipodi-0.dtd"
   xmlns:inkscape="http://www.inkscape.org/namespaces/inkscape"
   version="1.1"
   id="svg80"
   width="500"
   height="500"
   viewBox="0 0 500 500"
   sodipodi:docname="logo.png.svg"
   inkscape:version="0.92.5 (2060ec1f9f, 2020-04-08)">
  <metadata
     id="metadata86">
    <rdf:RDF>
      <cc:Work
         rdf:about="">
        <dc:format>image/svg+xml</dc:format>
        <dc:type
           rdf:resource="http://purl.org/dc/dcmitype/StillImage" />
        <dc:title></dc:title>
      </cc:Work>
    </rdf:RDF>
  </metadata>
  <defs
     id="defs84" />
  <sodipodi:namedview
     pagecolor="#ffffff"
     bordercolor="#666666"
     borderopacity="1"
     objecttolerance="10"
     gridtolerance="10"
     guidetolerance="10"
     inkscape:pageopacity="0"
     inkscape:pageshadow="2"
     inkscape:window-width="1920"
     inkscape:window-height="1016"
     id="namedview82"
     showgrid="false"
     inkscape:zoom="1.185111"
     inkscape:cx="19.121066"
     inkscape:cy="191.78708"
     inkscape:window-x="0"
     inkscape:window-y="27"
     inkscape:window-maximized="1"
     inkscape:current-layer="svg80" />
  <g
     id="g90"
     transform="matrix(1.100918,0,0,1.0586616,-25.93757,3.5118867)">
    <path
       style="fill:#d0d0d0"
       d="m 301,448.52022 c -25.61484,-3.79897 -45.85624,-13.6387 -63.96293,-31.0936 -27.24808,-26.26722 -39.76333,-63.56145 -36.9235,-110.02847 1.23488,-20.20586 3.06288,-29.94992 9.07958,-48.39815 5.28291,-16.19832 14.87642,-34.72441 23.84635,-46.04987 2.68647,-3.39195 2.95937,-4.56897 3.95241,-17.04683 1.47908,-18.58503 4.48517,-44.03842 8.5958,-72.7829 1.91754,-13.40878 3.34744,-24.518582 3.17757,-24.688455 -0.16987,-0.169873 -2.73439,9.225945 -5.69893,20.879595 -15.92996,62.62099 -24.62697,85.90994 -39.7543,106.45455 -5.66882,7.69889 -14.78525,15.21274 -21.0705,17.3665 -10.19496,3.4935 -22.55674,0.34909 -27.67753,-7.04021 -9.39898,-13.56273 -9.77619,-29.29107 -2.48028,-103.4175 1.66869,-16.95381 2.88729,-31.57881 2.70801,-32.5 -0.17928,-0.921183 -4.06454,14.97512 -8.63393,35.32512 -10.57442,47.09378 -16.75611,71.22387 -23.20629,90.58531 -11.83905,35.53716 -24.371889,61.75528 -38.559488,80.66469 -5.913289,7.8813 -8.182552,8.85972 -12.479172,5.38053 l -2.308698,-1.86947 10.100816,-19.88053 C 100.5569,249.33957 115.43684,210.62602 127.89623,165 c 4.18272,-15.31703 22.69085,-89.525083 29.7814,-119.408055 2.09686,-8.837165 3.63771,-10.571654 8.0196,-9.027397 l 2.80277,0.987746 0.0404,78.973856 c 0.0298,58.31164 0.36526,80.80529 1.28202,85.97385 4.14361,23.36118 11.88725,29.88145 22.37402,18.83928 7.87076,-8.28761 18.77251,-31.33456 27.59586,-58.33928 6.88891,-21.08417 21.30613,-73.767076 30.70187,-112.189727 4.26211,-17.429351 8.28553,-31.895502 8.94093,-32.147003 2.10276,-0.806903 6.59967,0.529464 7.43369,2.209101 0.44455,0.895275 -0.45396,17.150954 -1.9969,36.127629 -3.93252,48.36618 -5.86827,84.04814 -5.87023,108.2064 L 259,185.91281 266.31729,180.6629 C 286.26099,166.35395 311.49,157.73153 333.5,157.70212 c 10.82572,-0.0145 18.31566,1.65056 26.82731,5.96374 l 4.91272,2.48947 12.43935,-4.1366 c 7.11699,-2.36669 13.80452,-4.00441 15.62999,-3.82766 2.91277,0.28203 3.19063,0.61005 3.19063,3.76665 0,3.40947 -0.12904,3.51287 -9.25,7.41123 -5.0875,2.17444 -9.25,4.37135 -9.25,4.88203 0,0.51068 2.22928,3.4297 4.95396,6.48672 5.6752,6.36744 11.11971,16.82769 13.6694,26.2623 2.57376,9.52366 2.35537,30.85342 -0.42117,41.13565 -6.95967,25.77343 -25.50364,42.892 -46.42064,42.85248 -11.52883,-0.0218 -21.6034,-3.9352 -29.75155,-11.55684 -20.71097,-19.37269 -16.24409,-58.16208 9.99389,-86.78463 5.1195,-5.58478 17.82149,-15.92112 22.83347,-18.58092 3.32495,-1.76451 1.74256,-2.83423 -6.92264,-4.67982 -24.19684,-5.15364 -54.86103,7.28072 -78.68472,31.90675 -6.98901,7.22439 -7.24934,7.669 -7.23168,12.35075 0.0213,5.65685 2.23484,21.80117 4.36776,31.85658 2.48524,11.7164 6.58399,23.53777 11.44187,33 5.70587,11.11395 16.31622,22.33031 26.42205,27.93116 7.39661,4.09933 8.41055,6.29658 4.90396,10.62703 -1.76516,2.17988 -2.10468,2.22799 -7.75,1.09821 -7.02577,-1.40606 -18.05713,-6.47303 -26.09505,-11.9861 -15.23517,-10.44955 -26.02653,-27.23969 -32.40288,-50.41527 -1.32332,-4.80974 -2.6867,-8.74724 -3.02974,-8.75 -1.0198,-0.008 -6.81648,18.41266 -8.9085,28.30972 -6.07269,28.72908 -4.77598,61.53032 3.39467,85.87025 11.5652,34.45215 37.02336,59.98705 68.50439,68.71088 30.38644,8.42052 61.31996,3.43239 88.65688,-14.29619 10.5251,-6.82574 27.76257,-23.72495 34.49494,-33.81802 4.89134,-7.33301 6.97722,-8.24222 11.12055,-4.84733 l 2.36078,1.93435 -2.41319,4.61133 c -7.40698,14.15387 -26.2649,34.05917 -42.25638,44.60331 C 365.57096,446.05714 333.10684,453.28204 301,448.52022 Z m 61.75429,-170.58566 c 17.59183,-7.55023 29.74799,-42.21342 23.74014,-67.69483 -2.57331,-10.91434 -12.50062,-27.15476 -17.58543,-28.76861 -5.21509,-1.65521 -24.61627,17.58181 -31.79795,31.52888 -10.67017,20.72184 -12.90631,42.20689 -5.825,55.96721 5.4234,10.53869 18.87544,14.37205 31.46824,8.96735 z"
       id="path104"
       inkscape:connector-curvature="0" />
    <path
       style="fill:#afafaf"
       d="m 298.43716,447.44103 c -16.21402,-2.72565 -33.41394,-9.60476 -46.89995,-18.75764 -14.7168,-9.98821 -29.79296,-27.87785 -37.91193,-44.98694 -10.63755,-22.4165 -15.20392,-50.62528 -12.77965,-78.94645 2.86812,-33.50641 11.72295,-59.92365 28.57505,-85.25 l 7.31938,-11 1.1803,-15 c 1.33448,-16.95951 6.75812,-60.84054 10.54989,-85.35588 2.50747,-16.211846 2.98885,-20.936556 2.03606,-19.983759 -0.27154,0.271532 -4.5072,16.209029 -9.41259,35.416669 -16.34739,64.01014 -27.66192,91.8327 -43.98077,108.14919 -14.39956,14.39746 -30.7474,16.33078 -40.8446,4.83033 -6.32994,-7.20964 -7.53247,-11.76776 -8.03736,-30.46509 -0.49407,-18.29651 0.24237,-29.48692 5.36002,-81.44688 1.94232,-19.72048 3.32573,-36.061174 3.07425,-36.312653 C 156.1544,87.821068 155.41623,90.92509 143.42677,144 c -4.65912,20.625 -10.06448,43.575 -12.0119,51 -10.33931,39.42096 -25.48398,77.05569 -40.722809,101.19677 -10.108637,16.01392 -13.502373,18.87242 -18.250931,15.37254 -1.871497,-1.37938 -1.647969,-1.99818 6.231131,-17.25 C 92.883924,266.80934 107.24096,232.94351 117.38606,203 c 7.72585,-22.80304 25.64548,-91.24457 38.09538,-145.5 4.77083,-20.790814 4.73282,-20.702829 8.77575,-20.312823 L 167.5,37.5 l 0.55681,83 c 0.49439,73.69696 0.74658,83.70609 2.24995,89.29958 3.28621,12.22671 7.00618,17.20042 12.86467,17.20042 7.60213,0 16.52367,-11.6161 26.33282,-34.28611 10.61765,-24.53852 22.992,-66.34321 39.57982,-133.71389 4.9428,-20.075 9.35441,-37.175 9.80355,-38 1.08657,-1.995818 4.21295,-2.383044 6.36006,-0.787741 1.63881,1.217642 1.57066,3.329088 -1.25201,38.787741 -1.64185,20.625 -3.6616,49.65 -4.48834,64.5 -1.44157,25.89358 -2.04326,63.5 -1.01598,63.5 0.27024,0 2.57179,-1.58804 5.11455,-3.52897 18.4388,-14.07466 42.78481,-23.39728 65.57075,-25.10849 10.70918,-0.80425 18.5167,0.59097 29.50571,5.27275 7.63751,3.25389 8.36999,3.38917 11,2.03154 C 374.0686,163.40263 389.25903,159 392.68497,159 c 2.16223,0 3.22674,0.55438 3.56764,1.85797 C 396.80012,162.95167 395.41226,166 393.91151,166 391.96272,166 377,173.29839 377,174.24895 c 0,0.53385 2.14596,3.31865 4.76879,6.18845 9.64058,10.54833 15.02792,24.32682 15.93455,40.75368 1.30856,23.7092 -5.57252,43.74899 -19.62441,57.15222 -8.26896,7.88726 -15.2267,10.93549 -26.17721,11.46839 -18.59911,0.90513 -32.55494,-7.29829 -40.19656,-23.62806 -2.67411,-5.71443 -3.12511,-7.92871 -3.48768,-17.12338 -0.53331,-13.5245 1.22942,-21.33709 7.8259,-34.68519 7.48264,-15.14129 21.11623,-29.89418 36.29584,-39.27569 2.02028,-1.24861 3.42253,-2.67584 3.11611,-3.17164 -1.37527,-2.22525 -12.23715,-4.32989 -21.95533,-4.25416 -22.60894,0.17619 -46.12397,11.86526 -66.8777,33.24419 l -7.87769,8.11501 0.70299,8.23361 c 2.44167,28.59759 9.89921,54.08497 20.29714,69.36886 5.24402,7.70818 14.95056,16.6056 22.75526,20.85844 4.9081,2.67445 5.95118,3.68581 5.73175,5.5574 -0.49612,4.23157 -2.17997,5.21342 -7.68837,4.48308 -11.36433,-1.50676 -28.21827,-11.09521 -37.91803,-21.57211 -9.95326,-10.7507 -17.12496,-25.06506 -21.7029,-43.31788 -1.20944,-4.8222 -2.56256,-8.40235 -3.00693,-7.9559 -0.44436,0.44645 -2.41613,5.62057 -4.3817,11.49805 -19.25673,57.58187 -7.59567,121.01105 28.03368,152.48631 18.04921,15.94483 35.0357,23.1203 60.16743,25.41605 10.95557,1.00078 14.26402,0.93348 23.12843,-0.47051 12.92641,-2.04734 22.8516,-5.34868 35.09365,-11.67293 16.68374,-8.61883 30.26601,-20.44591 43.12014,-37.54789 3.88477,-5.16854 7.43178,-9.39735 7.88225,-9.39735 0.45047,0 1.87886,0.8582 3.17421,1.90711 l 2.35518,1.90711 -2.11584,4.34289 c -6.20944,12.74526 -26.19017,33.96644 -41.52897,44.10718 -15.85368,10.48114 -33.03027,17.30128 -50.84398,20.18812 -11.50612,1.86465 -32.43549,1.85919 -43.56284,-0.0114 z M 363.5,278.49158 c 9.15984,-4.40799 19.17087,-19.1706 23.05087,-33.99158 4.02488,-15.37442 2.70257,-33.14631 -3.42584,-46.04327 -3.33417,-7.01663 -11.25064,-17.04443 -14.193,-17.9783 -2.69174,-0.85433 -8.02463,2.83933 -17.16255,11.88706 -16.16762,16.00808 -24.99633,36.3392 -25.02755,57.63451 -0.0219,14.92893 4.1281,23.73486 13.39293,28.4187 4.63474,2.3431 6.3181,2.66371 12.36514,2.35508 4.18748,-0.21373 8.60715,-1.13069 11,-2.2822 z"
       id="path102"
       inkscape:connector-curvature="0" />
    <path
       style="fill:#8f8f8f"
       d="m 309.5,448.29875 c -17.20876,-1.57048 -31.7083,-5.77223 -46.64837,-13.51799 -30.54142,-15.83436 -50.80061,-43.99378 -58.99713,-82.00351 -2.60085,-12.06096 -3.58552,-40.24547 -1.91531,-54.8227 3.44588,-30.07484 12.36263,-54.90778 28.24988,-78.67527 l 7.50043,-11.22071 0.6433,-11.77929 c 0.99254,-18.17408 7.02182,-66.37343 12.73161,-101.77928 1.06436,-6.6 1.90676,-12.9 1.87201,-14 -0.0586,-1.855871 -0.12742,-1.840406 -0.95449,0.214599 -0.49021,1.21803 -4.54043,16.51803 -9.00049,34.000001 -16.22961,63.61477 -24.76759,87.5768 -38.05172,106.79296 C 194.64239,236.38872 184.67656,242.9854 172.5,242.97378 160.80066,242.96261 154.32314,237.5649 150.33333,224.50231 146.67984,212.5408 148.083,181.66757 155.53738,110 c 1.34437,-12.925 2.41991,-24.4 2.39008,-25.5 -0.12284,-4.529898 -2.4822,4.702002 -13.03389,51 -12.53347,54.99355 -16.17793,69.2659 -22.8539,89.5 -10.17546,30.84067 -21.57669,55.72606 -34.127146,74.4891 -8.497142,12.7033 -10.087635,14.20777 -13.416586,12.691 C 73.123172,311.55463 72,310.36685 72,309.5406 c 0,-0.82625 2.900563,-7.0234 6.445695,-13.77144 C 96.902692,260.63689 114.24205,217.24981 125.51136,178 c 5.57636,-19.42187 22.05982,-84.460014 30.03299,-118.5 2.57652,-11 5.23014,-20.580993 5.89693,-21.291096 0.90682,-0.965727 1.89921,-1.029949 3.93789,-0.254842 l 2.72556,1.036254 -0.6791,72.254844 c -0.6998,74.45725 -0.25426,88.56817 3.18123,100.75484 3.21171,11.39287 8.71982,17.13876 14.9343,15.57903 9.09968,-2.28388 22.13013,-25.1672 33.92609,-59.57903 6.36935,-18.58103 21.57722,-73.681545 31.53327,-114.25 L 259.28323,20 h 2.88977 c 1.70898,0 3.13706,0.644419 3.49496,1.577096 0.33285,0.867403 -0.60124,16.954903 -2.07576,35.75 C 262.11767,76.122193 260.48281,97.8 259.95917,105.5 c -1.32673,19.50905 -3.08912,78.51519 -2.40909,80.65778 0.47672,1.50201 1.93616,0.81522 9.75525,-4.59068 23.00728,-15.90658 45.61311,-23.2192 69.16104,-22.37247 9.97444,0.35865 11.93121,0.76102 20.38371,4.19151 5.14255,2.08713 10.09255,3.55599 11,3.26414 0.90746,-0.29186 5.58345,-1.89895 10.39109,-3.57133 4.80764,-1.67237 10.65764,-3.16179 13,-3.30981 3.73212,-0.23585 4.29774,0.004 4.57342,1.94304 0.27172,1.91065 -1.01426,2.83316 -9.43473,6.76807 -5.36213,2.50573 -9.94451,4.75107 -10.18308,4.98963 -0.23856,0.23857 1.62526,2.84385 4.14182,5.78953 10.13748,11.86604 15.11894,23.33221 16.68431,38.40342 3.23788,31.1739 -10.83274,60.79728 -33.02291,69.5243 -7.70618,3.03071 -21.25388,3.09339 -29.17749,0.13499 -18.2256,-6.8048 -28.35525,-24.45202 -26.40286,-45.99736 2.19052,-24.17319 17.22829,-47.34395 41.40168,-63.79325 6.60798,-4.49654 7.13242,-5.09216 5.52101,-6.27046 -3.63148,-2.6554 -10.08454,-3.74702 -21.84234,-3.69495 -10.32512,0.0457 -13.18638,0.44097 -20.5,2.83174 -18.69349,6.11075 -39.66301,20.40222 -51.05348,34.79474 -4.18696,5.29047 -4.14872,4.56786 -1.33932,25.30742 5.2363,38.65543 18.27892,63.48966 40.1428,76.43522 7.55906,4.4757 8.71424,6.43562 5.5,9.33143 -2.09517,1.8876 -7.69503,1.10423 -16.28395,-2.27798 C 265.97026,304.53943 248.16796,282.12868 241.51882,253 c -2.32601,-10.18982 -2.43527,-10.48355 -3.50275,-9.41607 -1.49505,1.49505 -5.89149,13.9116 -8.5534,24.15674 -6.37331,24.52952 -7.19747,56.83841 -2.02908,79.54457 5.74706,25.24841 15.15126,43.08222 31.16022,59.09118 18.76913,18.76913 43.56091,28.61837 72.04572,28.62221 17.43592,0.002 32.4873,-3.83814 49.52107,-12.63574 17.14574,-8.85543 33.39446,-23.24176 44.33439,-39.2529 5.03758,-7.37276 6.99938,-8.43117 9.82999,-5.30338 1.52727,1.68761 1.39096,2.21907 -2.06937,8.06843 -9.34771,15.80141 -25.84474,32.41563 -42.67261,42.97576 -23.80785,14.94034 -52.67073,21.94961 -80.083,19.44795 z m 50.29619,-167.83086 c 7.47336,-2.21936 15.86953,-10.31292 20.98286,-20.22666 13.95171,-27.04957 10.70212,-58.53796 -7.93558,-76.89541 l -4.74689,-4.67551 -4.03588,2.67082 c -6.30926,4.17527 -17.85291,15.50524 -22.55108,22.13364 -5.59683,7.89628 -8.66786,14.15251 -12.03882,24.52523 -2.37674,7.31343 -2.7769,10.24496 -2.86658,21 -0.0923,11.067 0.15987,13.0732 2.19939,17.5 5.91275,12.83363 17.39155,18.00696 30.99258,13.96789 z"
       id="path100"
       inkscape:connector-curvature="0" />
    <path
       style="fill:#6f6f6f"
       d="m 298.43716,446.44103 c -49.76303,-8.3654 -85.48867,-45.19011 -95.01789,-97.94103 -2.246,-12.43322 -2.54469,-42.68168 -0.55297,-56 4.13712,-27.66431 12.97441,-51.08897 27.54032,-73 l 7.31252,-11 1.18576,-15.5 c 1.43236,-18.7234 5.74686,-53.2005 11.12156,-88.87232 6.14941,-40.813538 5.42127,-40.437984 -5.53221,2.85336 -14.39067,56.87609 -20.35673,76.21334 -29.5588,95.80636 -8.63685,18.38955 -19.48357,31.88045 -29.90765,37.19842 -6.06549,3.09438 -14.77864,3.76295 -20.5108,1.57382 -13.04042,-4.98018 -17.60655,-20.54901 -15.54601,-53.00621 1.2025,-18.94144 3.83363,-48.42649 7.51914,-84.26093 2.26525,-22.025233 2.40467,-25.520637 0.96033,-24.076291 -0.30225,0.302248 -5.69954,23.182301 -11.99399,50.844561 C 129.3362,201.9047 123.82605,221.71145 111.8763,251.76775 100.39309,280.6506 81.743533,312 76.044521,312 71.246124,312 71.849437,309.77575 82.301687,288.93151 101.76212,250.12284 116.31446,212.60037 127.84515,171.5 c 5.1005,-18.1804 20.61908,-79.900321 27.15503,-108 2.81445,-12.1 5.3461,-22.7875 5.62589,-23.75 0.57939,-1.99315 4.85299,-2.401921 5.98373,-0.572346 0.4003,0.64771 0.63726,35.63521 0.52656,77.749996 -0.16833,64.04356 0.0458,78.1696 1.30853,86.33431 2.55569,16.52439 7.59406,24.73804 15.17468,24.73804 9.94986,0 24.23867,-23.82534 36.75448,-61.28491 C 226.93054,147.09164 240.784,96.848781 250.07432,59 c 4.38757,-17.875 8.31829,-33.85 8.73492,-35.5 0.48078,-1.904069 1.47594,-3.09342 2.72413,-3.255728 4.67261,-0.607596 4.66594,-0.779731 1.5223,39.323736 -3.92781,50.107212 -4.85319,66.439132 -5.6764,100.181992 -0.49165,20.1526 -0.37659,28.25 0.40141,28.25 0.59984,0 4.83207,-2.68148 9.40496,-5.95884 14.98754,-10.74145 33.06729,-18.33118 51.19973,-21.49321 16.63884,-2.90157 27.73417,-1.68761 41.46067,4.53628 l 6.46174,2.92989 6.43771,-2.57549 c 3.54075,-1.41652 9.659,-3.40573 13.59612,-4.42047 5.93029,-1.52845 7.39314,-1.61895 8.52671,-0.52753 2.11641,2.03771 0.71145,3.22317 -9.44467,7.96915 -5.18301,2.42204 -9.42365,4.9248 -9.42365,5.5617 0,0.6369 2.27832,3.70512 5.06293,6.81826 6.36139,7.11191 12.50071,19.41072 14.55624,29.16026 1.92879,9.14842 1.33199,29.35464 -1.13712,38.5 -4.39327,16.27231 -15.4957,30.98175 -27.98205,37.073 -5.57258,2.71849 -6.81922,2.927 -17.5,2.927 -10.55934,0 -11.96434,-0.22805 -17.17681,-2.78799 -8.35344,-4.10255 -15.10312,-10.93435 -18.98107,-19.21201 -2.84717,-6.07743 -3.3321,-8.29268 -3.6794,-16.80824 -0.4635,-11.36501 0.8512,-19.29213 4.87709,-29.40692 6.02342,-15.13345 16.36371,-27.83629 32.31931,-39.70362 C 352.21161,176.2283 357,172.34065 357,171.94199 c 0,-1.36166 -8.12928,-3.9801 -15.56957,-5.01495 -17.62375,-2.45124 -40.07299,4.7909 -59.51712,19.20025 -8.96699,6.64512 -22.75954,20.41187 -23.53146,23.48744 -1.31895,5.25509 3.74823,36.34118 8.2601,50.6741 7.1668,22.76682 19.36001,39.26499 35.29738,47.75952 6.32457,3.37096 6.94908,4.35442 4.70975,7.41688 -1.79257,2.45148 -8.27841,1.60716 -17.53725,-2.28299 -14.85439,-6.24115 -28.25424,-17.96215 -35.9138,-31.41419 -4.87752,-8.5661 -10.41619,-23.30559 -12.23884,-32.56994 -0.67594,-3.43575 -1.62192,-6.48967 -2.10218,-6.78648 -1.86654,-1.15359 -8.54563,18.33915 -11.86504,34.62777 -4.65281,22.83176 -4.6129,48.89842 0.10824,70.68916 7.37424,34.03624 26.06625,60.38493 53.89979,75.97838 16.88498,9.45963 43.24026,13.96013 63.7414,10.88466 30.91174,-4.63721 59.27557,-22.50833 79.15925,-49.87564 3.48291,-4.79378 6.61759,-8.70165 6.96596,-8.68416 0.34836,0.0175 1.5096,0.69447 2.58052,1.50439 1.92612,1.45669 1.92481,1.51842 -0.12144,5.7182 -5.68116,11.66018 -23.24389,30.803 -37.77137,41.16959 -14.85339,10.59917 -34.69096,18.85506 -52.93531,22.03035 -10.84258,1.88707 -32.91673,1.88043 -44.18185,-0.0133 z M 363.5,279.49383 c 11.0138,-5.29398 20.85718,-20.77292 24.53017,-38.57427 3.45633,-16.75132 2.00992,-30.46806 -4.59367,-43.56297 C 379.31982,189.19321 370.73663,179 367.97934,179 c -2.492,0 -15.53448,10.5926 -21.17445,17.19706 -10.02662,11.74129 -17.31411,26.28689 -19.73727,39.39495 -1.35207,7.31402 -1.37174,22.77286 -0.0351,27.5853 1.85897,6.69307 6.98701,13.07641 12.96749,16.14182 4.808,2.46443 6.38072,2.77372 12.5,2.45825 4.17404,-0.21519 8.61484,-1.13708 11,-2.28355 z"
       id="path98"
       inkscape:connector-curvature="0" />
    <path
       style="fill:#4f4f4f"
       d="M 303.5,446.85477 C 286.98785,444.7501 268.15772,437.98933 255,429.44133 233.0637,415.19026 218.07313,395.34188 209.0212,368.56271 203.25945,351.5172 202.49926,345.73237 202.50813,319 c 0.007,-21.53875 0.28468,-25.86989 2.29623,-35.83379 4.76173,-23.58653 15.04213,-48.32704 27.03535,-65.06246 5.77623,-8.06019 6.04237,-8.70058 6.64942,-16 2.54315,-30.57987 6.97967,-66.20736 13.54932,-108.80766 5.66476,-36.732662 3.94315,-33.210036 -9.47431,19.38552 -11.66041,45.70806 -15.75195,59.80012 -22.03242,75.88408 -14.16186,36.26774 -29.89687,53.9124 -48.03172,53.86095 -11.6757,-0.0331 -18.80738,-6.68959 -21.94445,-20.48224 -2.95511,-12.99262 -1.84795,-36.02203 4.98556,-103.70146 6.08418,-60.258086 5.97628,-60.038447 -14.12751,28.75706 -9.58549,42.33769 -12.7112,54.5069 -19.13563,74.5 -11.5723,36.01348 -25.96206,66.52101 -39.974802,84.75 -4.647596,6.046 -5.249575,6.38423 -8.380331,4.7087 -1.83407,-0.98156 -1.519274,-1.85635 5.487794,-15.25 18.305296,-34.98963 35.291929,-77.3145 46.223359,-115.17274 6.66802,-23.093 18.81769,-70.60352 28.39478,-111.03596 3.9083,-16.5 7.48038,-30.382202 7.93795,-30.849337 0.45758,-0.467135 1.84878,-0.52661 3.09156,-0.132166 l 2.2596,0.717171 -0.59524,70.205792 c -0.74142,87.44697 0.0622,100.54433 6.8904,112.30297 10.57323,18.20776 27.27356,0.31787 44.75503,-47.9429 C 226.01194,152.69924 245.2472,82.97321 255.00391,41 c 2.36519,-10.175 4.69843,-19.016044 5.18499,-19.646765 0.48655,-0.630721 1.83197,-0.899031 2.98983,-0.596245 2.45526,0.642066 2.43224,1.563444 -1.16735,46.724366 -1.13897,14.289746 -2.72541,37.014744 -3.52542,50.500004 -1.55189,26.15932 -1.99371,69.5868 -0.71598,70.37648 0.42348,0.26173 3.4467,-1.52653 6.71826,-3.97391 18.15626,-13.58227 38.74483,-21.79811 60.94729,-24.32092 12.84406,-1.45945 22.43041,0.072 34.57977,5.52434 5.56552,2.49766 6.50024,2.64745 9.33476,1.49592 6.10289,-2.47932 17.69938,-6.06754 21.65172,-6.69954 3.62722,-0.58002 3.99822,-0.43899 3.99822,1.51985 0,1.18755 -0.7875,2.43218 -1.75,2.76584 -4.0301,1.39706 -18.25,8.24784 -18.25,8.79238 0,0.32534 2.50769,3.61703 5.57265,7.31486 5.89059,7.10693 12.48122,19.69076 14.27129,27.2489 6.20373,26.19382 -3.01528,58.97893 -20.24188,71.98513 -9.1189,6.88484 -13.73144,8.43464 -25.10206,8.43421 -12.42133,-4.8e-4 -18.57295,-2.1919 -26.84213,-9.56209 -11.86181,-10.57226 -16.07381,-26.27081 -12.14801,-45.27682 4.32459,-20.93667 17.31516,-39.42469 38.00838,-54.09302 7.40281,-5.24747 9.28532,-7.04474 8.44252,-8.06025 -2.02447,-2.43933 -10.42756,-4.58803 -19.96076,-5.10403 -8.07009,-0.43681 -11.00516,-0.12472 -19.5,2.07344 -18.6233,4.81906 -37.37129,16.28812 -52.27797,31.98098 -7.08203,7.45554 -7.22194,7.70463 -7.21742,12.8499 0.007,7.86825 3.58769,30.66721 6.48949,41.31876 7.12044,26.13676 19.57395,44.32291 36.54593,53.36888 6.13898,3.27204 7.43213,5.59268 4.48119,8.04174 -3.08532,2.56059 -19.01546,-3.13202 -30.15842,-10.77706 -16.28076,-11.17001 -26.91871,-28.14765 -33.21675,-53.01229 -1.45533,-5.74563 -3.08454,-10.50205 -3.62048,-10.56982 -2.21389,-0.27995 -10.13006,24.38731 -13.1181,40.87678 -2.81802,15.55121 -2.62866,47.45154 0.36626,61.70283 8.02535,38.18845 27.92038,66.14897 57.74607,81.15643 23.67565,11.91294 55.83977,13.89722 80.79613,4.98452 23.36977,-8.34608 43.01975,-23.06716 58.85723,-44.09378 3.83196,-5.0875 7.55552,-9.25 8.27457,-9.25 0.71906,0 1.8526,0.65695 2.51898,1.45989 0.98761,1.18999 0.20921,2.99253 -4.21035,9.75 -13.50875,20.65474 -32.13634,36.94873 -54.13375,47.35204 -21.84484,10.33116 -47.79251,14.394 -72.12261,11.29284 z m 60.50204,-167.37852 c 9.52854,-4.7804 18.17663,-16.80897 22.98971,-31.97625 3.09115,-9.74099 3.89727,-28.4575 1.61515,-37.5 -2.51994,-9.98476 -7.19022,-18.54193 -14.10057,-25.8359 l -6.25148,-6.59853 -4.37742,2.87958 c -6.33138,4.16494 -18.39261,16.07372 -23.50561,23.20852 -9.73022,13.57777 -14.68765,29.10397 -14.79813,46.34633 -0.064,9.98245 0.22998,12.15981 2.22753,16.5 2.58748,5.62196 7.22324,10.88197 11.69878,13.27413 6.82522,3.64806 16.88046,3.52581 24.50204,-0.29788 z"
       id="path96"
       inkscape:connector-curvature="0" />
    <path
       style="fill:#2e2e2e"
       d="M 309.85212,446.94098 C 244.66744,441.41778 202,391.34979 202,320.38219 c 0,-37.6633 9.82568,-71.3755 29.40289,-100.88219 l 7.29832,-11 1.1764,-15.7324 c 1.49814,-20.0353 5.93887,-55.24818 11.64743,-92.35862 2.46123,-16.000056 4.43825,-30.850056 4.39339,-32.999997 L 255.83685,63.5 l -1.4385,3.292182 c -0.79118,1.8107 -6.34888,22.5107 -12.35044,45.999998 -6.00156,23.4893 -12.1047,46.53282 -13.56254,51.20782 -13.60873,43.6404 -27.83335,67.66742 -44.71338,75.52605 -9.93863,4.627 -21.56875,2.54017 -27.23341,-4.88658 -9.26583,-12.14813 -9.26259,-31.25687 0.0206,-121.63947 3.69187,-35.944527 4.05742,-42.016612 2.43161,-40.3908 -1.39338,1.39338 -4.11567,12.520112 -16.48796,67.3908 -13.70623,60.78662 -21.86715,89.11781 -33.99043,118 -7.59546,18.09526 -21.022979,41.83915 -28.199722,49.86561 -3.454493,3.8635 -3.989527,4.13275 -5.694991,2.86592 -1.795556,-1.33375 -1.557311,-2.0165 5.169578,-14.81486 C 99.504063,258.40418 117.69966,211.86017 129.59868,168.5 135.06476,148.58153 153.24707,75.78847 158.69814,52 c 2.69489,-11.760513 3.00728,-12.5 5.28042,-12.5 h 2.41607 l -0.26033,75 c -0.27199,78.3575 0.0928,87.54934 3.97299,100.11195 4.01267,12.99152 12.49441,17.915 20.04901,11.63805 4.99374,-4.14918 7.29268,-7.02911 12.17351,-15.25 9.9476,-16.75498 19.4036,-42.8575 32.06036,-88.5 8.17117,-29.46667 17.64234,-66.165647 22.64629,-87.75 2.66435,-11.492608 3.48795,-13.75 5.0166,-13.75 1.0059,0 2.08701,0.417625 2.40248,0.928056 0.31546,0.51043 -0.56113,15.081426 -1.94798,32.379991 -3.63288,45.313999 -5.30945,74.378383 -6.10964,105.914723 -0.61614,24.28286 -0.51531,27.79495 0.81258,28.30451 0.90784,0.34837 4.59258,-1.62559 9.18512,-4.92059 11.22579,-8.05413 20.87624,-13.08435 32.65985,-17.02368 25.43961,-8.50462 45.23973,-8.54797 61.84115,-0.1354 l 4.71934,2.39147 11.44202,-3.86905 c 12.664,-4.28226 17.01684,-5.08365 17.66002,-3.25135 0.25995,0.74055 -3.52415,3.05292 -9.64511,5.8939 C 379.10928,170.38052 375,172.87764 375,173.73364 c 0,0.79522 2.27832,3.99296 5.06293,7.1061 6.36541,7.1164 12.50357,19.41711 14.55122,29.16026 1.94091,9.23529 1.35354,29.52317 -1.11464,38.5 -5.96128,21.68125 -20.84545,37.06879 -38.16156,39.45217 -17.96472,2.47266 -34.2411,-6.0221 -41.6308,-21.7274 -2.80169,-5.95443 -3.20749,-7.94342 -3.54246,-17.36315 -0.4251,-11.95452 0.56517,-17.85641 4.74943,-28.30611 6.56168,-16.38704 19.51527,-31.46068 36.83588,-42.86466 3.4375,-2.26327 6.25,-4.71989 6.25,-5.45917 0,-2.06856 -7.65926,-4.96224 -16.27297,-6.14796 -20.2337,-2.78526 -44.93001,6.23599 -66.63799,24.34202 C 266.24005,197.80643 257,208.24817 257,210.8673 c 0,4.41582 3.29234,27.51691 5.13146,36.00547 6.68197,30.84108 20.28098,52.1344 39.58538,61.98277 4.76196,2.42937 5.52911,3.33994 4.67942,5.55422 -1.86908,4.87074 -20.98573,-1.99496 -34.98567,-12.56502 -13.50841,-10.19895 -25.31971,-31.39803 -29.52951,-52.99998 -0.68006,-3.48962 -1.81911,-6.99129 -2.53122,-7.78149 -1.09303,-1.21289 -1.66974,-0.58882 -3.70155,4.00546 -12.22168,27.63539 -16.36314,69.06061 -10.04055,100.43127 9.78221,48.53619 42.67842,82.30372 87.20781,89.51767 9.55785,1.54841 26.99143,1.59847 35.18443,0.10103 31.70238,-5.79427 60.79174,-25.92078 81.16063,-56.15387 1.53597,-2.2798 1.78638,-2.34311 3.33585,-0.84327 1.56583,1.51568 1.5459,1.87481 -0.30529,5.5 -7.86714,15.40631 -29.70925,36.85949 -47.86513,47.01284 -22.48025,12.57167 -49.28542,18.44085 -74.47394,16.30658 z m 53.67024,-166.79165 c 11.04246,-5.22403 20.02451,-18.08565 24.66595,-35.31978 3.17026,-11.7715 3.12457,-29.53571 -0.0999,-38.82955 -3.10394,-8.9465 -7.38982,-16.15618 -13.51812,-22.74011 -6.33912,-6.81042 -7.12831,-6.73083 -17.31226,1.74594 -21.7857,18.1337 -33.17532,42.17173 -32.07072,67.68593 0.65399,15.10592 5.01341,23.05597 15.31266,27.92495 7.21625,3.41149 15.16435,3.25013 23.02236,-0.46738 z"
       id="path94"
       inkscape:connector-curvature="0" />
    <path
       style="fill:#030303"
       d="m 305.50343,445.89766 c -41.3519,-5.07291 -72.87575,-27.5575 -89.96956,-64.17136 -8.28866,-17.7538 -11.47562,-32.28783 -12.22937,-55.77175 -1.32587,-41.30854 7.73057,-74.85485 28.42558,-105.29237 l 7.58936,-11.16218 0.82706,-12 c 1.58477,-22.99393 6.76768,-63.69999 13.90259,-109.189623 2.173,-13.854292 3.95091,-26.116792 3.95091,-27.25 0,-2.577582 -1.60249,-2.671646 -2.93995,-0.172572 -0.55568,1.038292 -6.16321,22.075792 -12.46117,46.749995 -15.77195,61.79148 -20.78461,77.75491 -30.63693,97.56704 -6.34561,12.76045 -11.57733,20.32901 -18.29838,26.47167 -8.1531,7.45147 -13.40311,9.60574 -22.31296,9.15581 -8.03545,-0.40577 -11.15755,-2.0283 -15.12709,-7.86144 -4.72291,-6.9402 -5.73196,-12.95192 -5.61798,-33.47088 0.10523,-18.94574 1.67295,-38.83323 7.44366,-94.4277 C 161.22898,74.438624 161.52841,69 160.03518,69 c -2.20301,0 -1.71602,-1.89386 -18.12851,70.5 -11.65736,51.41942 -15.76596,67.03715 -23.86329,90.7097 C 107.8089,260.13022 98.915026,279.24748 86.505487,298 c -7.469208,11.287 -10.005022,13.90046 -11.772494,12.13299 -0.959666,-0.95966 -0.822622,-1.90348 0.642715,-4.42637 4.565267,-7.86006 19.088105,-37.76122 24.694822,-50.84433 20.07502,-46.84441 30.83215,-82.93405 54.93749,-184.312512 3.91679,-16.472622 7.33172,-30.290469 7.58873,-30.706326 0.25702,-0.415857 1.11592,-0.507206 1.90867,-0.202997 1.24081,0.476142 1.41029,11.428241 1.21798,78.706325 -0.23079,80.73782 -0.0295,85.79083 3.87545,97.29263 3.05923,9.01075 8.1462,14.36059 13.65496,14.36059 3.5894,0 10.23134,-4.86863 14.63214,-10.72554 C 205.63593,208.96021 215.18268,187.89107 223.1582,163.5 230.87754,139.8924 252.76117,57.826209 259.68858,26.506779 260.73771,21.763578 264,20.190758 264,24.428152 c 0,1.416141 -1.32611,19.561636 -2.94692,40.323324 -4.21072,53.937064 -7.11532,119.316794 -5.48912,123.554594 1.03679,2.70183 2.79351,2.06197 11.54088,-4.20362 30.86249,-22.10626 68.76318,-29.32431 92.04052,-17.52879 2.63348,1.33449 5.52065,2.42634 6.41591,2.42634 0.89527,0 6.19773,-1.53728 11.78325,-3.41617 5.58551,-1.87889 11.6713,-3.72636 13.52397,-4.10548 6.12516,-1.25342 3.00054,1.39232 -6.86585,5.8136 -6.03853,2.70595 -9.60545,4.88415 -9.81968,5.99653 -0.1925,0.99955 1.61282,3.915 4.21963,6.81441 9.80497,10.90548 15.10733,22.98659 16.65521,37.94787 1.54505,14.93396 -0.8791,29.37608 -7.14958,42.5944 -9.48862,20.00223 -27.55251,30.25659 -46.42895,26.35641 -22.03889,-4.55359 -34.06481,-23.6858 -30.57384,-48.64037 3.27631,-23.42012 17.63035,-44.30128 41.34457,-60.14491 4.11961,-2.75234 6.75,-5.20393 6.75,-6.29116 0,-3.08704 -9.91678,-6.06858 -22,-6.61443 -8.9562,-0.40459 -11.91457,-0.108 -20.12108,2.01718 -19.7866,5.12401 -42.13603,19.42073 -55.83274,35.71567 -4.30177,5.11781 -4.44591,5.50622 -4.22226,11.37757 0.51686,13.56858 4.80303,36.59923 9.23901,49.64347 3.40234,10.00478 10.40875,22.90576 16.35503,30.11472 4.66636,5.65724 12.41574,11.74807 22.17027,17.42532 1.58173,0.92058 1.68402,1.3624 0.61394,2.65177 -2.95681,3.56274 -22.40746,-4.23527 -34.39306,-13.78862 -13.11855,-10.45639 -22.65578,-27.96964 -28.3002,-51.96778 -3.18787,-13.55373 -5.07998,-12.20198 -11.8979,8.5 -6.37895,19.36908 -8.04126,30.68672 -8.07827,55 -0.0345,22.68583 0.67355,28.90795 5.04435,44.32563 12.51893,44.15961 44.84704,73.68268 87.32634,79.74921 11.59112,1.65535 31.36829,0.66913 41.59657,-2.07428 27.79426,-7.45492 55.09811,-27.23565 70.74247,-51.25056 1.7019,-2.6125 3.4827,-4.75 3.95733,-4.75 4.9645,0 -5.54113,16.51919 -19.11612,30.05844 -19.32649,19.2756 -41.41707,31.19126 -67.58368,36.45463 -10.02032,2.01557 -28.50363,2.67183 -38.99657,1.38459 z m 58.80308,-165.26153 c 13.72828,-6.7228 24.10805,-25.12225 26.5115,-46.995 1.74497,-15.88018 -1.10972,-29.75532 -8.56731,-41.64113 -4.01027,-6.39151 -12.06376,-15 -14.03293,-15 -3.5008,0 -19.22736,13.43202 -25.94945,22.16337 -16.41021,21.3153 -22.97368,51.90034 -14.83125,69.11202 6.65787,14.07358 22.51546,19.38995 36.86944,12.36074 z"
       id="path92"
       inkscape:connector-curvature="0" />
  </g>
</svg>
